<?xml version="1.0" encoding="UTF-8"?>
<!DOCTYPE svg PUBLIC "-//W3C//DTD SVG 1.1//EN" "http://www.w3.org/Graphics/SVG/1.1/DTD/svg11.dtd">
<svg version="1.1" xmlns="http://www.w3.org/2000/svg" xmlns:xlink="http://www.w3.org/1999/xlink" x="0" y="0" width="300" height="475" viewBox="0, 0, 300, 475">
  <g id="Layer_1">
    <g>
      <path d="M171.936,25.278 L279.796,25.278 L279.796,90.562 L171.936,90.562 z" fill="#DE1F26"/>
      <path d="M171.936,25.278 L279.796,25.278 L279.796,90.562 L171.936,90.562 z" fill-opacity="0" stroke="#B21E41" stroke-width="0.576"/>
    </g>
    <g>
      <text transform="matrix(1, 0, 0, 1, 225.865, 58.213)">
        <tspan x="-48.024" y="4.368" font-family="HelveticaNeue-Light" font-size="18" fill="#FFFFFF">High Hazard</tspan>
      </text>
      <path d="M179.137,49.729 L179.137,62.581 L180.361,62.581 L180.361,56.353 L187.993,56.353 L187.993,62.581 L189.217,62.581 L189.217,49.729 L187.993,49.729 L187.993,55.309 L180.361,55.309 L180.361,49.729 z M191.611,49.729 L191.611,51.547 L192.745,51.547 L192.745,49.729 z M191.611,53.293 L191.611,62.581 L192.745,62.581 L192.745,53.293 z M202.771,61.825 L202.771,53.293 L201.637,53.293 L201.637,54.895 L201.601,54.895 Q201.439,54.517 201.142,54.175 Q200.845,53.833 200.467,53.572 Q200.089,53.311 199.63,53.167 Q199.171,53.023 198.649,53.023 Q197.641,53.023 196.858,53.392 Q196.075,53.761 195.544,54.4 Q195.013,55.039 194.734,55.894 Q194.455,56.749 194.455,57.703 Q194.455,58.693 194.689,59.566 Q194.923,60.439 195.436,61.087 Q195.949,61.735 196.741,62.104 Q197.533,62.473 198.649,62.473 Q199.675,62.473 200.44,61.951 Q201.205,61.429 201.601,60.565 L201.637,60.565 L201.637,61.825 Q201.637,63.517 200.935,64.417 Q200.233,65.317 198.649,65.317 Q198.181,65.317 197.731,65.218 Q197.281,65.119 196.912,64.903 Q196.543,64.687 196.282,64.336 Q196.021,63.985 195.931,63.463 L194.797,63.463 Q194.851,64.201 195.202,64.732 Q195.553,65.263 196.084,65.605 Q196.615,65.947 197.281,66.109 Q197.947,66.271 198.649,66.271 Q199.783,66.271 200.566,65.965 Q201.349,65.659 201.835,65.083 Q202.321,64.507 202.546,63.679 Q202.771,62.851 202.771,61.825 z M198.649,61.519 Q197.857,61.519 197.281,61.204 Q196.705,60.889 196.327,60.376 Q195.949,59.863 195.769,59.197 Q195.589,58.531 195.589,57.829 Q195.589,57.109 195.76,56.416 Q195.931,55.723 196.309,55.183 Q196.687,54.643 197.263,54.31 Q197.839,53.977 198.649,53.977 Q199.459,53.977 200.026,54.319 Q200.593,54.661 200.953,55.219 Q201.313,55.777 201.475,56.461 Q201.637,57.145 201.637,57.829 Q201.637,58.531 201.448,59.197 Q201.259,59.863 200.881,60.376 Q200.503,60.889 199.945,61.204 Q199.387,61.519 198.649,61.519 z M204.913,49.729 L204.913,62.581 L206.047,62.581 L206.047,57.163 Q206.065,56.479 206.272,55.894 Q206.479,55.309 206.848,54.886 Q207.217,54.463 207.748,54.22 Q208.279,53.977 208.963,53.977 Q209.647,53.977 210.106,54.193 Q210.565,54.409 210.835,54.787 Q211.105,55.165 211.213,55.678 Q211.321,56.191 211.321,56.785 L211.321,62.581 L212.455,62.581 L212.455,56.605 Q212.455,55.777 212.293,55.111 Q212.131,54.445 211.735,53.986 Q211.339,53.527 210.682,53.275 Q210.025,53.023 209.053,53.023 Q208.063,53.023 207.235,53.536 Q206.407,54.049 206.083,54.895 L206.047,54.895 L206.047,49.729 z M219.817,49.729 L219.817,62.581 L221.041,62.581 L221.041,56.353 L228.673,56.353 L228.673,62.581 L229.897,62.581 L229.897,49.729 L228.673,49.729 L228.673,55.309 L221.041,55.309 L221.041,49.729 z M232.165,56.137 L233.299,56.137 Q233.335,55.003 234.019,54.49 Q234.703,53.977 235.783,53.977 Q236.287,53.977 236.728,54.058 Q237.169,54.139 237.502,54.355 Q237.835,54.571 238.024,54.94 Q238.213,55.309 238.213,55.885 Q238.213,56.263 238.114,56.497 Q238.015,56.731 237.835,56.866 Q237.655,57.001 237.385,57.055 Q237.115,57.109 236.755,57.145 Q235.837,57.253 234.946,57.37 Q234.055,57.487 233.344,57.775 Q232.633,58.063 232.201,58.612 Q231.769,59.161 231.769,60.133 Q231.769,60.835 232.012,61.348 Q232.255,61.861 232.678,62.194 Q233.101,62.527 233.668,62.68 Q234.235,62.833 234.883,62.833 Q235.567,62.833 236.062,62.707 Q236.557,62.581 236.944,62.347 Q237.331,62.113 237.646,61.762 Q237.961,61.411 238.267,60.961 L238.303,60.961 Q238.303,61.321 238.348,61.618 Q238.393,61.915 238.537,62.131 Q238.681,62.347 238.942,62.464 Q239.203,62.581 239.635,62.581 Q239.869,62.581 240.022,62.563 Q240.175,62.545 240.373,62.509 L240.373,61.555 Q240.211,61.627 240.013,61.627 Q239.347,61.627 239.347,60.943 L239.347,56.011 Q239.347,55.075 239.041,54.49 Q238.735,53.905 238.249,53.581 Q237.763,53.257 237.151,53.14 Q236.539,53.023 235.927,53.023 Q235.117,53.023 234.451,53.203 Q233.785,53.383 233.29,53.761 Q232.795,54.139 232.507,54.733 Q232.219,55.327 232.165,56.137 z M238.213,57.505 L238.213,58.981 Q238.213,59.665 237.952,60.205 Q237.691,60.745 237.25,61.123 Q236.809,61.501 236.215,61.699 Q235.621,61.897 234.973,61.897 Q234.577,61.897 234.199,61.771 Q233.821,61.645 233.533,61.402 Q233.245,61.159 233.074,60.826 Q232.903,60.493 232.903,60.061 Q232.903,59.377 233.308,59.008 Q233.713,58.639 234.343,58.441 Q234.973,58.243 235.738,58.144 Q236.503,58.045 237.223,57.919 Q237.457,57.883 237.763,57.793 Q238.069,57.703 238.177,57.505 z M242.173,61.627 L248.311,54.103 L248.311,53.293 L241.219,53.293 L241.219,54.247 L246.871,54.247 L240.805,61.663 L240.805,62.581 L248.563,62.581 L248.563,61.627 z M249.841,56.137 L250.975,56.137 Q251.011,55.003 251.695,54.49 Q252.379,53.977 253.459,53.977 Q253.963,53.977 254.404,54.058 Q254.845,54.139 255.178,54.355 Q255.511,54.571 255.7,54.94 Q255.889,55.309 255.889,55.885 Q255.889,56.263 255.79,56.497 Q255.691,56.731 255.511,56.866 Q255.331,57.001 255.061,57.055 Q254.791,57.109 254.431,57.145 Q253.513,57.253 252.622,57.37 Q251.731,57.487 251.02,57.775 Q250.309,58.063 249.877,58.612 Q249.445,59.161 249.445,60.133 Q249.445,60.835 249.688,61.348 Q249.931,61.861 250.354,62.194 Q250.777,62.527 251.344,62.68 Q251.911,62.833 252.559,62.833 Q253.243,62.833 253.738,62.707 Q254.233,62.581 254.62,62.347 Q255.007,62.113 255.322,61.762 Q255.637,61.411 255.943,60.961 L255.979,60.961 Q255.979,61.321 256.024,61.618 Q256.069,61.915 256.213,62.131 Q256.357,62.347 256.618,62.464 Q256.879,62.581 257.311,62.581 Q257.545,62.581 257.698,62.563 Q257.851,62.545 258.049,62.509 L258.049,61.555 Q257.887,61.627 257.689,61.627 Q257.023,61.627 257.023,60.943 L257.023,56.011 Q257.023,55.075 256.717,54.49 Q256.411,53.905 255.925,53.581 Q255.439,53.257 254.827,53.14 Q254.215,53.023 253.603,53.023 Q252.793,53.023 252.127,53.203 Q251.461,53.383 250.966,53.761 Q250.471,54.139 250.183,54.733 Q249.895,55.327 249.841,56.137 z M255.889,57.505 L255.889,58.981 Q255.889,59.665 255.628,60.205 Q255.367,60.745 254.926,61.123 Q254.485,61.501 253.891,61.699 Q253.297,61.897 252.649,61.897 Q252.253,61.897 251.875,61.771 Q251.497,61.645 251.209,61.402 Q250.921,61.159 250.75,60.826 Q250.579,60.493 250.579,60.061 Q250.579,59.377 250.984,59.008 Q251.389,58.639 252.019,58.441 Q252.649,58.243 253.414,58.144 Q254.179,58.045 254.899,57.919 Q255.133,57.883 255.439,57.793 Q255.745,57.703 255.853,57.505 z M259.291,53.293 L259.291,62.581 L260.425,62.581 L260.425,57.631 Q260.425,56.893 260.677,56.272 Q260.929,55.651 261.388,55.201 Q261.847,54.751 262.477,54.508 Q263.107,54.265 263.881,54.301 L263.881,53.167 Q262.621,53.113 261.712,53.725 Q260.803,54.337 260.371,55.471 L260.335,55.471 L260.335,53.293 z M272.809,62.581 L272.809,49.729 L271.675,49.729 L271.675,55.057 L271.639,55.057 Q271.459,54.553 271.126,54.175 Q270.793,53.797 270.361,53.536 Q269.929,53.275 269.434,53.149 Q268.939,53.023 268.417,53.023 Q267.355,53.023 266.572,53.419 Q265.789,53.815 265.267,54.49 Q264.745,55.165 264.493,56.056 Q264.241,56.947 264.241,57.937 Q264.241,58.927 264.493,59.818 Q264.745,60.709 265.267,61.384 Q265.789,62.059 266.572,62.446 Q267.355,62.833 268.417,62.833 Q268.921,62.833 269.434,62.689 Q269.947,62.545 270.397,62.284 Q270.847,62.023 271.198,61.645 Q271.549,61.267 271.729,60.817 L271.765,60.817 L271.765,62.581 z M265.375,57.937 Q265.375,57.217 265.546,56.506 Q265.717,55.795 266.086,55.237 Q266.455,54.679 267.031,54.328 Q267.607,53.977 268.417,53.977 Q269.317,53.977 269.938,54.328 Q270.559,54.679 270.946,55.237 Q271.333,55.795 271.504,56.506 Q271.675,57.217 271.675,57.937 Q271.675,58.657 271.504,59.368 Q271.333,60.079 270.946,60.637 Q270.559,61.195 269.938,61.546 Q269.317,61.897 268.417,61.897 Q267.607,61.897 267.031,61.546 Q266.455,61.195 266.086,60.637 Q265.717,60.079 265.546,59.368 Q265.375,58.657 265.375,57.937 z" fill="#FFFFFF"/>
      <path d="M179.137,49.729 L179.137,62.581 L180.361,62.581 L180.361,56.353 L187.993,56.353 L187.993,62.581 L189.217,62.581 L189.217,49.729 L187.993,49.729 L187.993,55.309 L180.361,55.309 L180.361,49.729 z M191.611,49.729 L191.611,51.547 L192.745,51.547 L192.745,49.729 z M191.611,53.293 L191.611,62.581 L192.745,62.581 L192.745,53.293 z M202.771,61.825 L202.771,53.293 L201.637,53.293 L201.637,54.895 L201.601,54.895 Q201.439,54.517 201.142,54.175 Q200.845,53.833 200.467,53.572 Q200.089,53.311 199.63,53.167 Q199.171,53.023 198.649,53.023 Q197.641,53.023 196.858,53.392 Q196.075,53.761 195.544,54.4 Q195.013,55.039 194.734,55.894 Q194.455,56.749 194.455,57.703 Q194.455,58.693 194.689,59.566 Q194.923,60.439 195.436,61.087 Q195.949,61.735 196.741,62.104 Q197.533,62.473 198.649,62.473 Q199.675,62.473 200.44,61.951 Q201.205,61.429 201.601,60.565 L201.637,60.565 L201.637,61.825 Q201.637,63.517 200.935,64.417 Q200.233,65.317 198.649,65.317 Q198.181,65.317 197.731,65.218 Q197.281,65.119 196.912,64.903 Q196.543,64.687 196.282,64.336 Q196.021,63.985 195.931,63.463 L194.797,63.463 Q194.851,64.201 195.202,64.732 Q195.553,65.263 196.084,65.605 Q196.615,65.947 197.281,66.109 Q197.947,66.271 198.649,66.271 Q199.783,66.271 200.566,65.965 Q201.349,65.659 201.835,65.083 Q202.321,64.507 202.546,63.679 Q202.771,62.851 202.771,61.825 z M198.649,61.519 Q197.857,61.519 197.281,61.204 Q196.705,60.889 196.327,60.376 Q195.949,59.863 195.769,59.197 Q195.589,58.531 195.589,57.829 Q195.589,57.109 195.76,56.416 Q195.931,55.723 196.309,55.183 Q196.687,54.643 197.263,54.31 Q197.839,53.977 198.649,53.977 Q199.459,53.977 200.026,54.319 Q200.593,54.661 200.953,55.219 Q201.313,55.777 201.475,56.461 Q201.637,57.145 201.637,57.829 Q201.637,58.531 201.448,59.197 Q201.259,59.863 200.881,60.376 Q200.503,60.889 199.945,61.204 Q199.387,61.519 198.649,61.519 z M204.913,49.729 L204.913,62.581 L206.047,62.581 L206.047,57.163 Q206.065,56.479 206.272,55.894 Q206.479,55.309 206.848,54.886 Q207.217,54.463 207.748,54.22 Q208.279,53.977 208.963,53.977 Q209.647,53.977 210.106,54.193 Q210.565,54.409 210.835,54.787 Q211.105,55.165 211.213,55.678 Q211.321,56.191 211.321,56.785 L211.321,62.581 L212.455,62.581 L212.455,56.605 Q212.455,55.777 212.293,55.111 Q212.131,54.445 211.735,53.986 Q211.339,53.527 210.682,53.275 Q210.025,53.023 209.053,53.023 Q208.063,53.023 207.235,53.536 Q206.407,54.049 206.083,54.895 L206.047,54.895 L206.047,49.729 z M219.817,49.729 L219.817,62.581 L221.041,62.581 L221.041,56.353 L228.673,56.353 L228.673,62.581 L229.897,62.581 L229.897,49.729 L228.673,49.729 L228.673,55.309 L221.041,55.309 L221.041,49.729 z M232.165,56.137 L233.299,56.137 Q233.335,55.003 234.019,54.49 Q234.703,53.977 235.783,53.977 Q236.287,53.977 236.728,54.058 Q237.169,54.139 237.502,54.355 Q237.835,54.571 238.024,54.94 Q238.213,55.309 238.213,55.885 Q238.213,56.263 238.114,56.497 Q238.015,56.731 237.835,56.866 Q237.655,57.001 237.385,57.055 Q237.115,57.109 236.755,57.145 Q235.837,57.253 234.946,57.37 Q234.055,57.487 233.344,57.775 Q232.633,58.063 232.201,58.612 Q231.769,59.161 231.769,60.133 Q231.769,60.835 232.012,61.348 Q232.255,61.861 232.678,62.194 Q233.101,62.527 233.668,62.68 Q234.235,62.833 234.883,62.833 Q235.567,62.833 236.062,62.707 Q236.557,62.581 236.944,62.347 Q237.331,62.113 237.646,61.762 Q237.961,61.411 238.267,60.961 L238.303,60.961 Q238.303,61.321 238.348,61.618 Q238.393,61.915 238.537,62.131 Q238.681,62.347 238.942,62.464 Q239.203,62.581 239.635,62.581 Q239.869,62.581 240.022,62.563 Q240.175,62.545 240.373,62.509 L240.373,61.555 Q240.211,61.627 240.013,61.627 Q239.347,61.627 239.347,60.943 L239.347,56.011 Q239.347,55.075 239.041,54.49 Q238.735,53.905 238.249,53.581 Q237.763,53.257 237.151,53.14 Q236.539,53.023 235.927,53.023 Q235.117,53.023 234.451,53.203 Q233.785,53.383 233.29,53.761 Q232.795,54.139 232.507,54.733 Q232.219,55.327 232.165,56.137 z M238.213,57.505 L238.213,58.981 Q238.213,59.665 237.952,60.205 Q237.691,60.745 237.25,61.123 Q236.809,61.501 236.215,61.699 Q235.621,61.897 234.973,61.897 Q234.577,61.897 234.199,61.771 Q233.821,61.645 233.533,61.402 Q233.245,61.159 233.074,60.826 Q232.903,60.493 232.903,60.061 Q232.903,59.377 233.308,59.008 Q233.713,58.639 234.343,58.441 Q234.973,58.243 235.738,58.144 Q236.503,58.045 237.223,57.919 Q237.457,57.883 237.763,57.793 Q238.069,57.703 238.177,57.505 z M242.173,61.627 L248.311,54.103 L248.311,53.293 L241.219,53.293 L241.219,54.247 L246.871,54.247 L240.805,61.663 L240.805,62.581 L248.563,62.581 L248.563,61.627 z M249.841,56.137 L250.975,56.137 Q251.011,55.003 251.695,54.49 Q252.379,53.977 253.459,53.977 Q253.963,53.977 254.404,54.058 Q254.845,54.139 255.178,54.355 Q255.511,54.571 255.7,54.94 Q255.889,55.309 255.889,55.885 Q255.889,56.263 255.79,56.497 Q255.691,56.731 255.511,56.866 Q255.331,57.001 255.061,57.055 Q254.791,57.109 254.431,57.145 Q253.513,57.253 252.622,57.37 Q251.731,57.487 251.02,57.775 Q250.309,58.063 249.877,58.612 Q249.445,59.161 249.445,60.133 Q249.445,60.835 249.688,61.348 Q249.931,61.861 250.354,62.194 Q250.777,62.527 251.344,62.68 Q251.911,62.833 252.559,62.833 Q253.243,62.833 253.738,62.707 Q254.233,62.581 254.62,62.347 Q255.007,62.113 255.322,61.762 Q255.637,61.411 255.943,60.961 L255.979,60.961 Q255.979,61.321 256.024,61.618 Q256.069,61.915 256.213,62.131 Q256.357,62.347 256.618,62.464 Q256.879,62.581 257.311,62.581 Q257.545,62.581 257.698,62.563 Q257.851,62.545 258.049,62.509 L258.049,61.555 Q257.887,61.627 257.689,61.627 Q257.023,61.627 257.023,60.943 L257.023,56.011 Q257.023,55.075 256.717,54.49 Q256.411,53.905 255.925,53.581 Q255.439,53.257 254.827,53.14 Q254.215,53.023 253.603,53.023 Q252.793,53.023 252.127,53.203 Q251.461,53.383 250.966,53.761 Q250.471,54.139 250.183,54.733 Q249.895,55.327 249.841,56.137 z M255.889,57.505 L255.889,58.981 Q255.889,59.665 255.628,60.205 Q255.367,60.745 254.926,61.123 Q254.485,61.501 253.891,61.699 Q253.297,61.897 252.649,61.897 Q252.253,61.897 251.875,61.771 Q251.497,61.645 251.209,61.402 Q250.921,61.159 250.75,60.826 Q250.579,60.493 250.579,60.061 Q250.579,59.377 250.984,59.008 Q251.389,58.639 252.019,58.441 Q252.649,58.243 253.414,58.144 Q254.179,58.045 254.899,57.919 Q255.133,57.883 255.439,57.793 Q255.745,57.703 255.853,57.505 z M259.291,53.293 L259.291,62.581 L260.425,62.581 L260.425,57.631 Q260.425,56.893 260.677,56.272 Q260.929,55.651 261.388,55.201 Q261.847,54.751 262.477,54.508 Q263.107,54.265 263.881,54.301 L263.881,53.167 Q262.621,53.113 261.712,53.725 Q260.803,54.337 260.371,55.471 L260.335,55.471 L260.335,53.293 z M272.809,62.581 L272.809,49.729 L271.675,49.729 L271.675,55.057 L271.639,55.057 Q271.459,54.553 271.126,54.175 Q270.793,53.797 270.361,53.536 Q269.929,53.275 269.434,53.149 Q268.939,53.023 268.417,53.023 Q267.355,53.023 266.572,53.419 Q265.789,53.815 265.267,54.49 Q264.745,55.165 264.493,56.056 Q264.241,56.947 264.241,57.937 Q264.241,58.927 264.493,59.818 Q264.745,60.709 265.267,61.384 Q265.789,62.059 266.572,62.446 Q267.355,62.833 268.417,62.833 Q268.921,62.833 269.434,62.689 Q269.947,62.545 270.397,62.284 Q270.847,62.023 271.198,61.645 Q271.549,61.267 271.729,60.817 L271.765,60.817 L271.765,62.581 z M265.375,57.937 Q265.375,57.217 265.546,56.506 Q265.717,55.795 266.086,55.237 Q266.455,54.679 267.031,54.328 Q267.607,53.977 268.417,53.977 Q269.317,53.977 269.938,54.328 Q270.559,54.679 270.946,55.237 Q271.333,55.795 271.504,56.506 Q271.675,57.217 271.675,57.937 Q271.675,58.657 271.504,59.368 Q271.333,60.079 270.946,60.637 Q270.559,61.195 269.938,61.546 Q269.317,61.897 268.417,61.897 Q267.607,61.897 267.031,61.546 Q266.455,61.195 266.086,60.637 Q265.717,60.079 265.546,59.368 Q265.375,58.657 265.375,57.937 z" fill-opacity="0" stroke="#000000" stroke-width="0.25"/>
    </g>
    <g>
      <path d="M171.935,434.233 L279.795,401.591 L171.935,368.95 z" fill="#DE1F26"/>
      <text transform="matrix(1, 0, 0, 1, 218.458, 406.614)">
        <tspan x="-41.899" y="-13.109" font-family="HelveticaNeue-Light" font-size="14" fill="#FFFFFF">Dirty</tspan>
        <tspan x="-41.899" y="-1.209" font-family="HelveticaNeue-Light" font-size="14" fill="#FFFFFF">Water</tspan>
      </text>
      <g>
        <g>
          <path d="M179.891,360.632 C179.891,364.811 176.494,368.199 172.304,368.199 C168.113,368.199 164.715,364.811 164.715,360.632 C164.715,356.452 168.113,353.063 172.304,353.063 C176.494,353.063 179.891,356.452 179.891,360.632 z" fill="#CECECE"/>
          <path d="M179.891,360.632 C179.891,364.811 176.494,368.199 172.304,368.199 C168.113,368.199 164.715,364.811 164.715,360.632 C164.715,356.452 168.113,353.063 172.304,353.063 C176.494,353.063 179.891,356.452 179.891,360.632 z" fill-opacity="0" stroke="#000000" stroke-width="0.25"/>
        </g>
        <g>
          <g>
            <path d="M170.803,368.199 L173.803,368.199 L173.803,450.199 L170.803,450.199 z" fill="#CECECE"/>
            <path d="M170.803,368.199 L173.803,368.199 L173.803,450.199 L170.803,450.199 z" fill-opacity="0" stroke="#000000" stroke-width="0.25"/>
          </g>
          <g>
            <path d="M170.803,368.199 L173.803,368.199 L173.803,450.199 L170.803,450.199 z" fill="#CECECE"/>
            <path d="M170.803,368.199 L173.803,368.199 L173.803,450.199 L170.803,450.199 z" fill-opacity="0" stroke="#000000" stroke-width="0.25"/>
          </g>
        </g>
      </g>
    </g>
    <g>
      <g>
        <path d="M21.933,368 L129.793,368 L129.793,433.283 L21.933,433.283 z" fill="#834D9F"/>
        <path d="M21.933,368 L129.793,368 L129.793,433.283 L21.933,433.283 z" fill-opacity="0" stroke="#8B3C96" stroke-width="0.576"/>
      </g>
      <g>
        <text transform="matrix(1, 0, 0, 1, 75.863, 401.591)">
          <tspan x="-33.833" y="-0.819" font-family="HelveticaNeue-Bold" font-size="13" fill="#FFFFFF">Dangerous </tspan>
          <tspan x="-34.652" y="10.381" font-family="HelveticaNeue-Bold" font-size="13" fill="#FFFFFF">Marine Life</tspan>
        </text>
        <path d="M44.968,399.056 L44.968,393.206 L46.424,393.206 Q47.178,393.206 47.692,393.421 Q48.205,393.635 48.517,394.038 Q48.829,394.441 48.966,395.007 Q49.102,395.572 49.102,396.274 Q49.102,397.041 48.907,397.574 Q48.712,398.107 48.387,398.439 Q48.062,398.77 47.646,398.913 Q47.23,399.056 46.788,399.056 z M42.927,391.49 L42.927,400.772 L46.931,400.772 Q47.997,400.772 48.784,400.415 Q49.57,400.057 50.097,399.433 Q50.623,398.809 50.883,397.951 Q51.143,397.093 51.143,396.079 Q51.143,394.922 50.825,394.064 Q50.506,393.206 49.941,392.634 Q49.375,392.062 48.602,391.776 Q47.828,391.49 46.931,391.49 z M52.287,396.118 Q52.326,395.468 52.612,395.039 Q52.898,394.61 53.34,394.35 Q53.782,394.09 54.335,393.98 Q54.887,393.869 55.446,393.869 Q55.953,393.869 56.473,393.941 Q56.993,394.012 57.422,394.22 Q57.851,394.428 58.124,394.799 Q58.397,395.169 58.397,395.78 L58.397,399.277 Q58.397,399.732 58.449,400.148 Q58.501,400.564 58.631,400.772 L56.759,400.772 Q56.707,400.616 56.675,400.454 Q56.642,400.291 56.629,400.122 Q56.187,400.577 55.589,400.759 Q54.991,400.941 54.367,400.941 Q53.886,400.941 53.47,400.824 Q53.054,400.707 52.742,400.46 Q52.43,400.213 52.255,399.836 Q52.079,399.459 52.079,398.939 Q52.079,398.367 52.281,397.997 Q52.482,397.626 52.801,397.405 Q53.119,397.184 53.529,397.074 Q53.938,396.963 54.354,396.898 Q54.77,396.833 55.173,396.794 Q55.576,396.755 55.888,396.677 Q56.2,396.599 56.382,396.45 Q56.564,396.3 56.551,396.014 Q56.551,395.715 56.454,395.54 Q56.356,395.364 56.194,395.267 Q56.031,395.169 55.817,395.137 Q55.602,395.104 55.355,395.104 Q54.809,395.104 54.497,395.338 Q54.185,395.572 54.133,396.118 z M56.551,397.483 Q56.434,397.587 56.259,397.646 Q56.083,397.704 55.882,397.743 Q55.68,397.782 55.459,397.808 Q55.238,397.834 55.017,397.873 Q54.809,397.912 54.608,397.977 Q54.406,398.042 54.257,398.153 Q54.107,398.263 54.016,398.432 Q53.925,398.601 53.925,398.861 Q53.925,399.108 54.016,399.277 Q54.107,399.446 54.263,399.544 Q54.419,399.641 54.627,399.68 Q54.835,399.719 55.056,399.719 Q55.602,399.719 55.901,399.537 Q56.2,399.355 56.343,399.102 Q56.486,398.848 56.519,398.588 Q56.551,398.328 56.551,398.172 z M59.827,394.051 L59.827,400.772 L61.673,400.772 L61.673,397.249 Q61.673,396.222 62.011,395.774 Q62.349,395.325 63.103,395.325 Q63.766,395.325 64.026,395.735 Q64.286,396.144 64.286,396.976 L64.286,400.772 L66.132,400.772 L66.132,396.638 Q66.132,396.014 66.022,395.501 Q65.911,394.987 65.638,394.63 Q65.365,394.272 64.891,394.071 Q64.416,393.869 63.675,393.869 Q63.09,393.869 62.531,394.136 Q61.972,394.402 61.621,394.987 L61.582,394.987 L61.582,394.051 z M70.669,399.186 Q70.24,399.186 69.954,399.004 Q69.668,398.822 69.493,398.536 Q69.317,398.25 69.246,397.893 Q69.174,397.535 69.174,397.171 Q69.174,396.794 69.259,396.45 Q69.343,396.105 69.532,395.839 Q69.72,395.572 70,395.416 Q70.279,395.26 70.669,395.26 Q71.124,395.26 71.423,395.429 Q71.722,395.598 71.904,395.884 Q72.086,396.17 72.164,396.541 Q72.242,396.911 72.242,397.327 Q72.242,397.691 72.145,398.023 Q72.047,398.354 71.852,398.614 Q71.657,398.874 71.358,399.03 Q71.059,399.186 70.669,399.186 z M73.997,400.343 L73.997,394.051 L72.242,394.051 L72.242,394.948 L72.216,394.948 Q71.878,394.363 71.378,394.116 Q70.877,393.869 70.214,393.869 Q69.512,393.869 68.973,394.142 Q68.433,394.415 68.069,394.877 Q67.705,395.338 67.517,395.943 Q67.328,396.547 67.328,397.197 Q67.328,397.886 67.491,398.504 Q67.653,399.121 68.004,399.583 Q68.355,400.044 68.901,400.311 Q69.447,400.577 70.201,400.577 Q70.812,400.577 71.365,400.324 Q71.917,400.07 72.216,399.537 L72.242,399.537 L72.242,400.421 Q72.255,401.136 71.898,401.604 Q71.54,402.072 70.76,402.072 Q70.266,402.072 69.889,401.871 Q69.512,401.669 69.382,401.149 L67.549,401.149 Q67.588,401.721 67.868,402.131 Q68.147,402.54 68.57,402.8 Q68.992,403.06 69.506,403.184 Q70.019,403.307 70.513,403.307 Q71.67,403.307 72.359,402.995 Q73.048,402.683 73.412,402.235 Q73.776,401.786 73.887,401.266 Q73.997,400.746 73.997,400.343 z M80.003,396.69 L77,396.69 Q77.013,396.495 77.085,396.248 Q77.156,396.001 77.332,395.78 Q77.507,395.559 77.8,395.41 Q78.092,395.26 78.534,395.26 Q79.21,395.26 79.542,395.624 Q79.873,395.988 80.003,396.69 z M77,397.86 L81.849,397.86 Q81.901,397.08 81.719,396.365 Q81.537,395.65 81.128,395.091 Q80.718,394.532 80.081,394.201 Q79.444,393.869 78.586,393.869 Q77.819,393.869 77.189,394.142 Q76.558,394.415 76.103,394.89 Q75.648,395.364 75.401,396.014 Q75.154,396.664 75.154,397.418 Q75.154,398.198 75.395,398.848 Q75.635,399.498 76.077,399.966 Q76.519,400.434 77.156,400.688 Q77.793,400.941 78.586,400.941 Q79.73,400.941 80.536,400.421 Q81.342,399.901 81.732,398.692 L80.107,398.692 Q80.016,399.004 79.613,399.284 Q79.21,399.563 78.651,399.563 Q77.871,399.563 77.455,399.16 Q77.039,398.757 77,397.86 z M82.941,394.051 L82.941,400.772 L84.787,400.772 L84.787,397.743 Q84.787,397.288 84.878,396.898 Q84.969,396.508 85.184,396.216 Q85.398,395.923 85.749,395.754 Q86.1,395.585 86.607,395.585 Q86.776,395.585 86.958,395.605 Q87.14,395.624 87.27,395.65 L87.27,393.934 Q87.049,393.869 86.867,393.869 Q86.516,393.869 86.191,393.973 Q85.866,394.077 85.58,394.266 Q85.294,394.454 85.073,394.721 Q84.852,394.987 84.722,395.299 L84.696,395.299 L84.696,394.051 z M89.402,397.418 Q89.402,397.015 89.48,396.625 Q89.558,396.235 89.747,395.936 Q89.935,395.637 90.247,395.449 Q90.559,395.26 91.027,395.26 Q91.495,395.26 91.814,395.449 Q92.132,395.637 92.321,395.936 Q92.509,396.235 92.587,396.625 Q92.665,397.015 92.665,397.418 Q92.665,397.821 92.587,398.205 Q92.509,398.588 92.321,398.894 Q92.132,399.199 91.814,399.381 Q91.495,399.563 91.027,399.563 Q90.559,399.563 90.247,399.381 Q89.935,399.199 89.747,398.894 Q89.558,398.588 89.48,398.205 Q89.402,397.821 89.402,397.418 z M87.556,397.418 Q87.556,398.224 87.803,398.874 Q88.05,399.524 88.505,399.986 Q88.96,400.447 89.597,400.694 Q90.234,400.941 91.027,400.941 Q91.82,400.941 92.464,400.694 Q93.107,400.447 93.562,399.986 Q94.017,399.524 94.264,398.874 Q94.511,398.224 94.511,397.418 Q94.511,396.612 94.264,395.956 Q94.017,395.299 93.562,394.838 Q93.107,394.376 92.464,394.123 Q91.82,393.869 91.027,393.869 Q90.234,393.869 89.597,394.123 Q88.96,394.376 88.505,394.838 Q88.05,395.299 87.803,395.956 Q87.556,396.612 87.556,397.418 z M102.012,400.772 L102.012,394.051 L100.166,394.051 L100.166,397.574 Q100.166,398.601 99.828,399.05 Q99.49,399.498 98.736,399.498 Q98.073,399.498 97.813,399.089 Q97.553,398.679 97.553,397.847 L97.553,394.051 L95.707,394.051 L95.707,398.185 Q95.707,398.809 95.818,399.323 Q95.928,399.836 96.201,400.194 Q96.474,400.551 96.949,400.746 Q97.423,400.941 98.164,400.941 Q98.749,400.941 99.308,400.681 Q99.867,400.421 100.218,399.836 L100.257,399.836 L100.257,400.772 z M104.846,398.588 L103.091,398.588 Q103.117,399.264 103.397,399.713 Q103.676,400.161 104.112,400.434 Q104.547,400.707 105.106,400.824 Q105.665,400.941 106.25,400.941 Q106.822,400.941 107.375,400.831 Q107.927,400.72 108.356,400.447 Q108.785,400.174 109.052,399.726 Q109.318,399.277 109.318,398.614 Q109.318,398.146 109.136,397.828 Q108.954,397.509 108.655,397.295 Q108.356,397.08 107.973,396.95 Q107.589,396.82 107.186,396.729 Q106.796,396.638 106.419,396.56 Q106.042,396.482 105.75,396.385 Q105.457,396.287 105.275,396.131 Q105.093,395.975 105.093,395.728 Q105.093,395.52 105.197,395.397 Q105.301,395.273 105.451,395.208 Q105.6,395.143 105.782,395.124 Q105.964,395.104 106.12,395.104 Q106.614,395.104 106.978,395.293 Q107.342,395.481 107.381,396.014 L109.136,396.014 Q109.084,395.39 108.818,394.981 Q108.551,394.571 108.148,394.324 Q107.745,394.077 107.232,393.973 Q106.718,393.869 106.172,393.869 Q105.626,393.869 105.106,393.967 Q104.586,394.064 104.17,394.305 Q103.754,394.545 103.501,394.961 Q103.247,395.377 103.247,396.027 Q103.247,396.469 103.429,396.775 Q103.611,397.08 103.91,397.282 Q104.209,397.483 104.593,397.607 Q104.976,397.73 105.379,397.821 Q106.367,398.029 106.92,398.237 Q107.472,398.445 107.472,398.861 Q107.472,399.108 107.355,399.271 Q107.238,399.433 107.063,399.531 Q106.887,399.628 106.673,399.674 Q106.458,399.719 106.263,399.719 Q105.99,399.719 105.737,399.654 Q105.483,399.589 105.288,399.453 Q105.093,399.316 104.97,399.102 Q104.846,398.887 104.846,398.588 z M42.108,402.69 L42.108,411.972 L44.019,411.972 L44.019,405.459 L44.045,405.459 L46.32,411.972 L47.893,411.972 L50.168,405.394 L50.194,405.394 L50.194,411.972 L52.105,411.972 L52.105,402.69 L49.232,402.69 L47.178,409.073 L47.152,409.073 L44.981,402.69 z M53.626,407.318 Q53.665,406.668 53.951,406.239 Q54.237,405.81 54.679,405.55 Q55.121,405.29 55.674,405.18 Q56.226,405.069 56.785,405.069 Q57.292,405.069 57.812,405.141 Q58.332,405.212 58.761,405.42 Q59.19,405.628 59.463,405.999 Q59.736,406.369 59.736,406.98 L59.736,410.477 Q59.736,410.932 59.788,411.348 Q59.84,411.764 59.97,411.972 L58.098,411.972 Q58.046,411.816 58.014,411.654 Q57.981,411.491 57.968,411.322 Q57.526,411.777 56.928,411.959 Q56.33,412.141 55.706,412.141 Q55.225,412.141 54.809,412.024 Q54.393,411.907 54.081,411.66 Q53.769,411.413 53.594,411.036 Q53.418,410.659 53.418,410.139 Q53.418,409.567 53.62,409.197 Q53.821,408.826 54.14,408.605 Q54.458,408.384 54.868,408.274 Q55.277,408.163 55.693,408.098 Q56.109,408.033 56.512,407.994 Q56.915,407.955 57.227,407.877 Q57.539,407.799 57.721,407.65 Q57.903,407.5 57.89,407.214 Q57.89,406.915 57.793,406.74 Q57.695,406.564 57.533,406.467 Q57.37,406.369 57.156,406.337 Q56.941,406.304 56.694,406.304 Q56.148,406.304 55.836,406.538 Q55.524,406.772 55.472,407.318 z M57.89,408.683 Q57.773,408.787 57.598,408.846 Q57.422,408.904 57.221,408.943 Q57.019,408.982 56.798,409.008 Q56.577,409.034 56.356,409.073 Q56.148,409.112 55.947,409.177 Q55.745,409.242 55.596,409.353 Q55.446,409.463 55.355,409.632 Q55.264,409.801 55.264,410.061 Q55.264,410.308 55.355,410.477 Q55.446,410.646 55.602,410.744 Q55.758,410.841 55.966,410.88 Q56.174,410.919 56.395,410.919 Q56.941,410.919 57.24,410.737 Q57.539,410.555 57.682,410.302 Q57.825,410.048 57.858,409.788 Q57.89,409.528 57.89,409.372 z M61.166,405.251 L61.166,411.972 L63.012,411.972 L63.012,408.943 Q63.012,408.488 63.103,408.098 Q63.194,407.708 63.409,407.416 Q63.623,407.123 63.974,406.954 Q64.325,406.785 64.832,406.785 Q65.001,406.785 65.183,406.805 Q65.365,406.824 65.495,406.85 L65.495,405.134 Q65.274,405.069 65.092,405.069 Q64.741,405.069 64.416,405.173 Q64.091,405.277 63.805,405.466 Q63.519,405.654 63.298,405.921 Q63.077,406.187 62.947,406.499 L62.921,406.499 L62.921,405.251 z M68.121,404.211 L68.121,402.69 L66.275,402.69 L66.275,404.211 z M66.275,405.251 L66.275,411.972 L68.121,411.972 L68.121,405.251 z M69.577,405.251 L69.577,411.972 L71.423,411.972 L71.423,408.449 Q71.423,407.422 71.761,406.974 Q72.099,406.525 72.853,406.525 Q73.516,406.525 73.776,406.935 Q74.036,407.344 74.036,408.176 L74.036,411.972 L75.882,411.972 L75.882,407.838 Q75.882,407.214 75.772,406.701 Q75.661,406.187 75.388,405.83 Q75.115,405.472 74.641,405.271 Q74.166,405.069 73.425,405.069 Q72.84,405.069 72.281,405.336 Q71.722,405.602 71.371,406.187 L71.332,406.187 L71.332,405.251 z M81.81,407.89 L78.807,407.89 Q78.82,407.695 78.892,407.448 Q78.963,407.201 79.139,406.98 Q79.314,406.759 79.607,406.61 Q79.899,406.46 80.341,406.46 Q81.017,406.46 81.349,406.824 Q81.68,407.188 81.81,407.89 z M78.807,409.06 L83.656,409.06 Q83.708,408.28 83.526,407.565 Q83.344,406.85 82.935,406.291 Q82.525,405.732 81.888,405.401 Q81.251,405.069 80.393,405.069 Q79.626,405.069 78.996,405.342 Q78.365,405.615 77.91,406.09 Q77.455,406.564 77.208,407.214 Q76.961,407.864 76.961,408.618 Q76.961,409.398 77.202,410.048 Q77.442,410.698 77.884,411.166 Q78.326,411.634 78.963,411.888 Q79.6,412.141 80.393,412.141 Q81.537,412.141 82.343,411.621 Q83.149,411.101 83.539,409.892 L81.914,409.892 Q81.823,410.204 81.42,410.484 Q81.017,410.763 80.458,410.763 Q79.678,410.763 79.262,410.36 Q78.846,409.957 78.807,409.06 z M88.557,402.69 L88.557,411.972 L95.122,411.972 L95.122,410.256 L90.598,410.256 L90.598,402.69 z M97.969,404.211 L97.969,402.69 L96.123,402.69 L96.123,404.211 z M96.123,405.251 L96.123,411.972 L97.969,411.972 L97.969,405.251 z M99.828,406.486 L99.828,411.972 L101.674,411.972 L101.674,406.486 L102.948,406.486 L102.948,405.251 L101.674,405.251 L101.674,404.848 Q101.674,404.432 101.837,404.257 Q101.999,404.081 102.376,404.081 Q102.727,404.081 103.052,404.12 L103.052,402.742 Q102.818,402.729 102.571,402.71 Q102.324,402.69 102.077,402.69 Q100.946,402.69 100.387,403.262 Q99.828,403.834 99.828,404.731 L99.828,405.251 L98.723,405.251 L98.723,406.486 z M108.278,407.89 L105.275,407.89 Q105.288,407.695 105.36,407.448 Q105.431,407.201 105.607,406.98 Q105.782,406.759 106.075,406.61 Q106.367,406.46 106.809,406.46 Q107.485,406.46 107.817,406.824 Q108.148,407.188 108.278,407.89 z M105.275,409.06 L110.124,409.06 Q110.176,408.28 109.994,407.565 Q109.812,406.85 109.403,406.291 Q108.993,405.732 108.356,405.401 Q107.719,405.069 106.861,405.069 Q106.094,405.069 105.464,405.342 Q104.833,405.615 104.378,406.09 Q103.923,406.564 103.676,407.214 Q103.429,407.864 103.429,408.618 Q103.429,409.398 103.67,410.048 Q103.91,410.698 104.352,411.166 Q104.794,411.634 105.431,411.888 Q106.068,412.141 106.861,412.141 Q108.005,412.141 108.811,411.621 Q109.617,411.101 110.007,409.892 L108.382,409.892 Q108.291,410.204 107.888,410.484 Q107.485,410.763 106.926,410.763 Q106.146,410.763 105.73,410.36 Q105.314,409.957 105.275,409.06 z" fill="#FFFFFF"/>
        <path d="M44.968,399.056 L44.968,393.206 L46.424,393.206 Q47.178,393.206 47.692,393.421 Q48.205,393.635 48.517,394.038 Q48.829,394.441 48.966,395.007 Q49.102,395.572 49.102,396.274 Q49.102,397.041 48.907,397.574 Q48.712,398.107 48.387,398.439 Q48.062,398.77 47.646,398.913 Q47.23,399.056 46.788,399.056 z M42.927,391.49 L42.927,400.772 L46.931,400.772 Q47.997,400.772 48.784,400.415 Q49.57,400.057 50.097,399.433 Q50.623,398.809 50.883,397.951 Q51.143,397.093 51.143,396.079 Q51.143,394.922 50.825,394.064 Q50.506,393.206 49.941,392.634 Q49.375,392.062 48.602,391.776 Q47.828,391.49 46.931,391.49 z M52.287,396.118 Q52.326,395.468 52.612,395.039 Q52.898,394.61 53.34,394.35 Q53.782,394.09 54.335,393.98 Q54.887,393.869 55.446,393.869 Q55.953,393.869 56.473,393.941 Q56.993,394.012 57.422,394.22 Q57.851,394.428 58.124,394.799 Q58.397,395.169 58.397,395.78 L58.397,399.277 Q58.397,399.732 58.449,400.148 Q58.501,400.564 58.631,400.772 L56.759,400.772 Q56.707,400.616 56.675,400.454 Q56.642,400.291 56.629,400.122 Q56.187,400.577 55.589,400.759 Q54.991,400.941 54.367,400.941 Q53.886,400.941 53.47,400.824 Q53.054,400.707 52.742,400.46 Q52.43,400.213 52.255,399.836 Q52.079,399.459 52.079,398.939 Q52.079,398.367 52.281,397.997 Q52.482,397.626 52.801,397.405 Q53.119,397.184 53.529,397.074 Q53.938,396.963 54.354,396.898 Q54.77,396.833 55.173,396.794 Q55.576,396.755 55.888,396.677 Q56.2,396.599 56.382,396.45 Q56.564,396.3 56.551,396.014 Q56.551,395.715 56.454,395.54 Q56.356,395.364 56.194,395.267 Q56.031,395.169 55.817,395.137 Q55.602,395.104 55.355,395.104 Q54.809,395.104 54.497,395.338 Q54.185,395.572 54.133,396.118 z M56.551,397.483 Q56.434,397.587 56.259,397.646 Q56.083,397.704 55.882,397.743 Q55.68,397.782 55.459,397.808 Q55.238,397.834 55.017,397.873 Q54.809,397.912 54.608,397.977 Q54.406,398.042 54.257,398.153 Q54.107,398.263 54.016,398.432 Q53.925,398.601 53.925,398.861 Q53.925,399.108 54.016,399.277 Q54.107,399.446 54.263,399.544 Q54.419,399.641 54.627,399.68 Q54.835,399.719 55.056,399.719 Q55.602,399.719 55.901,399.537 Q56.2,399.355 56.343,399.102 Q56.486,398.848 56.519,398.588 Q56.551,398.328 56.551,398.172 z M59.827,394.051 L59.827,400.772 L61.673,400.772 L61.673,397.249 Q61.673,396.222 62.011,395.774 Q62.349,395.325 63.103,395.325 Q63.766,395.325 64.026,395.735 Q64.286,396.144 64.286,396.976 L64.286,400.772 L66.132,400.772 L66.132,396.638 Q66.132,396.014 66.022,395.501 Q65.911,394.987 65.638,394.63 Q65.365,394.272 64.891,394.071 Q64.416,393.869 63.675,393.869 Q63.09,393.869 62.531,394.136 Q61.972,394.402 61.621,394.987 L61.582,394.987 L61.582,394.051 z M70.669,399.186 Q70.24,399.186 69.954,399.004 Q69.668,398.822 69.493,398.536 Q69.317,398.25 69.246,397.893 Q69.174,397.535 69.174,397.171 Q69.174,396.794 69.259,396.45 Q69.343,396.105 69.532,395.839 Q69.72,395.572 70,395.416 Q70.279,395.26 70.669,395.26 Q71.124,395.26 71.423,395.429 Q71.722,395.598 71.904,395.884 Q72.086,396.17 72.164,396.541 Q72.242,396.911 72.242,397.327 Q72.242,397.691 72.145,398.023 Q72.047,398.354 71.852,398.614 Q71.657,398.874 71.358,399.03 Q71.059,399.186 70.669,399.186 z M73.997,400.343 L73.997,394.051 L72.242,394.051 L72.242,394.948 L72.216,394.948 Q71.878,394.363 71.378,394.116 Q70.877,393.869 70.214,393.869 Q69.512,393.869 68.973,394.142 Q68.433,394.415 68.069,394.877 Q67.705,395.338 67.517,395.943 Q67.328,396.547 67.328,397.197 Q67.328,397.886 67.491,398.504 Q67.653,399.121 68.004,399.583 Q68.355,400.044 68.901,400.311 Q69.447,400.577 70.201,400.577 Q70.812,400.577 71.365,400.324 Q71.917,400.07 72.216,399.537 L72.242,399.537 L72.242,400.421 Q72.255,401.136 71.898,401.604 Q71.54,402.072 70.76,402.072 Q70.266,402.072 69.889,401.871 Q69.512,401.669 69.382,401.149 L67.549,401.149 Q67.588,401.721 67.868,402.131 Q68.147,402.54 68.57,402.8 Q68.992,403.06 69.506,403.184 Q70.019,403.307 70.513,403.307 Q71.67,403.307 72.359,402.995 Q73.048,402.683 73.412,402.235 Q73.776,401.786 73.887,401.266 Q73.997,400.746 73.997,400.343 z M80.003,396.69 L77,396.69 Q77.013,396.495 77.085,396.248 Q77.156,396.001 77.332,395.78 Q77.507,395.559 77.8,395.41 Q78.092,395.26 78.534,395.26 Q79.21,395.26 79.542,395.624 Q79.873,395.988 80.003,396.69 z M77,397.86 L81.849,397.86 Q81.901,397.08 81.719,396.365 Q81.537,395.65 81.128,395.091 Q80.718,394.532 80.081,394.201 Q79.444,393.869 78.586,393.869 Q77.819,393.869 77.189,394.142 Q76.558,394.415 76.103,394.89 Q75.648,395.364 75.401,396.014 Q75.154,396.664 75.154,397.418 Q75.154,398.198 75.395,398.848 Q75.635,399.498 76.077,399.966 Q76.519,400.434 77.156,400.688 Q77.793,400.941 78.586,400.941 Q79.73,400.941 80.536,400.421 Q81.342,399.901 81.732,398.692 L80.107,398.692 Q80.016,399.004 79.613,399.284 Q79.21,399.563 78.651,399.563 Q77.871,399.563 77.455,399.16 Q77.039,398.757 77,397.86 z M82.941,394.051 L82.941,400.772 L84.787,400.772 L84.787,397.743 Q84.787,397.288 84.878,396.898 Q84.969,396.508 85.184,396.216 Q85.398,395.923 85.749,395.754 Q86.1,395.585 86.607,395.585 Q86.776,395.585 86.958,395.605 Q87.14,395.624 87.27,395.65 L87.27,393.934 Q87.049,393.869 86.867,393.869 Q86.516,393.869 86.191,393.973 Q85.866,394.077 85.58,394.266 Q85.294,394.454 85.073,394.721 Q84.852,394.987 84.722,395.299 L84.696,395.299 L84.696,394.051 z M89.402,397.418 Q89.402,397.015 89.48,396.625 Q89.558,396.235 89.747,395.936 Q89.935,395.637 90.247,395.449 Q90.559,395.26 91.027,395.26 Q91.495,395.26 91.814,395.449 Q92.132,395.637 92.321,395.936 Q92.509,396.235 92.587,396.625 Q92.665,397.015 92.665,397.418 Q92.665,397.821 92.587,398.205 Q92.509,398.588 92.321,398.894 Q92.132,399.199 91.814,399.381 Q91.495,399.563 91.027,399.563 Q90.559,399.563 90.247,399.381 Q89.935,399.199 89.747,398.894 Q89.558,398.588 89.48,398.205 Q89.402,397.821 89.402,397.418 z M87.556,397.418 Q87.556,398.224 87.803,398.874 Q88.05,399.524 88.505,399.986 Q88.96,400.447 89.597,400.694 Q90.234,400.941 91.027,400.941 Q91.82,400.941 92.464,400.694 Q93.107,400.447 93.562,399.986 Q94.017,399.524 94.264,398.874 Q94.511,398.224 94.511,397.418 Q94.511,396.612 94.264,395.956 Q94.017,395.299 93.562,394.838 Q93.107,394.376 92.464,394.123 Q91.82,393.869 91.027,393.869 Q90.234,393.869 89.597,394.123 Q88.96,394.376 88.505,394.838 Q88.05,395.299 87.803,395.956 Q87.556,396.612 87.556,397.418 z M102.012,400.772 L102.012,394.051 L100.166,394.051 L100.166,397.574 Q100.166,398.601 99.828,399.05 Q99.49,399.498 98.736,399.498 Q98.073,399.498 97.813,399.089 Q97.553,398.679 97.553,397.847 L97.553,394.051 L95.707,394.051 L95.707,398.185 Q95.707,398.809 95.818,399.323 Q95.928,399.836 96.201,400.194 Q96.474,400.551 96.949,400.746 Q97.423,400.941 98.164,400.941 Q98.749,400.941 99.308,400.681 Q99.867,400.421 100.218,399.836 L100.257,399.836 L100.257,400.772 z M104.846,398.588 L103.091,398.588 Q103.117,399.264 103.397,399.713 Q103.676,400.161 104.112,400.434 Q104.547,400.707 105.106,400.824 Q105.665,400.941 106.25,400.941 Q106.822,400.941 107.375,400.831 Q107.927,400.72 108.356,400.447 Q108.785,400.174 109.052,399.726 Q109.318,399.277 109.318,398.614 Q109.318,398.146 109.136,397.828 Q108.954,397.509 108.655,397.295 Q108.356,397.08 107.973,396.95 Q107.589,396.82 107.186,396.729 Q106.796,396.638 106.419,396.56 Q106.042,396.482 105.75,396.385 Q105.457,396.287 105.275,396.131 Q105.093,395.975 105.093,395.728 Q105.093,395.52 105.197,395.397 Q105.301,395.273 105.451,395.208 Q105.6,395.143 105.782,395.124 Q105.964,395.104 106.12,395.104 Q106.614,395.104 106.978,395.293 Q107.342,395.481 107.381,396.014 L109.136,396.014 Q109.084,395.39 108.818,394.981 Q108.551,394.571 108.148,394.324 Q107.745,394.077 107.232,393.973 Q106.718,393.869 106.172,393.869 Q105.626,393.869 105.106,393.967 Q104.586,394.064 104.17,394.305 Q103.754,394.545 103.501,394.961 Q103.247,395.377 103.247,396.027 Q103.247,396.469 103.429,396.775 Q103.611,397.08 103.91,397.282 Q104.209,397.483 104.593,397.607 Q104.976,397.73 105.379,397.821 Q106.367,398.029 106.92,398.237 Q107.472,398.445 107.472,398.861 Q107.472,399.108 107.355,399.271 Q107.238,399.433 107.063,399.531 Q106.887,399.628 106.673,399.674 Q106.458,399.719 106.263,399.719 Q105.99,399.719 105.737,399.654 Q105.483,399.589 105.288,399.453 Q105.093,399.316 104.97,399.102 Q104.846,398.887 104.846,398.588 z M42.108,402.69 L42.108,411.972 L44.019,411.972 L44.019,405.459 L44.045,405.459 L46.32,411.972 L47.893,411.972 L50.168,405.394 L50.194,405.394 L50.194,411.972 L52.105,411.972 L52.105,402.69 L49.232,402.69 L47.178,409.073 L47.152,409.073 L44.981,402.69 z M53.626,407.318 Q53.665,406.668 53.951,406.239 Q54.237,405.81 54.679,405.55 Q55.121,405.29 55.674,405.18 Q56.226,405.069 56.785,405.069 Q57.292,405.069 57.812,405.141 Q58.332,405.212 58.761,405.42 Q59.19,405.628 59.463,405.999 Q59.736,406.369 59.736,406.98 L59.736,410.477 Q59.736,410.932 59.788,411.348 Q59.84,411.764 59.97,411.972 L58.098,411.972 Q58.046,411.816 58.014,411.654 Q57.981,411.491 57.968,411.322 Q57.526,411.777 56.928,411.959 Q56.33,412.141 55.706,412.141 Q55.225,412.141 54.809,412.024 Q54.393,411.907 54.081,411.66 Q53.769,411.413 53.594,411.036 Q53.418,410.659 53.418,410.139 Q53.418,409.567 53.62,409.197 Q53.821,408.826 54.14,408.605 Q54.458,408.384 54.868,408.274 Q55.277,408.163 55.693,408.098 Q56.109,408.033 56.512,407.994 Q56.915,407.955 57.227,407.877 Q57.539,407.799 57.721,407.65 Q57.903,407.5 57.89,407.214 Q57.89,406.915 57.793,406.74 Q57.695,406.564 57.533,406.467 Q57.37,406.369 57.156,406.337 Q56.941,406.304 56.694,406.304 Q56.148,406.304 55.836,406.538 Q55.524,406.772 55.472,407.318 z M57.89,408.683 Q57.773,408.787 57.598,408.846 Q57.422,408.904 57.221,408.943 Q57.019,408.982 56.798,409.008 Q56.577,409.034 56.356,409.073 Q56.148,409.112 55.947,409.177 Q55.745,409.242 55.596,409.353 Q55.446,409.463 55.355,409.632 Q55.264,409.801 55.264,410.061 Q55.264,410.308 55.355,410.477 Q55.446,410.646 55.602,410.744 Q55.758,410.841 55.966,410.88 Q56.174,410.919 56.395,410.919 Q56.941,410.919 57.24,410.737 Q57.539,410.555 57.682,410.302 Q57.825,410.048 57.858,409.788 Q57.89,409.528 57.89,409.372 z M61.166,405.251 L61.166,411.972 L63.012,411.972 L63.012,408.943 Q63.012,408.488 63.103,408.098 Q63.194,407.708 63.409,407.416 Q63.623,407.123 63.974,406.954 Q64.325,406.785 64.832,406.785 Q65.001,406.785 65.183,406.805 Q65.365,406.824 65.495,406.85 L65.495,405.134 Q65.274,405.069 65.092,405.069 Q64.741,405.069 64.416,405.173 Q64.091,405.277 63.805,405.466 Q63.519,405.654 63.298,405.921 Q63.077,406.187 62.947,406.499 L62.921,406.499 L62.921,405.251 z M68.121,404.211 L68.121,402.69 L66.275,402.69 L66.275,404.211 z M66.275,405.251 L66.275,411.972 L68.121,411.972 L68.121,405.251 z M69.577,405.251 L69.577,411.972 L71.423,411.972 L71.423,408.449 Q71.423,407.422 71.761,406.974 Q72.099,406.525 72.853,406.525 Q73.516,406.525 73.776,406.935 Q74.036,407.344 74.036,408.176 L74.036,411.972 L75.882,411.972 L75.882,407.838 Q75.882,407.214 75.772,406.701 Q75.661,406.187 75.388,405.83 Q75.115,405.472 74.641,405.271 Q74.166,405.069 73.425,405.069 Q72.84,405.069 72.281,405.336 Q71.722,405.602 71.371,406.187 L71.332,406.187 L71.332,405.251 z M81.81,407.89 L78.807,407.89 Q78.82,407.695 78.892,407.448 Q78.963,407.201 79.139,406.98 Q79.314,406.759 79.607,406.61 Q79.899,406.46 80.341,406.46 Q81.017,406.46 81.349,406.824 Q81.68,407.188 81.81,407.89 z M78.807,409.06 L83.656,409.06 Q83.708,408.28 83.526,407.565 Q83.344,406.85 82.935,406.291 Q82.525,405.732 81.888,405.401 Q81.251,405.069 80.393,405.069 Q79.626,405.069 78.996,405.342 Q78.365,405.615 77.91,406.09 Q77.455,406.564 77.208,407.214 Q76.961,407.864 76.961,408.618 Q76.961,409.398 77.202,410.048 Q77.442,410.698 77.884,411.166 Q78.326,411.634 78.963,411.888 Q79.6,412.141 80.393,412.141 Q81.537,412.141 82.343,411.621 Q83.149,411.101 83.539,409.892 L81.914,409.892 Q81.823,410.204 81.42,410.484 Q81.017,410.763 80.458,410.763 Q79.678,410.763 79.262,410.36 Q78.846,409.957 78.807,409.06 z M88.557,402.69 L88.557,411.972 L95.122,411.972 L95.122,410.256 L90.598,410.256 L90.598,402.69 z M97.969,404.211 L97.969,402.69 L96.123,402.69 L96.123,404.211 z M96.123,405.251 L96.123,411.972 L97.969,411.972 L97.969,405.251 z M99.828,406.486 L99.828,411.972 L101.674,411.972 L101.674,406.486 L102.948,406.486 L102.948,405.251 L101.674,405.251 L101.674,404.848 Q101.674,404.432 101.837,404.257 Q101.999,404.081 102.376,404.081 Q102.727,404.081 103.052,404.12 L103.052,402.742 Q102.818,402.729 102.571,402.71 Q102.324,402.69 102.077,402.69 Q100.946,402.69 100.387,403.262 Q99.828,403.834 99.828,404.731 L99.828,405.251 L98.723,405.251 L98.723,406.486 z M108.278,407.89 L105.275,407.89 Q105.288,407.695 105.36,407.448 Q105.431,407.201 105.607,406.98 Q105.782,406.759 106.075,406.61 Q106.367,406.46 106.809,406.46 Q107.485,406.46 107.817,406.824 Q108.148,407.188 108.278,407.89 z M105.275,409.06 L110.124,409.06 Q110.176,408.28 109.994,407.565 Q109.812,406.85 109.403,406.291 Q108.993,405.732 108.356,405.401 Q107.719,405.069 106.861,405.069 Q106.094,405.069 105.464,405.342 Q104.833,405.615 104.378,406.09 Q103.923,406.564 103.676,407.214 Q103.429,407.864 103.429,408.618 Q103.429,409.398 103.67,410.048 Q103.91,410.698 104.352,411.166 Q104.794,411.634 105.431,411.888 Q106.068,412.141 106.861,412.141 Q108.005,412.141 108.811,411.621 Q109.617,411.101 110.007,409.892 L108.382,409.892 Q108.291,410.204 107.888,410.484 Q107.485,410.763 106.926,410.763 Q106.146,410.763 105.73,410.36 Q105.314,409.957 105.275,409.06 z" fill-opacity="0" stroke="#000000" stroke-width="0.25"/>
      </g>
      <g>
        <g>
          <path d="M29.888,360.632 C29.888,364.811 26.492,368.199 22.301,368.199 C18.11,368.199 14.712,364.811 14.712,360.632 C14.712,356.452 18.11,353.063 22.301,353.063 C26.492,353.063 29.888,356.452 29.888,360.632 z" fill="#CECECE"/>
          <path d="M29.888,360.632 C29.888,364.811 26.492,368.199 22.301,368.199 C18.11,368.199 14.712,364.811 14.712,360.632 C14.712,356.452 18.11,353.063 22.301,353.063 C26.492,353.063 29.888,356.452 29.888,360.632 z" fill-opacity="0" stroke="#000000" stroke-width="0.25"/>
        </g>
        <g>
          <g>
            <path d="M20.8,368.199 L23.8,368.199 L23.8,450.199 L20.8,450.199 z" fill="#CECECE"/>
            <path d="M20.8,368.199 L23.8,368.199 L23.8,450.199 L20.8,450.199 z" fill-opacity="0" stroke="#000000" stroke-width="0.25"/>
          </g>
          <g>
            <path d="M20.8,368.199 L23.8,368.199 L23.8,450.199 L20.8,450.199 z" fill="#CECECE"/>
            <path d="M20.8,368.199 L23.8,368.199 L23.8,450.199 L20.8,450.199 z" fill-opacity="0" stroke="#000000" stroke-width="0.25"/>
          </g>
        </g>
      </g>
    </g>
    <g>
      <g>
        <g>
          <path d="M21.933,261 L75.863,261 L75.863,293.721 L21.933,293.721 z" fill="#000000"/>
          <path d="M21.933,261 L75.863,261 L75.863,293.721 L21.933,293.721 z" fill="#000000"/>
        </g>
        <g>
          <path d="M75.863,293.721 L129.793,293.721 L129.793,326.442 L75.863,326.442 z" fill="#000000"/>
          <path d="M75.863,293.721 L129.793,293.721 L129.793,326.442 L75.863,326.442 z" fill="#000000"/>
        </g>
        <g>
          <path d="M21.933,293.721 L75.863,293.721 L75.863,326.442 L21.933,326.442 z" fill="#FFFFFF"/>
          <path d="M21.933,293.721 L75.863,293.721 L75.863,326.442 L21.933,326.442 z" fill="#FFFFFF"/>
        </g>
        <g>
          <path d="M75.863,261 L129.793,261 L129.793,293.721 L75.863,293.721 z" fill="#FFFFFF"/>
          <path d="M75.863,261 L129.793,261 L129.793,293.721 L75.863,293.721 z" fill="#FFFFFF"/>
        </g>
      </g>
      <g>
        <text transform="matrix(1, 0, 0, 1, 76.314, 291.057)">
          <tspan x="-44.46" y="5.284" font-family="HelveticaNeue-Bold" font-size="15" fill="#FFFFFF">Surfing Area</tspan>
        </text>
        <path d="M34.494,292.786 L32.214,292.786 Q32.199,293.776 32.574,294.496 Q32.949,295.216 33.586,295.681 Q34.224,296.146 35.056,296.364 Q35.889,296.581 36.774,296.581 Q37.869,296.581 38.701,296.326 Q39.534,296.071 40.096,295.614 Q40.659,295.156 40.944,294.526 Q41.229,293.896 41.229,293.161 Q41.229,292.261 40.846,291.684 Q40.464,291.106 39.939,290.761 Q39.414,290.416 38.881,290.259 Q38.349,290.101 38.049,290.041 Q37.044,289.786 36.421,289.621 Q35.799,289.456 35.446,289.291 Q35.094,289.126 34.974,288.931 Q34.854,288.736 34.854,288.421 Q34.854,288.076 35.004,287.851 Q35.154,287.626 35.386,287.476 Q35.619,287.326 35.904,287.266 Q36.189,287.206 36.474,287.206 Q36.909,287.206 37.276,287.281 Q37.644,287.356 37.929,287.536 Q38.214,287.716 38.386,288.031 Q38.559,288.346 38.589,288.826 L40.869,288.826 Q40.869,287.896 40.516,287.244 Q40.164,286.591 39.564,286.171 Q38.964,285.751 38.191,285.564 Q37.419,285.376 36.579,285.376 Q35.859,285.376 35.139,285.571 Q34.419,285.766 33.849,286.171 Q33.279,286.576 32.926,287.184 Q32.574,287.791 32.574,288.616 Q32.574,289.351 32.851,289.869 Q33.129,290.386 33.579,290.731 Q34.029,291.076 34.599,291.294 Q35.169,291.511 35.769,291.661 Q36.354,291.826 36.924,291.961 Q37.494,292.096 37.944,292.276 Q38.394,292.456 38.671,292.726 Q38.949,292.996 38.949,293.431 Q38.949,293.836 38.739,294.099 Q38.529,294.361 38.214,294.511 Q37.899,294.661 37.539,294.714 Q37.179,294.766 36.864,294.766 Q36.399,294.766 35.964,294.654 Q35.529,294.541 35.206,294.309 Q34.884,294.076 34.689,293.701 Q34.494,293.326 34.494,292.786 z M49.674,296.341 L49.674,288.586 L47.544,288.586 L47.544,292.651 Q47.544,293.836 47.154,294.354 Q46.764,294.871 45.894,294.871 Q45.129,294.871 44.829,294.399 Q44.529,293.926 44.529,292.966 L44.529,288.586 L42.399,288.586 L42.399,293.356 Q42.399,294.076 42.526,294.669 Q42.654,295.261 42.969,295.674 Q43.284,296.086 43.831,296.311 Q44.379,296.536 45.234,296.536 Q45.909,296.536 46.554,296.236 Q47.199,295.936 47.604,295.261 L47.649,295.261 L47.649,296.341 z M51.294,288.586 L51.294,296.341 L53.424,296.341 L53.424,292.846 Q53.424,292.321 53.529,291.871 Q53.634,291.421 53.881,291.084 Q54.129,290.746 54.534,290.551 Q54.939,290.356 55.524,290.356 Q55.719,290.356 55.929,290.379 Q56.139,290.401 56.289,290.431 L56.289,288.451 Q56.034,288.376 55.824,288.376 Q55.419,288.376 55.044,288.496 Q54.669,288.616 54.339,288.834 Q54.009,289.051 53.754,289.359 Q53.499,289.666 53.349,290.026 L53.319,290.026 L53.319,288.586 z M57.594,290.011 L57.594,296.341 L59.724,296.341 L59.724,290.011 L61.194,290.011 L61.194,288.586 L59.724,288.586 L59.724,288.121 Q59.724,287.641 59.911,287.439 Q60.099,287.236 60.534,287.236 Q60.939,287.236 61.314,287.281 L61.314,285.691 Q61.044,285.676 60.759,285.654 Q60.474,285.631 60.189,285.631 Q58.884,285.631 58.239,286.291 Q57.594,286.951 57.594,287.986 L57.594,288.586 L56.319,288.586 L56.319,290.011 z M62.484,288.586 L62.484,296.341 L64.614,296.341 L64.614,288.586 z M64.614,287.386 L64.614,285.631 L62.484,285.631 L62.484,287.386 z M66.294,288.586 L66.294,296.341 L68.424,296.341 L68.424,292.276 Q68.424,291.091 68.814,290.574 Q69.204,290.056 70.074,290.056 Q70.839,290.056 71.139,290.529 Q71.439,291.001 71.439,291.961 L71.439,296.341 L73.569,296.341 L73.569,291.571 Q73.569,290.851 73.441,290.259 Q73.314,289.666 72.999,289.254 Q72.684,288.841 72.136,288.609 Q71.589,288.376 70.734,288.376 Q70.059,288.376 69.414,288.684 Q68.769,288.991 68.364,289.666 L68.319,289.666 L68.319,288.586 z M78.804,294.511 Q78.309,294.511 77.979,294.301 Q77.649,294.091 77.446,293.761 Q77.244,293.431 77.161,293.019 Q77.079,292.606 77.079,292.186 Q77.079,291.751 77.176,291.354 Q77.274,290.956 77.491,290.649 Q77.709,290.341 78.031,290.161 Q78.354,289.981 78.804,289.981 Q79.329,289.981 79.674,290.176 Q80.019,290.371 80.229,290.701 Q80.439,291.031 80.529,291.459 Q80.619,291.886 80.619,292.366 Q80.619,292.786 80.506,293.169 Q80.394,293.551 80.169,293.851 Q79.944,294.151 79.599,294.331 Q79.254,294.511 78.804,294.511 z M82.644,295.846 L82.644,288.586 L80.619,288.586 L80.619,289.621 L80.589,289.621 Q80.199,288.946 79.621,288.661 Q79.044,288.376 78.279,288.376 Q77.469,288.376 76.846,288.691 Q76.224,289.006 75.804,289.539 Q75.384,290.071 75.166,290.769 Q74.949,291.466 74.949,292.216 Q74.949,293.011 75.136,293.724 Q75.324,294.436 75.729,294.969 Q76.134,295.501 76.764,295.809 Q77.394,296.116 78.264,296.116 Q78.969,296.116 79.606,295.824 Q80.244,295.531 80.589,294.916 L80.619,294.916 L80.619,295.936 Q80.634,296.761 80.221,297.301 Q79.809,297.841 78.909,297.841 Q78.339,297.841 77.904,297.609 Q77.469,297.376 77.319,296.776 L75.204,296.776 Q75.249,297.436 75.571,297.909 Q75.894,298.381 76.381,298.681 Q76.869,298.981 77.461,299.124 Q78.054,299.266 78.624,299.266 Q79.959,299.266 80.754,298.906 Q81.549,298.546 81.969,298.029 Q82.389,297.511 82.516,296.911 Q82.644,296.311 82.644,295.846 z M91.449,292.201 L92.844,288.271 L92.874,288.271 L94.224,292.201 z M91.674,285.631 L87.624,296.341 L89.994,296.341 L90.834,293.956 L94.839,293.956 L95.649,296.341 L98.094,296.341 L94.089,285.631 z M98.799,288.586 L98.799,296.341 L100.929,296.341 L100.929,292.846 Q100.929,292.321 101.034,291.871 Q101.139,291.421 101.386,291.084 Q101.634,290.746 102.039,290.551 Q102.444,290.356 103.029,290.356 Q103.224,290.356 103.434,290.379 Q103.644,290.401 103.794,290.431 L103.794,288.451 Q103.539,288.376 103.329,288.376 Q102.924,288.376 102.549,288.496 Q102.174,288.616 101.844,288.834 Q101.514,289.051 101.259,289.359 Q101.004,289.666 100.854,290.026 L100.824,290.026 L100.824,288.586 z M109.584,291.631 L106.119,291.631 Q106.134,291.406 106.216,291.121 Q106.299,290.836 106.501,290.581 Q106.704,290.326 107.041,290.154 Q107.379,289.981 107.889,289.981 Q108.669,289.981 109.051,290.401 Q109.434,290.821 109.584,291.631 z M106.119,292.981 L111.714,292.981 Q111.774,292.081 111.564,291.256 Q111.354,290.431 110.881,289.786 Q110.409,289.141 109.674,288.759 Q108.939,288.376 107.949,288.376 Q107.064,288.376 106.336,288.691 Q105.609,289.006 105.084,289.554 Q104.559,290.101 104.274,290.851 Q103.989,291.601 103.989,292.471 Q103.989,293.371 104.266,294.121 Q104.544,294.871 105.054,295.411 Q105.564,295.951 106.299,296.244 Q107.034,296.536 107.949,296.536 Q109.269,296.536 110.199,295.936 Q111.129,295.336 111.579,293.941 L109.704,293.941 Q109.599,294.301 109.134,294.624 Q108.669,294.946 108.024,294.946 Q107.124,294.946 106.644,294.481 Q106.164,294.016 106.119,292.981 z M112.884,290.971 Q112.929,290.221 113.259,289.726 Q113.589,289.231 114.099,288.931 Q114.609,288.631 115.246,288.504 Q115.884,288.376 116.529,288.376 Q117.114,288.376 117.714,288.459 Q118.314,288.541 118.809,288.781 Q119.304,289.021 119.619,289.449 Q119.934,289.876 119.934,290.581 L119.934,294.616 Q119.934,295.141 119.994,295.621 Q120.054,296.101 120.204,296.341 L118.044,296.341 Q117.984,296.161 117.946,295.974 Q117.909,295.786 117.894,295.591 Q117.384,296.116 116.694,296.326 Q116.004,296.536 115.284,296.536 Q114.729,296.536 114.249,296.401 Q113.769,296.266 113.409,295.981 Q113.049,295.696 112.846,295.261 Q112.644,294.826 112.644,294.226 Q112.644,293.566 112.876,293.139 Q113.109,292.711 113.476,292.456 Q113.844,292.201 114.316,292.074 Q114.789,291.946 115.269,291.871 Q115.749,291.796 116.214,291.751 Q116.679,291.706 117.039,291.616 Q117.399,291.526 117.609,291.354 Q117.819,291.181 117.804,290.851 Q117.804,290.506 117.691,290.304 Q117.579,290.101 117.391,289.989 Q117.204,289.876 116.956,289.839 Q116.709,289.801 116.424,289.801 Q115.794,289.801 115.434,290.071 Q115.074,290.341 115.014,290.971 z M117.804,292.546 Q117.669,292.666 117.466,292.734 Q117.264,292.801 117.031,292.846 Q116.799,292.891 116.544,292.921 Q116.289,292.951 116.034,292.996 Q115.794,293.041 115.561,293.116 Q115.329,293.191 115.156,293.319 Q114.984,293.446 114.879,293.641 Q114.774,293.836 114.774,294.136 Q114.774,294.421 114.879,294.616 Q114.984,294.811 115.164,294.924 Q115.344,295.036 115.584,295.081 Q115.824,295.126 116.079,295.126 Q116.709,295.126 117.054,294.916 Q117.399,294.706 117.564,294.414 Q117.729,294.121 117.766,293.821 Q117.804,293.521 117.804,293.341 z" fill="#FFFFFF"/>
        <path d="M34.494,292.786 L32.214,292.786 Q32.199,293.776 32.574,294.496 Q32.949,295.216 33.586,295.681 Q34.224,296.146 35.056,296.364 Q35.889,296.581 36.774,296.581 Q37.869,296.581 38.701,296.326 Q39.534,296.071 40.096,295.614 Q40.659,295.156 40.944,294.526 Q41.229,293.896 41.229,293.161 Q41.229,292.261 40.846,291.684 Q40.464,291.106 39.939,290.761 Q39.414,290.416 38.881,290.259 Q38.349,290.101 38.049,290.041 Q37.044,289.786 36.421,289.621 Q35.799,289.456 35.446,289.291 Q35.094,289.126 34.974,288.931 Q34.854,288.736 34.854,288.421 Q34.854,288.076 35.004,287.851 Q35.154,287.626 35.386,287.476 Q35.619,287.326 35.904,287.266 Q36.189,287.206 36.474,287.206 Q36.909,287.206 37.276,287.281 Q37.644,287.356 37.929,287.536 Q38.214,287.716 38.386,288.031 Q38.559,288.346 38.589,288.826 L40.869,288.826 Q40.869,287.896 40.516,287.244 Q40.164,286.591 39.564,286.171 Q38.964,285.751 38.191,285.564 Q37.419,285.376 36.579,285.376 Q35.859,285.376 35.139,285.571 Q34.419,285.766 33.849,286.171 Q33.279,286.576 32.926,287.184 Q32.574,287.791 32.574,288.616 Q32.574,289.351 32.851,289.869 Q33.129,290.386 33.579,290.731 Q34.029,291.076 34.599,291.294 Q35.169,291.511 35.769,291.661 Q36.354,291.826 36.924,291.961 Q37.494,292.096 37.944,292.276 Q38.394,292.456 38.671,292.726 Q38.949,292.996 38.949,293.431 Q38.949,293.836 38.739,294.099 Q38.529,294.361 38.214,294.511 Q37.899,294.661 37.539,294.714 Q37.179,294.766 36.864,294.766 Q36.399,294.766 35.964,294.654 Q35.529,294.541 35.206,294.309 Q34.884,294.076 34.689,293.701 Q34.494,293.326 34.494,292.786 z M49.674,296.341 L49.674,288.586 L47.544,288.586 L47.544,292.651 Q47.544,293.836 47.154,294.354 Q46.764,294.871 45.894,294.871 Q45.129,294.871 44.829,294.399 Q44.529,293.926 44.529,292.966 L44.529,288.586 L42.399,288.586 L42.399,293.356 Q42.399,294.076 42.526,294.669 Q42.654,295.261 42.969,295.674 Q43.284,296.086 43.831,296.311 Q44.379,296.536 45.234,296.536 Q45.909,296.536 46.554,296.236 Q47.199,295.936 47.604,295.261 L47.649,295.261 L47.649,296.341 z M51.294,288.586 L51.294,296.341 L53.424,296.341 L53.424,292.846 Q53.424,292.321 53.529,291.871 Q53.634,291.421 53.881,291.084 Q54.129,290.746 54.534,290.551 Q54.939,290.356 55.524,290.356 Q55.719,290.356 55.929,290.379 Q56.139,290.401 56.289,290.431 L56.289,288.451 Q56.034,288.376 55.824,288.376 Q55.419,288.376 55.044,288.496 Q54.669,288.616 54.339,288.834 Q54.009,289.051 53.754,289.359 Q53.499,289.666 53.349,290.026 L53.319,290.026 L53.319,288.586 z M57.594,290.011 L57.594,296.341 L59.724,296.341 L59.724,290.011 L61.194,290.011 L61.194,288.586 L59.724,288.586 L59.724,288.121 Q59.724,287.641 59.911,287.439 Q60.099,287.236 60.534,287.236 Q60.939,287.236 61.314,287.281 L61.314,285.691 Q61.044,285.676 60.759,285.654 Q60.474,285.631 60.189,285.631 Q58.884,285.631 58.239,286.291 Q57.594,286.951 57.594,287.986 L57.594,288.586 L56.319,288.586 L56.319,290.011 z M62.484,288.586 L62.484,296.341 L64.614,296.341 L64.614,288.586 z M64.614,287.386 L64.614,285.631 L62.484,285.631 L62.484,287.386 z M66.294,288.586 L66.294,296.341 L68.424,296.341 L68.424,292.276 Q68.424,291.091 68.814,290.574 Q69.204,290.056 70.074,290.056 Q70.839,290.056 71.139,290.529 Q71.439,291.001 71.439,291.961 L71.439,296.341 L73.569,296.341 L73.569,291.571 Q73.569,290.851 73.441,290.259 Q73.314,289.666 72.999,289.254 Q72.684,288.841 72.136,288.609 Q71.589,288.376 70.734,288.376 Q70.059,288.376 69.414,288.684 Q68.769,288.991 68.364,289.666 L68.319,289.666 L68.319,288.586 z M78.804,294.511 Q78.309,294.511 77.979,294.301 Q77.649,294.091 77.446,293.761 Q77.244,293.431 77.161,293.019 Q77.079,292.606 77.079,292.186 Q77.079,291.751 77.176,291.354 Q77.274,290.956 77.491,290.649 Q77.709,290.341 78.031,290.161 Q78.354,289.981 78.804,289.981 Q79.329,289.981 79.674,290.176 Q80.019,290.371 80.229,290.701 Q80.439,291.031 80.529,291.459 Q80.619,291.886 80.619,292.366 Q80.619,292.786 80.506,293.169 Q80.394,293.551 80.169,293.851 Q79.944,294.151 79.599,294.331 Q79.254,294.511 78.804,294.511 z M82.644,295.846 L82.644,288.586 L80.619,288.586 L80.619,289.621 L80.589,289.621 Q80.199,288.946 79.621,288.661 Q79.044,288.376 78.279,288.376 Q77.469,288.376 76.846,288.691 Q76.224,289.006 75.804,289.539 Q75.384,290.071 75.166,290.769 Q74.949,291.466 74.949,292.216 Q74.949,293.011 75.136,293.724 Q75.324,294.436 75.729,294.969 Q76.134,295.501 76.764,295.809 Q77.394,296.116 78.264,296.116 Q78.969,296.116 79.606,295.824 Q80.244,295.531 80.589,294.916 L80.619,294.916 L80.619,295.936 Q80.634,296.761 80.221,297.301 Q79.809,297.841 78.909,297.841 Q78.339,297.841 77.904,297.609 Q77.469,297.376 77.319,296.776 L75.204,296.776 Q75.249,297.436 75.571,297.909 Q75.894,298.381 76.381,298.681 Q76.869,298.981 77.461,299.124 Q78.054,299.266 78.624,299.266 Q79.959,299.266 80.754,298.906 Q81.549,298.546 81.969,298.029 Q82.389,297.511 82.516,296.911 Q82.644,296.311 82.644,295.846 z M91.449,292.201 L92.844,288.271 L92.874,288.271 L94.224,292.201 z M91.674,285.631 L87.624,296.341 L89.994,296.341 L90.834,293.956 L94.839,293.956 L95.649,296.341 L98.094,296.341 L94.089,285.631 z M98.799,288.586 L98.799,296.341 L100.929,296.341 L100.929,292.846 Q100.929,292.321 101.034,291.871 Q101.139,291.421 101.386,291.084 Q101.634,290.746 102.039,290.551 Q102.444,290.356 103.029,290.356 Q103.224,290.356 103.434,290.379 Q103.644,290.401 103.794,290.431 L103.794,288.451 Q103.539,288.376 103.329,288.376 Q102.924,288.376 102.549,288.496 Q102.174,288.616 101.844,288.834 Q101.514,289.051 101.259,289.359 Q101.004,289.666 100.854,290.026 L100.824,290.026 L100.824,288.586 z M109.584,291.631 L106.119,291.631 Q106.134,291.406 106.216,291.121 Q106.299,290.836 106.501,290.581 Q106.704,290.326 107.041,290.154 Q107.379,289.981 107.889,289.981 Q108.669,289.981 109.051,290.401 Q109.434,290.821 109.584,291.631 z M106.119,292.981 L111.714,292.981 Q111.774,292.081 111.564,291.256 Q111.354,290.431 110.881,289.786 Q110.409,289.141 109.674,288.759 Q108.939,288.376 107.949,288.376 Q107.064,288.376 106.336,288.691 Q105.609,289.006 105.084,289.554 Q104.559,290.101 104.274,290.851 Q103.989,291.601 103.989,292.471 Q103.989,293.371 104.266,294.121 Q104.544,294.871 105.054,295.411 Q105.564,295.951 106.299,296.244 Q107.034,296.536 107.949,296.536 Q109.269,296.536 110.199,295.936 Q111.129,295.336 111.579,293.941 L109.704,293.941 Q109.599,294.301 109.134,294.624 Q108.669,294.946 108.024,294.946 Q107.124,294.946 106.644,294.481 Q106.164,294.016 106.119,292.981 z M112.884,290.971 Q112.929,290.221 113.259,289.726 Q113.589,289.231 114.099,288.931 Q114.609,288.631 115.246,288.504 Q115.884,288.376 116.529,288.376 Q117.114,288.376 117.714,288.459 Q118.314,288.541 118.809,288.781 Q119.304,289.021 119.619,289.449 Q119.934,289.876 119.934,290.581 L119.934,294.616 Q119.934,295.141 119.994,295.621 Q120.054,296.101 120.204,296.341 L118.044,296.341 Q117.984,296.161 117.946,295.974 Q117.909,295.786 117.894,295.591 Q117.384,296.116 116.694,296.326 Q116.004,296.536 115.284,296.536 Q114.729,296.536 114.249,296.401 Q113.769,296.266 113.409,295.981 Q113.049,295.696 112.846,295.261 Q112.644,294.826 112.644,294.226 Q112.644,293.566 112.876,293.139 Q113.109,292.711 113.476,292.456 Q113.844,292.201 114.316,292.074 Q114.789,291.946 115.269,291.871 Q115.749,291.796 116.214,291.751 Q116.679,291.706 117.039,291.616 Q117.399,291.526 117.609,291.354 Q117.819,291.181 117.804,290.851 Q117.804,290.506 117.691,290.304 Q117.579,290.101 117.391,289.989 Q117.204,289.876 116.956,289.839 Q116.709,289.801 116.424,289.801 Q115.794,289.801 115.434,290.071 Q115.074,290.341 115.014,290.971 z M117.804,292.546 Q117.669,292.666 117.466,292.734 Q117.264,292.801 117.031,292.846 Q116.799,292.891 116.544,292.921 Q116.289,292.951 116.034,292.996 Q115.794,293.041 115.561,293.116 Q115.329,293.191 115.156,293.319 Q114.984,293.446 114.879,293.641 Q114.774,293.836 114.774,294.136 Q114.774,294.421 114.879,294.616 Q114.984,294.811 115.164,294.924 Q115.344,295.036 115.584,295.081 Q115.824,295.126 116.079,295.126 Q116.709,295.126 117.054,294.916 Q117.399,294.706 117.564,294.414 Q117.729,294.121 117.766,293.821 Q117.804,293.521 117.804,293.341 z" fill-opacity="0" stroke="#000000" stroke-width="0.25"/>
      </g>
      <g>
        <g>
          <path d="M29.888,253.569 C29.888,257.748 26.492,261.136 22.301,261.136 C18.11,261.136 14.712,257.748 14.712,253.569 C14.712,249.389 18.11,246 22.301,246 C26.492,246 29.888,249.389 29.888,253.569 z" fill="#CECECE"/>
          <path d="M29.888,253.569 C29.888,257.748 26.492,261.136 22.301,261.136 C18.11,261.136 14.712,257.748 14.712,253.569 C14.712,249.389 18.11,246 22.301,246 C26.492,246 29.888,249.389 29.888,253.569 z" fill-opacity="0" stroke="#000000" stroke-width="0.25"/>
        </g>
        <g>
          <g>
            <path d="M20.8,261.136 L23.8,261.136 L23.8,343.136 L20.8,343.136 z" fill="#CECECE"/>
            <path d="M20.8,261.136 L23.8,261.136 L23.8,343.136 L20.8,343.136 z" fill-opacity="0" stroke="#000000" stroke-width="0.25"/>
          </g>
          <g>
            <path d="M20.8,261.136 L23.8,261.136 L23.8,343.136 L20.8,343.136 z" fill="#CECECE"/>
            <path d="M20.8,261.136 L23.8,261.136 L23.8,343.136 L20.8,343.136 z" fill-opacity="0" stroke="#000000" stroke-width="0.25"/>
          </g>
        </g>
      </g>
    </g>
    <g>
      <g>
        <path d="M21.933,143 L129.793,143 L129.793,208.283 L21.933,208.283 z" fill="#F3EA2F"/>
        <path d="M21.933,143 L129.793,143 L129.793,208.283 L21.933,208.283 z" fill-opacity="0" stroke="#CCC72C" stroke-width="0.574"/>
      </g>
      <g>
        <text transform="matrix(1, 0, 0, 1, 75.863, 175.713)">
          <tspan x="-33.498" y="3.808" font-family="HelveticaNeue-Bold" font-size="18" fill="#000000">Caution</tspan>
        </text>
        <path d="M52.175,170.989 L54.911,170.989 Q54.785,169.873 54.299,169.009 Q53.813,168.145 53.066,167.56 Q52.319,166.975 51.374,166.669 Q50.429,166.363 49.367,166.363 Q47.891,166.363 46.712,166.885 Q45.533,167.407 44.723,168.325 Q43.913,169.243 43.481,170.476 Q43.049,171.709 43.049,173.149 Q43.049,174.553 43.481,175.768 Q43.913,176.983 44.723,177.883 Q45.533,178.783 46.712,179.296 Q47.891,179.809 49.367,179.809 Q50.555,179.809 51.545,179.449 Q52.535,179.089 53.273,178.405 Q54.011,177.721 54.461,176.749 Q54.911,175.777 55.019,174.571 L52.283,174.571 Q52.121,175.867 51.392,176.659 Q50.663,177.451 49.367,177.451 Q48.413,177.451 47.747,177.082 Q47.081,176.713 46.667,176.101 Q46.253,175.489 46.064,174.724 Q45.875,173.959 45.875,173.149 Q45.875,172.303 46.064,171.511 Q46.253,170.719 46.667,170.098 Q47.081,169.477 47.747,169.108 Q48.413,168.739 49.367,168.739 Q49.889,168.739 50.366,168.91 Q50.843,169.081 51.221,169.387 Q51.599,169.693 51.851,170.098 Q52.103,170.503 52.175,170.989 z M56.567,173.077 Q56.621,172.177 57.017,171.583 Q57.413,170.989 58.025,170.629 Q58.637,170.269 59.402,170.116 Q60.167,169.963 60.941,169.963 Q61.643,169.963 62.363,170.062 Q63.083,170.161 63.677,170.449 Q64.271,170.737 64.649,171.25 Q65.027,171.763 65.027,172.609 L65.027,177.451 Q65.027,178.081 65.099,178.657 Q65.171,179.233 65.351,179.521 L62.759,179.521 Q62.687,179.305 62.642,179.08 Q62.597,178.855 62.579,178.621 Q61.967,179.251 61.139,179.503 Q60.311,179.755 59.447,179.755 Q58.781,179.755 58.205,179.593 Q57.629,179.431 57.197,179.089 Q56.765,178.747 56.522,178.225 Q56.279,177.703 56.279,176.983 Q56.279,176.191 56.558,175.678 Q56.837,175.165 57.278,174.859 Q57.719,174.553 58.286,174.4 Q58.853,174.247 59.429,174.157 Q60.005,174.067 60.563,174.013 Q61.121,173.959 61.553,173.851 Q61.985,173.743 62.237,173.536 Q62.489,173.329 62.471,172.933 Q62.471,172.519 62.336,172.276 Q62.201,172.033 61.976,171.898 Q61.751,171.763 61.454,171.718 Q61.157,171.673 60.815,171.673 Q60.059,171.673 59.627,171.997 Q59.195,172.321 59.123,173.077 z M62.471,174.967 Q62.309,175.111 62.066,175.192 Q61.823,175.273 61.544,175.327 Q61.265,175.381 60.959,175.417 Q60.653,175.453 60.347,175.507 Q60.059,175.561 59.78,175.651 Q59.501,175.741 59.294,175.894 Q59.087,176.047 58.961,176.281 Q58.835,176.515 58.835,176.875 Q58.835,177.217 58.961,177.451 Q59.087,177.685 59.303,177.82 Q59.519,177.955 59.807,178.009 Q60.095,178.063 60.401,178.063 Q61.157,178.063 61.571,177.811 Q61.985,177.559 62.183,177.208 Q62.381,176.857 62.426,176.497 Q62.471,176.137 62.471,175.921 z M75.737,179.521 L75.737,170.215 L73.181,170.215 L73.181,175.093 Q73.181,176.515 72.713,177.136 Q72.245,177.757 71.201,177.757 Q70.283,177.757 69.923,177.19 Q69.563,176.623 69.563,175.471 L69.563,170.215 L67.007,170.215 L67.007,175.939 Q67.007,176.803 67.16,177.514 Q67.313,178.225 67.691,178.72 Q68.069,179.215 68.726,179.485 Q69.383,179.755 70.409,179.755 Q71.219,179.755 71.993,179.395 Q72.767,179.035 73.253,178.225 L73.307,178.225 L73.307,179.521 z M80.921,170.215 L80.921,167.425 L78.365,167.425 L78.365,170.215 L76.817,170.215 L76.817,171.925 L78.365,171.925 L78.365,177.415 Q78.365,178.117 78.599,178.549 Q78.833,178.981 79.238,179.215 Q79.643,179.449 80.174,179.53 Q80.705,179.611 81.299,179.611 Q81.677,179.611 82.073,179.593 Q82.469,179.575 82.793,179.521 L82.793,177.541 Q82.613,177.577 82.415,177.595 Q82.217,177.613 82.001,177.613 Q81.353,177.613 81.137,177.397 Q80.921,177.181 80.921,176.533 L80.921,171.925 L82.793,171.925 L82.793,170.215 z M86.645,168.775 L86.645,166.669 L84.089,166.669 L84.089,168.775 z M84.089,170.215 L84.089,179.521 L86.645,179.521 L86.645,170.215 z M90.929,174.877 Q90.929,174.319 91.037,173.779 Q91.145,173.239 91.406,172.825 Q91.667,172.411 92.099,172.15 Q92.531,171.889 93.179,171.889 Q93.827,171.889 94.268,172.15 Q94.709,172.411 94.97,172.825 Q95.231,173.239 95.339,173.779 Q95.447,174.319 95.447,174.877 Q95.447,175.435 95.339,175.966 Q95.231,176.497 94.97,176.92 Q94.709,177.343 94.268,177.595 Q93.827,177.847 93.179,177.847 Q92.531,177.847 92.099,177.595 Q91.667,177.343 91.406,176.92 Q91.145,176.497 91.037,175.966 Q90.929,175.435 90.929,174.877 z M88.373,174.877 Q88.373,175.993 88.715,176.893 Q89.057,177.793 89.687,178.432 Q90.317,179.071 91.199,179.413 Q92.081,179.755 93.179,179.755 Q94.277,179.755 95.168,179.413 Q96.059,179.071 96.689,178.432 Q97.319,177.793 97.661,176.893 Q98.003,175.993 98.003,174.877 Q98.003,173.761 97.661,172.852 Q97.319,171.943 96.689,171.304 Q96.059,170.665 95.168,170.314 Q94.277,169.963 93.179,169.963 Q92.081,169.963 91.199,170.314 Q90.317,170.665 89.687,171.304 Q89.057,171.943 88.715,172.852 Q88.373,173.761 88.373,174.877 z M99.659,170.215 L99.659,179.521 L102.215,179.521 L102.215,174.643 Q102.215,173.221 102.683,172.6 Q103.151,171.979 104.195,171.979 Q105.113,171.979 105.473,172.546 Q105.833,173.113 105.833,174.265 L105.833,179.521 L108.389,179.521 L108.389,173.797 Q108.389,172.933 108.236,172.222 Q108.083,171.511 107.705,171.016 Q107.327,170.521 106.67,170.242 Q106.013,169.963 104.987,169.963 Q104.177,169.963 103.403,170.332 Q102.629,170.701 102.143,171.511 L102.089,171.511 L102.089,170.215 z" fill="#FFFFFF"/>
        <path d="M52.175,170.989 L54.911,170.989 Q54.785,169.873 54.299,169.009 Q53.813,168.145 53.066,167.56 Q52.319,166.975 51.374,166.669 Q50.429,166.363 49.367,166.363 Q47.891,166.363 46.712,166.885 Q45.533,167.407 44.723,168.325 Q43.913,169.243 43.481,170.476 Q43.049,171.709 43.049,173.149 Q43.049,174.553 43.481,175.768 Q43.913,176.983 44.723,177.883 Q45.533,178.783 46.712,179.296 Q47.891,179.809 49.367,179.809 Q50.555,179.809 51.545,179.449 Q52.535,179.089 53.273,178.405 Q54.011,177.721 54.461,176.749 Q54.911,175.777 55.019,174.571 L52.283,174.571 Q52.121,175.867 51.392,176.659 Q50.663,177.451 49.367,177.451 Q48.413,177.451 47.747,177.082 Q47.081,176.713 46.667,176.101 Q46.253,175.489 46.064,174.724 Q45.875,173.959 45.875,173.149 Q45.875,172.303 46.064,171.511 Q46.253,170.719 46.667,170.098 Q47.081,169.477 47.747,169.108 Q48.413,168.739 49.367,168.739 Q49.889,168.739 50.366,168.91 Q50.843,169.081 51.221,169.387 Q51.599,169.693 51.851,170.098 Q52.103,170.503 52.175,170.989 z M56.567,173.077 Q56.621,172.177 57.017,171.583 Q57.413,170.989 58.025,170.629 Q58.637,170.269 59.402,170.116 Q60.167,169.963 60.941,169.963 Q61.643,169.963 62.363,170.062 Q63.083,170.161 63.677,170.449 Q64.271,170.737 64.649,171.25 Q65.027,171.763 65.027,172.609 L65.027,177.451 Q65.027,178.081 65.099,178.657 Q65.171,179.233 65.351,179.521 L62.759,179.521 Q62.687,179.305 62.642,179.08 Q62.597,178.855 62.579,178.621 Q61.967,179.251 61.139,179.503 Q60.311,179.755 59.447,179.755 Q58.781,179.755 58.205,179.593 Q57.629,179.431 57.197,179.089 Q56.765,178.747 56.522,178.225 Q56.279,177.703 56.279,176.983 Q56.279,176.191 56.558,175.678 Q56.837,175.165 57.278,174.859 Q57.719,174.553 58.286,174.4 Q58.853,174.247 59.429,174.157 Q60.005,174.067 60.563,174.013 Q61.121,173.959 61.553,173.851 Q61.985,173.743 62.237,173.536 Q62.489,173.329 62.471,172.933 Q62.471,172.519 62.336,172.276 Q62.201,172.033 61.976,171.898 Q61.751,171.763 61.454,171.718 Q61.157,171.673 60.815,171.673 Q60.059,171.673 59.627,171.997 Q59.195,172.321 59.123,173.077 z M62.471,174.967 Q62.309,175.111 62.066,175.192 Q61.823,175.273 61.544,175.327 Q61.265,175.381 60.959,175.417 Q60.653,175.453 60.347,175.507 Q60.059,175.561 59.78,175.651 Q59.501,175.741 59.294,175.894 Q59.087,176.047 58.961,176.281 Q58.835,176.515 58.835,176.875 Q58.835,177.217 58.961,177.451 Q59.087,177.685 59.303,177.82 Q59.519,177.955 59.807,178.009 Q60.095,178.063 60.401,178.063 Q61.157,178.063 61.571,177.811 Q61.985,177.559 62.183,177.208 Q62.381,176.857 62.426,176.497 Q62.471,176.137 62.471,175.921 z M75.737,179.521 L75.737,170.215 L73.181,170.215 L73.181,175.093 Q73.181,176.515 72.713,177.136 Q72.245,177.757 71.201,177.757 Q70.283,177.757 69.923,177.19 Q69.563,176.623 69.563,175.471 L69.563,170.215 L67.007,170.215 L67.007,175.939 Q67.007,176.803 67.16,177.514 Q67.313,178.225 67.691,178.72 Q68.069,179.215 68.726,179.485 Q69.383,179.755 70.409,179.755 Q71.219,179.755 71.993,179.395 Q72.767,179.035 73.253,178.225 L73.307,178.225 L73.307,179.521 z M80.921,170.215 L80.921,167.425 L78.365,167.425 L78.365,170.215 L76.817,170.215 L76.817,171.925 L78.365,171.925 L78.365,177.415 Q78.365,178.117 78.599,178.549 Q78.833,178.981 79.238,179.215 Q79.643,179.449 80.174,179.53 Q80.705,179.611 81.299,179.611 Q81.677,179.611 82.073,179.593 Q82.469,179.575 82.793,179.521 L82.793,177.541 Q82.613,177.577 82.415,177.595 Q82.217,177.613 82.001,177.613 Q81.353,177.613 81.137,177.397 Q80.921,177.181 80.921,176.533 L80.921,171.925 L82.793,171.925 L82.793,170.215 z M86.645,168.775 L86.645,166.669 L84.089,166.669 L84.089,168.775 z M84.089,170.215 L84.089,179.521 L86.645,179.521 L86.645,170.215 z M90.929,174.877 Q90.929,174.319 91.037,173.779 Q91.145,173.239 91.406,172.825 Q91.667,172.411 92.099,172.15 Q92.531,171.889 93.179,171.889 Q93.827,171.889 94.268,172.15 Q94.709,172.411 94.97,172.825 Q95.231,173.239 95.339,173.779 Q95.447,174.319 95.447,174.877 Q95.447,175.435 95.339,175.966 Q95.231,176.497 94.97,176.92 Q94.709,177.343 94.268,177.595 Q93.827,177.847 93.179,177.847 Q92.531,177.847 92.099,177.595 Q91.667,177.343 91.406,176.92 Q91.145,176.497 91.037,175.966 Q90.929,175.435 90.929,174.877 z M88.373,174.877 Q88.373,175.993 88.715,176.893 Q89.057,177.793 89.687,178.432 Q90.317,179.071 91.199,179.413 Q92.081,179.755 93.179,179.755 Q94.277,179.755 95.168,179.413 Q96.059,179.071 96.689,178.432 Q97.319,177.793 97.661,176.893 Q98.003,175.993 98.003,174.877 Q98.003,173.761 97.661,172.852 Q97.319,171.943 96.689,171.304 Q96.059,170.665 95.168,170.314 Q94.277,169.963 93.179,169.963 Q92.081,169.963 91.199,170.314 Q90.317,170.665 89.687,171.304 Q89.057,171.943 88.715,172.852 Q88.373,173.761 88.373,174.877 z M99.659,170.215 L99.659,179.521 L102.215,179.521 L102.215,174.643 Q102.215,173.221 102.683,172.6 Q103.151,171.979 104.195,171.979 Q105.113,171.979 105.473,172.546 Q105.833,173.113 105.833,174.265 L105.833,179.521 L108.389,179.521 L108.389,173.797 Q108.389,172.933 108.236,172.222 Q108.083,171.511 107.705,171.016 Q107.327,170.521 106.67,170.242 Q106.013,169.963 104.987,169.963 Q104.177,169.963 103.403,170.332 Q102.629,170.701 102.143,171.511 L102.089,171.511 L102.089,170.215 z" fill-opacity="0" stroke="#000000" stroke-width="0.25"/>
      </g>
      <g>
        <g>
          <path d="M29.888,135.569 C29.888,139.748 26.492,143.136 22.301,143.136 C18.11,143.136 14.712,139.748 14.712,135.569 C14.712,131.389 18.11,128 22.301,128 C26.492,128 29.888,131.389 29.888,135.569 z" fill="#CECECE"/>
          <path d="M29.888,135.569 C29.888,139.748 26.492,143.136 22.301,143.136 C18.11,143.136 14.712,139.748 14.712,135.569 C14.712,131.389 18.11,128 22.301,128 C26.492,128 29.888,131.389 29.888,135.569 z" fill-opacity="0" stroke="#000000" stroke-width="0.25"/>
        </g>
        <g>
          <g>
            <path d="M20.8,143.136 L23.8,143.136 L23.8,225.136 L20.8,225.136 z" fill="#CECECE"/>
            <path d="M20.8,143.136 L23.8,143.136 L23.8,225.136 L20.8,225.136 z" fill-opacity="0" stroke="#000000" stroke-width="0.25"/>
          </g>
          <g>
            <path d="M20.8,143.136 L23.8,143.136 L23.8,225.136 L20.8,225.136 z" fill="#CECECE"/>
            <path d="M20.8,143.136 L23.8,143.136 L23.8,225.136 L20.8,225.136 z" fill-opacity="0" stroke="#000000" stroke-width="0.25"/>
          </g>
        </g>
      </g>
    </g>
    <g>
      <g>
        <path d="M170.335,158.748 L278.195,158.748 L278.195,224.032 L170.335,224.032 z" fill="#DE1F26"/>
        <path d="M170.335,158.748 L278.195,158.748 L278.195,224.032 L170.335,224.032 z" fill-opacity="0" stroke="#B21E41" stroke-width="0.576"/>
      </g>
      <g>
        <path d="M170.335,232.547 L278.195,232.547 L278.195,297.83 L170.335,297.83 z" fill="#DE1F26"/>
        <path d="M170.335,232.547 L278.195,232.547 L278.195,297.83 L170.335,297.83 z" fill-opacity="0" stroke="#B21E41" stroke-width="0.576"/>
      </g>
      <text transform="matrix(1, 0, 0, 1, 224.264, 267.083)">
        <tspan x="-43.62" y="-12.055" font-family="HelveticaNeue-Light" font-size="15" fill="#FFFFFF">Water Closed</tspan>
      </text>
      <g>
        <path d="M177.866,150.569 C177.866,154.748 174.469,158.136 170.278,158.136 C166.088,158.136 162.69,154.748 162.69,150.569 C162.69,146.389 166.088,143 170.278,143 C174.469,143 177.866,146.389 177.866,150.569 z" fill="#CECECE"/>
        <path d="M177.866,150.569 C177.866,154.748 174.469,158.136 170.278,158.136 C166.088,158.136 162.69,154.748 162.69,150.569 C162.69,146.389 166.088,143 170.278,143 C174.469,143 177.866,146.389 177.866,150.569 z" fill-opacity="0" stroke="#000000" stroke-width="0.25"/>
      </g>
      <g>
        <g>
          <path d="M168.778,157.748 L171.778,157.748 L171.778,315.748 L168.778,315.748 z" fill="#CECECE"/>
          <path d="M168.778,157.748 L171.778,157.748 L171.778,315.748 L168.778,315.748 z" fill-opacity="0" stroke="#000000" stroke-width="0.25"/>
        </g>
        <g>
          <path d="M168.778,157.748 L171.778,157.748 L171.778,315.748 L168.778,315.748 z" fill="#CECECE"/>
          <path d="M168.778,157.748 L171.778,157.748 L171.778,315.748 L168.778,315.748 z" fill-opacity="0" stroke="#000000" stroke-width="0.25"/>
        </g>
      </g>
    </g>
    <g>
      <g>
        <path d="M21.933,25.571 L129.793,25.571 L129.793,90.855 L21.933,90.855 z" fill="#55B948"/>
        <path d="M21.933,25.571 L129.793,25.571 L129.793,90.855 L21.933,90.855 z" fill-opacity="0" stroke="#489944" stroke-width="0.576"/>
      </g>
      <g>
        <text transform="matrix(1, 0, 0, 1, 76.314, 58.213)">
          <tspan x="-19.17" y="3.808" font-family="HelveticaNeue-Bold" font-size="18" fill="#FFFFFF">Safe</tspan>
        </text>
        <path d="M60.312,57.755 L57.576,57.755 Q57.558,58.943 58.008,59.807 Q58.458,60.671 59.223,61.229 Q59.988,61.787 60.987,62.048 Q61.986,62.309 63.048,62.309 Q64.362,62.309 65.361,62.003 Q66.36,61.697 67.035,61.148 Q67.71,60.599 68.052,59.843 Q68.394,59.087 68.394,58.205 Q68.394,57.125 67.935,56.432 Q67.476,55.739 66.846,55.325 Q66.216,54.911 65.577,54.722 Q64.938,54.533 64.578,54.461 Q63.372,54.155 62.625,53.957 Q61.878,53.759 61.455,53.561 Q61.032,53.363 60.888,53.129 Q60.744,52.895 60.744,52.517 Q60.744,52.103 60.924,51.833 Q61.104,51.563 61.383,51.383 Q61.662,51.203 62.004,51.131 Q62.346,51.059 62.688,51.059 Q63.21,51.059 63.651,51.149 Q64.092,51.239 64.434,51.455 Q64.776,51.671 64.983,52.049 Q65.19,52.427 65.226,53.003 L67.962,53.003 Q67.962,51.887 67.539,51.104 Q67.116,50.321 66.396,49.817 Q65.676,49.313 64.749,49.088 Q63.822,48.863 62.814,48.863 Q61.95,48.863 61.086,49.097 Q60.222,49.331 59.538,49.817 Q58.854,50.303 58.431,51.032 Q58.008,51.761 58.008,52.751 Q58.008,53.633 58.341,54.254 Q58.674,54.875 59.214,55.289 Q59.754,55.703 60.438,55.964 Q61.122,56.225 61.842,56.405 Q62.544,56.603 63.228,56.765 Q63.912,56.927 64.452,57.143 Q64.992,57.359 65.325,57.683 Q65.658,58.007 65.658,58.529 Q65.658,59.015 65.406,59.33 Q65.154,59.645 64.776,59.825 Q64.398,60.005 63.966,60.068 Q63.534,60.131 63.156,60.131 Q62.598,60.131 62.076,59.996 Q61.554,59.861 61.167,59.582 Q60.78,59.303 60.546,58.853 Q60.312,58.403 60.312,57.755 z M69.69,55.577 Q69.744,54.677 70.14,54.083 Q70.536,53.489 71.148,53.129 Q71.76,52.769 72.525,52.616 Q73.29,52.463 74.064,52.463 Q74.766,52.463 75.486,52.562 Q76.206,52.661 76.8,52.949 Q77.394,53.237 77.772,53.75 Q78.15,54.263 78.15,55.109 L78.15,59.951 Q78.15,60.581 78.222,61.157 Q78.294,61.733 78.474,62.021 L75.882,62.021 Q75.81,61.805 75.765,61.58 Q75.72,61.355 75.702,61.121 Q75.09,61.751 74.262,62.003 Q73.434,62.255 72.57,62.255 Q71.904,62.255 71.328,62.093 Q70.752,61.931 70.32,61.589 Q69.888,61.247 69.645,60.725 Q69.402,60.203 69.402,59.483 Q69.402,58.691 69.681,58.178 Q69.96,57.665 70.401,57.359 Q70.842,57.053 71.409,56.9 Q71.976,56.747 72.552,56.657 Q73.128,56.567 73.686,56.513 Q74.244,56.459 74.676,56.351 Q75.108,56.243 75.36,56.036 Q75.612,55.829 75.594,55.433 Q75.594,55.019 75.459,54.776 Q75.324,54.533 75.099,54.398 Q74.874,54.263 74.577,54.218 Q74.28,54.173 73.938,54.173 Q73.182,54.173 72.75,54.497 Q72.318,54.821 72.246,55.577 z M75.594,57.467 Q75.432,57.611 75.189,57.692 Q74.946,57.773 74.667,57.827 Q74.388,57.881 74.082,57.917 Q73.776,57.953 73.47,58.007 Q73.182,58.061 72.903,58.151 Q72.624,58.241 72.417,58.394 Q72.21,58.547 72.084,58.781 Q71.958,59.015 71.958,59.375 Q71.958,59.717 72.084,59.951 Q72.21,60.185 72.426,60.32 Q72.642,60.455 72.93,60.509 Q73.218,60.563 73.524,60.563 Q74.28,60.563 74.694,60.311 Q75.108,60.059 75.306,59.708 Q75.504,59.357 75.549,58.997 Q75.594,58.637 75.594,58.421 z M80.688,54.425 L80.688,62.021 L83.244,62.021 L83.244,54.425 L85.008,54.425 L85.008,52.715 L83.244,52.715 L83.244,52.157 Q83.244,51.581 83.469,51.338 Q83.694,51.095 84.216,51.095 Q84.702,51.095 85.152,51.149 L85.152,49.241 Q84.828,49.223 84.486,49.196 Q84.144,49.169 83.802,49.169 Q82.236,49.169 81.462,49.961 Q80.688,50.753 80.688,51.995 L80.688,52.715 L79.158,52.715 L79.158,54.425 z M92.388,56.369 L88.23,56.369 Q88.248,56.099 88.347,55.757 Q88.446,55.415 88.689,55.109 Q88.932,54.803 89.337,54.596 Q89.742,54.389 90.354,54.389 Q91.29,54.389 91.749,54.893 Q92.208,55.397 92.388,56.369 z M88.23,57.989 L94.944,57.989 Q95.016,56.909 94.764,55.919 Q94.512,54.929 93.945,54.155 Q93.378,53.381 92.496,52.922 Q91.614,52.463 90.426,52.463 Q89.364,52.463 88.491,52.841 Q87.618,53.219 86.988,53.876 Q86.358,54.533 86.016,55.433 Q85.674,56.333 85.674,57.377 Q85.674,58.457 86.007,59.357 Q86.34,60.257 86.952,60.905 Q87.564,61.553 88.446,61.904 Q89.328,62.255 90.426,62.255 Q92.01,62.255 93.126,61.535 Q94.242,60.815 94.782,59.141 L92.532,59.141 Q92.406,59.573 91.848,59.96 Q91.29,60.347 90.516,60.347 Q89.436,60.347 88.86,59.789 Q88.284,59.231 88.23,57.989 z" fill="#FFFFFF"/>
        <path d="M60.312,57.755 L57.576,57.755 Q57.558,58.943 58.008,59.807 Q58.458,60.671 59.223,61.229 Q59.988,61.787 60.987,62.048 Q61.986,62.309 63.048,62.309 Q64.362,62.309 65.361,62.003 Q66.36,61.697 67.035,61.148 Q67.71,60.599 68.052,59.843 Q68.394,59.087 68.394,58.205 Q68.394,57.125 67.935,56.432 Q67.476,55.739 66.846,55.325 Q66.216,54.911 65.577,54.722 Q64.938,54.533 64.578,54.461 Q63.372,54.155 62.625,53.957 Q61.878,53.759 61.455,53.561 Q61.032,53.363 60.888,53.129 Q60.744,52.895 60.744,52.517 Q60.744,52.103 60.924,51.833 Q61.104,51.563 61.383,51.383 Q61.662,51.203 62.004,51.131 Q62.346,51.059 62.688,51.059 Q63.21,51.059 63.651,51.149 Q64.092,51.239 64.434,51.455 Q64.776,51.671 64.983,52.049 Q65.19,52.427 65.226,53.003 L67.962,53.003 Q67.962,51.887 67.539,51.104 Q67.116,50.321 66.396,49.817 Q65.676,49.313 64.749,49.088 Q63.822,48.863 62.814,48.863 Q61.95,48.863 61.086,49.097 Q60.222,49.331 59.538,49.817 Q58.854,50.303 58.431,51.032 Q58.008,51.761 58.008,52.751 Q58.008,53.633 58.341,54.254 Q58.674,54.875 59.214,55.289 Q59.754,55.703 60.438,55.964 Q61.122,56.225 61.842,56.405 Q62.544,56.603 63.228,56.765 Q63.912,56.927 64.452,57.143 Q64.992,57.359 65.325,57.683 Q65.658,58.007 65.658,58.529 Q65.658,59.015 65.406,59.33 Q65.154,59.645 64.776,59.825 Q64.398,60.005 63.966,60.068 Q63.534,60.131 63.156,60.131 Q62.598,60.131 62.076,59.996 Q61.554,59.861 61.167,59.582 Q60.78,59.303 60.546,58.853 Q60.312,58.403 60.312,57.755 z M69.69,55.577 Q69.744,54.677 70.14,54.083 Q70.536,53.489 71.148,53.129 Q71.76,52.769 72.525,52.616 Q73.29,52.463 74.064,52.463 Q74.766,52.463 75.486,52.562 Q76.206,52.661 76.8,52.949 Q77.394,53.237 77.772,53.75 Q78.15,54.263 78.15,55.109 L78.15,59.951 Q78.15,60.581 78.222,61.157 Q78.294,61.733 78.474,62.021 L75.882,62.021 Q75.81,61.805 75.765,61.58 Q75.72,61.355 75.702,61.121 Q75.09,61.751 74.262,62.003 Q73.434,62.255 72.57,62.255 Q71.904,62.255 71.328,62.093 Q70.752,61.931 70.32,61.589 Q69.888,61.247 69.645,60.725 Q69.402,60.203 69.402,59.483 Q69.402,58.691 69.681,58.178 Q69.96,57.665 70.401,57.359 Q70.842,57.053 71.409,56.9 Q71.976,56.747 72.552,56.657 Q73.128,56.567 73.686,56.513 Q74.244,56.459 74.676,56.351 Q75.108,56.243 75.36,56.036 Q75.612,55.829 75.594,55.433 Q75.594,55.019 75.459,54.776 Q75.324,54.533 75.099,54.398 Q74.874,54.263 74.577,54.218 Q74.28,54.173 73.938,54.173 Q73.182,54.173 72.75,54.497 Q72.318,54.821 72.246,55.577 z M75.594,57.467 Q75.432,57.611 75.189,57.692 Q74.946,57.773 74.667,57.827 Q74.388,57.881 74.082,57.917 Q73.776,57.953 73.47,58.007 Q73.182,58.061 72.903,58.151 Q72.624,58.241 72.417,58.394 Q72.21,58.547 72.084,58.781 Q71.958,59.015 71.958,59.375 Q71.958,59.717 72.084,59.951 Q72.21,60.185 72.426,60.32 Q72.642,60.455 72.93,60.509 Q73.218,60.563 73.524,60.563 Q74.28,60.563 74.694,60.311 Q75.108,60.059 75.306,59.708 Q75.504,59.357 75.549,58.997 Q75.594,58.637 75.594,58.421 z M80.688,54.425 L80.688,62.021 L83.244,62.021 L83.244,54.425 L85.008,54.425 L85.008,52.715 L83.244,52.715 L83.244,52.157 Q83.244,51.581 83.469,51.338 Q83.694,51.095 84.216,51.095 Q84.702,51.095 85.152,51.149 L85.152,49.241 Q84.828,49.223 84.486,49.196 Q84.144,49.169 83.802,49.169 Q82.236,49.169 81.462,49.961 Q80.688,50.753 80.688,51.995 L80.688,52.715 L79.158,52.715 L79.158,54.425 z M92.388,56.369 L88.23,56.369 Q88.248,56.099 88.347,55.757 Q88.446,55.415 88.689,55.109 Q88.932,54.803 89.337,54.596 Q89.742,54.389 90.354,54.389 Q91.29,54.389 91.749,54.893 Q92.208,55.397 92.388,56.369 z M88.23,57.989 L94.944,57.989 Q95.016,56.909 94.764,55.919 Q94.512,54.929 93.945,54.155 Q93.378,53.381 92.496,52.922 Q91.614,52.463 90.426,52.463 Q89.364,52.463 88.491,52.841 Q87.618,53.219 86.988,53.876 Q86.358,54.533 86.016,55.433 Q85.674,56.333 85.674,57.377 Q85.674,58.457 86.007,59.357 Q86.34,60.257 86.952,60.905 Q87.564,61.553 88.446,61.904 Q89.328,62.255 90.426,62.255 Q92.01,62.255 93.126,61.535 Q94.242,60.815 94.782,59.141 L92.532,59.141 Q92.406,59.573 91.848,59.96 Q91.29,60.347 90.516,60.347 Q89.436,60.347 88.86,59.789 Q88.284,59.231 88.23,57.989 z" fill-opacity="0" stroke="#000000" stroke-width="0.25"/>
      </g>
      <g>
        <g>
          <path d="M29.888,17.569 C29.888,21.748 26.492,25.136 22.301,25.136 C18.11,25.136 14.712,21.748 14.712,17.569 C14.712,13.389 18.11,10 22.301,10 C26.492,10 29.888,13.389 29.888,17.569 z" fill="#CECECE"/>
          <path d="M29.888,17.569 C29.888,21.748 26.492,25.136 22.301,25.136 C18.11,25.136 14.712,21.748 14.712,17.569 C14.712,13.389 18.11,10 22.301,10 C26.492,10 29.888,13.389 29.888,17.569 z" fill-opacity="0" stroke="#000000" stroke-width="0.25"/>
        </g>
        <g>
          <g>
            <path d="M20.8,25.136 L23.8,25.136 L23.8,107.136 L20.8,107.136 z" fill="#CECECE"/>
            <path d="M20.8,25.136 L23.8,25.136 L23.8,107.136 L20.8,107.136 z" fill-opacity="0" stroke="#000000" stroke-width="0.25"/>
          </g>
          <g>
            <path d="M20.8,25.136 L23.8,25.136 L23.8,107.136 L20.8,107.136 z" fill="#CECECE"/>
            <path d="M20.8,25.136 L23.8,25.136 L23.8,107.136 L20.8,107.136 z" fill-opacity="0" stroke="#000000" stroke-width="0.25"/>
          </g>
        </g>
      </g>
    </g>
    <g>
      <g>
        <path d="M178.101,17.569 C178.101,21.748 174.705,25.136 170.514,25.136 C166.323,25.136 162.925,21.748 162.925,17.569 C162.925,13.389 166.323,10 170.514,10 C174.705,10 178.101,13.389 178.101,17.569 z" fill="#CECECE"/>
        <path d="M178.101,17.569 C178.101,21.748 174.705,25.136 170.514,25.136 C166.323,25.136 162.925,21.748 162.925,17.569 C162.925,13.389 166.323,10 170.514,10 C174.705,10 178.101,13.389 178.101,17.569 z" fill-opacity="0" stroke="#000000" stroke-width="0.25"/>
      </g>
      <g>
        <g>
          <path d="M169.013,25.136 L172.013,25.136 L172.013,107.136 L169.013,107.136 z" fill="#CECECE"/>
          <path d="M169.013,25.136 L172.013,25.136 L172.013,107.136 L169.013,107.136 z" fill-opacity="0" stroke="#000000" stroke-width="0.25"/>
        </g>
        <g>
          <path d="M169.013,25.136 L172.013,25.136 L172.013,107.136 L169.013,107.136 z" fill="#CECECE"/>
          <path d="M169.013,25.136 L172.013,25.136 L172.013,107.136 L169.013,107.136 z" fill-opacity="0" stroke="#000000" stroke-width="0.25"/>
        </g>
      </g>
    </g>
  </g>
</svg>
