<?xml version="1.0" encoding="UTF-8"?>
<!DOCTYPE svg PUBLIC "-//W3C//DTD SVG 1.1//EN" "http://www.w3.org/Graphics/SVG/1.1/DTD/svg11.dtd">
<svg version="1.1" xmlns="http://www.w3.org/2000/svg" xmlns:xlink="http://www.w3.org/1999/xlink" x="0" y="0" width="800" height="700" viewBox="0, 0, 800, 700">
  <defs>
    <linearGradient id="Gradient_1" gradientUnits="userSpaceOnUse" x1="-220.995" y1="119.176" x2="-207.113" y2="117.523" gradientTransform="matrix(1, 0, 0, 1, 388.322, -84.545)">
      <stop offset="0" stop-color="#E9AEB9"/>
      <stop offset="1" stop-color="#F2F2F2"/>
    </linearGradient>
    <linearGradient id="Gradient_2" gradientUnits="userSpaceOnUse" x1="-223.14" y1="117.055" x2="-216.722" y2="122.574" gradientTransform="matrix(1, 0, 0, 1, 388.322, -84.545)">
      <stop offset="0" stop-color="#AE2B55"/>
      <stop offset="1" stop-color="#600105"/>
    </linearGradient>
    <linearGradient id="Gradient_3" gradientUnits="userSpaceOnUse" x1="-319.695" y1="124.392" x2="-224.92" y2="186.196" gradientTransform="matrix(1, 0, 0, 1, 388.322, -84.545)">
      <stop offset="0" stop-color="#FE89A9"/>
      <stop offset="1" stop-color="#CC537C"/>
    </linearGradient>
    <linearGradient id="Gradient_4" gradientUnits="userSpaceOnUse" x1="-246.495" y1="147.112" x2="-244.819" y2="149.201" gradientTransform="matrix(1, 0, 0, 1, 388.322, -84.545)">
      <stop offset="0" stop-color="#B93A81"/>
      <stop offset="1" stop-color="#D5334A"/>
    </linearGradient>
    <linearGradient id="Gradient_5" gradientUnits="userSpaceOnUse" x1="-217.431" y1="120.171" x2="-218.087" y2="124.255" gradientTransform="matrix(1, 0, 0, 1, 385.822, -87.223)">
      <stop offset="0" stop-color="#E6886E"/>
      <stop offset="1" stop-color="#A82A4D"/>
    </linearGradient>
    <linearGradient id="Gradient_6" gradientUnits="userSpaceOnUse" x1="-3.586" y1="350.198" x2="130.694" y2="347.929" gradientTransform="matrix(1, 0, 0, 1, 388.322, -84.545)">
      <stop offset="0" stop-color="#FD1B0A"/>
      <stop offset="1" stop-color="#AF0207"/>
    </linearGradient>
  </defs>
  <g id="Layer_1">
    <path d="M162.12,586.175 L154.827,594.051 L152.785,599.594 L156.869,599.886 L160.661,596.385 L169.412,589.676 L168.246,594.926 L176.122,592.885 L183.414,586.759 L195.375,574.507 L196.25,571.881 L201.792,566.339 L201.792,564.297 L212.294,553.212 L214.336,550.878 L237.089,541.835 L197.416,550.003 L176.705,562.255 L162.12,586.175 L162.12,586.175 z" fill="#610303" id="path3642"/>
    <path d="M385.861,308.467 L382.361,314.885 L384.694,325.387 L441.286,454.906 L450.037,471.825 L445.37,489.328 L445.37,666.104 L435.452,666.687 L433.701,509.164 L427.867,492.245 L426.7,464.824 L429.618,463.074 L383.527,344.056 L374.193,327.72 L367.775,316.052 L385.861,308.467 z" fill="#A60203" id="path3646"/>
    <path d="M357.857,324.22 C381.594,371.088 397.405,424.957 415.615,471.825 C417.422,474.535 413.116,484.211 408.614,484.077 C404.213,483.945 400.911,487.538 401.03,487.577 C401.113,488.662 250.219,525.516 193.916,541.835 C192.976,539.942 177.513,558.038 170.114,568.178 C165.345,574.714 161.495,581.642 157.744,589.676 L165.912,583.842 L184.581,560.505 L170.579,583.258 L176.413,580.341 L183.414,572.757 L189.249,569.839 L193.916,560.505 L201.5,557.004 L204.418,550.587 L216.669,548.253 C282.156,530.548 346.794,509.448 414.449,500.413 C414.449,500.413 427.545,496.179 430.784,491.661 C432.646,489.066 432.535,481.16 432.535,481.16 C433.553,475.049 426.417,468.067 424.336,462.263 C407.232,414.56 390.713,375.925 373.026,324.803 L357.857,324.22 z" fill="#A22933" id="path3640"/>
    <path d="M188.63,11.058 C185.92,11.098 183.27,11.414 181.075,12.092 C172.772,14.657 162.571,21.146 156.75,27.598 C153.55,31.145 149.578,42.428 149.578,42.428 L164.471,70.428 C164.471,70.428 172.057,66.032 174.949,64.596 C181.057,61.563 187.175,57.773 193.914,52.051 C200.652,46.328 205.731,32.02 229.265,49.639 C237.696,55.95 241.322,76.043 239.424,83.267 C235.309,98.931 220.776,125.29 208.501,140.442 C191.436,161.509 168.765,185.765 160.655,208.708 C155.146,231.41 154.011,247.524 166.572,268.272 C176.326,282.642 187.902,291.179 204.877,292.965 C218.481,294.396 226.335,293.801 235.098,289.085 C266.765,273.656 297.642,295.508 329.041,298.861 C351.449,313.756 352.64,318.266 359.919,328.118 L375.487,330.626 L374.245,328.371 L377.717,310.832 C391.739,310.436 397.479,308.538 405.36,302.983 C417.69,303.349 425.816,299.515 435.07,296.806 C441.946,296.946 448.819,296.621 455.694,293.501 L476.318,293.092 L506.437,298.031 L497.363,290.617 C513.247,299.08 530.364,299.306 545.209,302.575 L514.682,283.189 L555.942,307.118 L540.257,293.092 L552.637,298.861 C526.397,269.982 509.441,262.426 497.044,255.367 C484.22,250.386 476.585,241.033 467.244,229.97 C424.544,188.456 390.695,163.152 311.263,172.54 C279.693,176.298 257.097,199.853 252.327,207.368 L252.263,206.947 C240.414,213.484 231.682,247.443 221.34,257.715 C211.684,267.307 194.946,263.404 188.12,254.346 C181.459,245.508 181.087,229.848 183.615,218.688 C187.886,199.834 206.242,178.498 217.256,162.611 C224.167,152.642 235.578,140.926 242.028,130.654 C246.895,122.902 252.955,112.254 255.62,103.342 C260.98,85.417 260.789,64.257 250.502,46.716 C248.08,42.587 237.757,32.96 231.256,28.428 C227.557,25.848 223.79,24.084 219.17,21.511 C212.566,17.831 204.861,13.573 198.585,12.092 C195.71,11.413 192.115,11.007 188.63,11.058 z" fill="#F9F9F9" id="path3552"/>
    <path d="M161.552,34.218 C161.552,34.218 164.493,30.706 164.646,28.855 C164.689,28.328 163.752,27.656 164.027,27.205 C165.13,25.396 168.972,25.921 171.04,26.38 C172.532,26.711 175.372,29.061 175.372,29.061 C175.372,29.061 172.175,26.57 172.484,25.142 C174.825,21.526 185.593,17.896 190.017,17.717 C192.14,17.9 194.88,19.329 196.412,20.811 C198.42,22.755 201.527,26.378 200.743,29.061 C200.324,30.498 197.459,30.468 196.412,31.537 C194.783,33.198 194.424,36.784 192.699,38.344 C190.806,40.055 186.77,39.952 184.86,41.644 C183.367,42.967 183.286,46.418 181.56,47.42 C180.008,48.32 176.847,48.688 175.578,47.42 C174.659,46.501 176.457,44.045 175.578,43.088 C174.108,41.486 168.359,42.469 168.359,42.469 L161.552,34.218 L161.552,34.218 z" fill="url(#Gradient_1)" id="path3554"/>
    <path d="M161.974,35.062 C162.565,32.828 164.798,30.26 167.079,29.885 C169.034,29.563 171.683,30.917 172.694,32.583 C173.614,34.098 173.511,36.849 172.84,38.49 C172.471,39.392 170.947,39.881 170.506,40.751 C170.217,41.322 170.215,42.866 170.215,42.866 L162.922,39.876 C162.922,39.876 161.597,36.485 161.974,35.062 z" fill="url(#Gradient_2)" id="path3542"/>
    <path d="M126.383,82.898 C126.434,69.523 138.706,57.347 145.669,46.594 C147.176,44.267 148.039,41.506 151.857,38.962 L153.301,38.962 L155.158,35.456 C155.158,35.456 157.24,38.082 158.554,37.408 C159.749,36.795 161.876,34.144 162.06,34.606 C163.129,37.348 163.468,40.484 169.39,40.613 C169.39,40.613 170.854,43.466 170.628,44.738 C170.465,45.652 169.778,46.586 169.647,47.505 C169.496,48.552 169.81,49.475 170.009,50.514 C170.569,53.431 170.215,60.414 170.215,60.414 L165.677,70.109 C160.207,76.614 157.126,85.012 154.247,92.964 C152.956,98.836 152.798,104.554 152.27,107.444 L132.674,92.18 L126.383,82.898 z" fill="url(#Gradient_3)" id="path3456"/>
    <path d="M133.605,84.945 C133.605,81.22 135.006,75.832 137.47,72.766 C143.876,64.797 159.748,55.621 160.807,55.263 L166.787,52.492" fill-opacity="0" stroke="#C800B8" stroke-width="1" id="path3446"/>
    <path d="M151.032,130.959 C148.3,130.61 145.489,129.15 143.606,126.833 C135.213,116.506 126.602,95.451 126.28,82.692 L129.168,82.692 C131.872,82.692 131.222,88.248 131.849,87.023 L132.443,84.438 L133.705,86.198 C132.977,79.749 135.611,74.498 139.275,70.728 C144.323,65.533 153.961,58.272 161.139,55.67 C154.055,60.791 146.909,65.882 141.337,71.759 C137.993,76.469 135.941,81.875 137.625,89.292 C138.949,94.663 141.122,97.06 143.194,99.812 C143.194,99.812 145.262,99.094 146.082,99.4 C147.849,100.058 150.207,104.144 150.207,104.144 L152.889,103.319 C152.096,107.685 151.617,114.87 153.714,120.645 C153.583,123.9 154.052,125.766 151.032,130.959 L151.032,130.959 z" fill="#000000" id="path2493"/>
    <path d="M139.22,65.619 C140.982,62.47 145.282,57.248 146.805,56.284 C148.328,55.32 151.24,54.085 152.785,53.659 C149.353,56.333 147.321,59.007 146.221,61.681 L145.93,63.577 C143.269,64.898 140.746,67.41 137.324,71.016 C137.324,71.016 138.383,67.117 139.22,65.619 L139.22,65.619 z" fill="url(#Gradient_4)" id="path3265"/>
    <path d="M140.713,65.159 C140.713,65.511 140.577,65.797 140.409,65.797 C140.241,65.797 140.105,65.511 140.105,65.159 C140.105,64.806 140.241,64.52 140.409,64.52 C140.577,64.52 140.713,64.806 140.713,65.159 z" fill="#000000" id="path3267"/>
    <path d="M141.178,65.004 C141.178,65.357 141.041,65.643 140.873,65.643 C140.705,65.643 140.569,65.357 140.569,65.004 C140.569,64.651 140.705,64.365 140.873,64.365 C141.041,64.365 141.178,64.651 141.178,65.004 z" fill="#000000" id="path3270"/>
    <path d="M141.435,64.385 C141.435,64.738 141.299,65.024 141.131,65.024 C140.963,65.024 140.827,64.738 140.827,64.385 C140.827,64.032 140.963,63.746 141.131,63.746 C141.299,63.746 141.435,64.032 141.435,64.385 z" fill="#000000" id="path3272"/>
    <path d="M141.693,64.23 C141.693,64.583 141.557,64.869 141.389,64.869 C141.221,64.869 141.085,64.583 141.085,64.23 C141.085,63.878 141.221,63.592 141.389,63.592 C141.557,63.592 141.693,63.878 141.693,64.23 z" fill="#000000" id="path3274"/>
    <path d="M141.796,63.766 C141.796,64.119 141.66,64.405 141.492,64.405 C141.324,64.405 141.188,64.119 141.188,63.766 C141.188,63.414 141.324,63.128 141.492,63.128 C141.66,63.128 141.796,63.414 141.796,63.766 z" fill="#000000" id="path3276"/>
    <path d="M142.106,64.127 C142.106,64.48 141.97,64.766 141.802,64.766 C141.634,64.766 141.497,64.48 141.497,64.127 C141.497,63.775 141.634,63.489 141.802,63.489 C141.97,63.489 142.106,63.775 142.106,64.127 z" fill="#000000" id="path3278"/>
    <path d="M142.415,63.508 C142.415,63.861 142.279,64.147 142.111,64.147 C141.943,64.147 141.807,63.861 141.807,63.508 C141.807,63.156 141.943,62.87 142.111,62.87 C142.279,62.87 142.415,63.156 142.415,63.508 z" fill="#000000" id="path3280"/>
    <path d="M142.828,63.818 C142.828,64.171 142.692,64.457 142.523,64.457 C142.355,64.457 142.219,64.171 142.219,63.818 C142.219,63.465 142.355,63.179 142.523,63.179 C142.692,63.179 142.828,63.465 142.828,63.818 z" fill="#000000" id="path3282"/>
    <path d="M142.828,62.838 C142.828,63.191 142.692,63.477 142.523,63.477 C142.355,63.477 142.219,63.191 142.219,62.838 C142.219,62.485 142.355,62.199 142.523,62.199 C142.692,62.199 142.828,62.485 142.828,62.838 z" fill="#000000" id="path3284"/>
    <path d="M143.24,63.251 C143.24,63.603 143.104,63.889 142.936,63.889 C142.768,63.889 142.632,63.603 142.632,63.251 C142.632,62.898 142.768,62.612 142.936,62.612 C143.104,62.612 143.24,62.898 143.24,63.251 z" fill="#000000" id="path3286"/>
    <path d="M143.24,61.91 C143.24,62.263 143.104,62.549 142.936,62.549 C142.768,62.549 142.632,62.263 142.632,61.91 C142.632,61.557 142.768,61.271 142.936,61.271 C143.104,61.271 143.24,61.557 143.24,61.91 z" fill="#000000" id="path3288"/>
    <path d="M143.601,62.58 C143.601,62.933 143.465,63.219 143.297,63.219 C143.129,63.219 142.993,62.933 142.993,62.58 C142.993,62.228 143.129,61.942 143.297,61.942 C143.465,61.942 143.601,62.228 143.601,62.58 z" fill="#000000" id="path3290"/>
    <path d="M143.653,61.343 C143.653,61.695 143.517,61.981 143.349,61.981 C143.181,61.981 143.044,61.695 143.044,61.343 C143.044,60.99 143.181,60.704 143.349,60.704 C143.517,60.704 143.653,60.99 143.653,61.343 z" fill="#000000" id="path3292"/>
    <path d="M143.756,61.755 C143.756,62.108 143.62,62.394 143.452,62.394 C143.284,62.394 143.147,62.108 143.147,61.755 C143.147,61.403 143.284,61.117 143.452,61.117 C143.62,61.117 143.756,61.403 143.756,61.755 z" fill="#000000" id="path3294"/>
    <path d="M143.911,61.085 C143.911,61.438 143.774,61.724 143.606,61.724 C143.438,61.724 143.302,61.438 143.302,61.085 C143.302,60.732 143.438,60.446 143.606,60.446 C143.774,60.446 143.911,60.732 143.911,61.085 z" fill="#000000" id="path3296"/>
    <path d="M144.22,61.755 C144.22,62.108 144.084,62.394 143.916,62.394 C143.748,62.394 143.612,62.108 143.612,61.755 C143.612,61.403 143.748,61.117 143.916,61.117 C144.084,61.117 144.22,61.403 144.22,61.755 z" fill="#000000" id="path3298"/>
    <path d="M144.375,60.672 C144.375,61.025 144.239,61.311 144.07,61.311 C143.902,61.311 143.766,61.025 143.766,60.672 C143.766,60.32 143.902,60.034 144.07,60.034 C144.239,60.034 144.375,60.32 144.375,60.672 z" fill="#000000" id="path3300"/>
    <path d="M144.839,61.24 C144.839,61.592 144.703,61.878 144.535,61.878 C144.367,61.878 144.23,61.592 144.23,61.24 C144.23,60.887 144.367,60.601 144.535,60.601 C144.703,60.601 144.839,60.887 144.839,61.24 z" fill="#000000" id="path3302"/>
    <path d="M144.89,60.053 C144.89,60.406 144.754,60.692 144.586,60.692 C144.418,60.692 144.282,60.406 144.282,60.053 C144.282,59.701 144.418,59.415 144.586,59.415 C144.754,59.415 144.89,59.701 144.89,60.053 z" fill="#000000" id="path3304"/>
    <path d="M145.097,60.672 C145.097,61.025 144.96,61.311 144.792,61.311 C144.624,61.311 144.488,61.025 144.488,60.672 C144.488,60.32 144.624,60.034 144.792,60.034 C144.96,60.034 145.097,60.32 145.097,60.672 z" fill="#000000" id="path3306"/>
    <path d="M145.509,59.538 C145.509,59.891 145.373,60.177 145.205,60.177 C145.037,60.177 144.901,59.891 144.901,59.538 C144.901,59.185 145.037,58.899 145.205,58.899 C145.373,58.899 145.509,59.185 145.509,59.538 z" fill="#000000" id="path3308"/>
    <path d="M145.612,60.002 C145.612,60.355 145.476,60.641 145.308,60.641 C145.14,60.641 145.004,60.355 145.004,60.002 C145.004,59.649 145.14,59.363 145.308,59.363 C145.476,59.363 145.612,59.649 145.612,60.002 z" fill="#000000" id="path3310"/>
    <path d="M145.767,59.022 C145.767,59.375 145.631,59.661 145.463,59.661 C145.295,59.661 145.159,59.375 145.159,59.022 C145.159,58.67 145.295,58.384 145.463,58.384 C145.631,58.384 145.767,58.67 145.767,59.022 z" fill="#000000" id="path3312"/>
    <path d="M146.489,58.816 C146.489,59.169 146.353,59.455 146.185,59.455 C146.017,59.455 145.881,59.169 145.881,58.816 C145.881,58.463 146.017,58.177 146.185,58.177 C146.353,58.177 146.489,58.463 146.489,58.816 z" fill="#000000" id="path3314"/>
    <path d="M146.128,59.332 C146.128,59.684 145.992,59.97 145.824,59.97 C145.656,59.97 145.52,59.684 145.52,59.332 C145.52,58.979 145.656,58.693 145.824,58.693 C145.992,58.693 146.128,58.979 146.128,59.332 z" fill="#000000" id="path3316"/>
    <path d="M146.644,58.352 C146.644,58.705 146.508,58.991 146.339,58.991 C146.171,58.991 146.035,58.705 146.035,58.352 C146.035,57.999 146.171,57.713 146.339,57.713 C146.508,57.713 146.644,57.999 146.644,58.352 z" fill="#000000" id="path3318"/>
    <path d="M147.056,57.888 C147.056,58.24 146.92,58.526 146.752,58.526 C146.584,58.526 146.448,58.24 146.448,57.888 C146.448,57.535 146.584,57.249 146.752,57.249 C146.92,57.249 147.056,57.535 147.056,57.888 z" fill="#000000" id="path3320"/>
    <path d="M140.095,65.726 C140.095,66.079 139.958,66.365 139.79,66.365 C139.622,66.365 139.486,66.079 139.486,65.726 C139.486,65.373 139.622,65.087 139.79,65.087 C139.958,65.087 140.095,65.373 140.095,65.726 z" fill="#5E0400" id="path3322"/>
    <path d="M140.713,65.881 C140.713,66.233 140.577,66.519 140.409,66.519 C140.241,66.519 140.105,66.233 140.105,65.881 C140.105,65.528 140.241,65.242 140.409,65.242 C140.577,65.242 140.713,65.528 140.713,65.881 z" fill="#5E0400" id="path3324"/>
    <path d="M141.539,65.829 C141.539,66.182 141.402,66.468 141.234,66.468 C141.066,66.468 140.93,66.182 140.93,65.829 C140.93,65.476 141.066,65.19 141.234,65.19 C141.402,65.19 141.539,65.476 141.539,65.829 z" fill="#5E0400" id="path3326"/>
    <path d="M141.848,65.313 C141.848,65.666 141.712,65.952 141.544,65.952 C141.376,65.952 141.24,65.666 141.24,65.313 C141.24,64.961 141.376,64.675 141.544,64.675 C141.712,64.675 141.848,64.961 141.848,65.313 z" fill="#5E0400" id="path3328"/>
    <path d="M142.209,64.798 C142.209,65.15 142.073,65.436 141.905,65.436 C141.737,65.436 141.6,65.15 141.6,64.798 C141.6,64.445 141.737,64.159 141.905,64.159 C142.073,64.159 142.209,64.445 142.209,64.798 z" fill="#5E0400" id="path3330"/>
    <path d="M142.725,64.54 C142.725,64.893 142.588,65.179 142.42,65.179 C142.252,65.179 142.116,64.893 142.116,64.54 C142.116,64.187 142.252,63.901 142.42,63.901 C142.588,63.901 142.725,64.187 142.725,64.54 z" fill="#5E0400" id="path3332"/>
    <path d="M143.137,64.127 C143.137,64.48 143.001,64.766 142.833,64.766 C142.665,64.766 142.529,64.48 142.529,64.127 C142.529,63.775 142.665,63.489 142.833,63.489 C143.001,63.489 143.137,63.775 143.137,64.127 z" fill="#5E0400" id="path3334"/>
    <path d="M143.55,63.766 C143.55,64.119 143.413,64.405 143.245,64.405 C143.077,64.405 142.941,64.119 142.941,63.766 C142.941,63.414 143.077,63.128 143.245,63.128 C143.413,63.128 143.55,63.414 143.55,63.766 z" fill="#5E0400" id="path3336"/>
    <path d="M143.808,62.89 C143.808,63.243 143.671,63.528 143.503,63.528 C143.335,63.528 143.199,63.243 143.199,62.89 C143.199,62.537 143.335,62.251 143.503,62.251 C143.671,62.251 143.808,62.537 143.808,62.89 z" fill="#5E0400" id="path3338"/>
    <path d="M144.117,62.271 C144.117,62.624 143.981,62.91 143.813,62.91 C143.645,62.91 143.508,62.624 143.508,62.271 C143.508,61.918 143.645,61.632 143.813,61.632 C143.981,61.632 144.117,61.918 144.117,62.271 z" fill="#5E0400" id="path3340"/>
    <path d="M144.633,62.271 C144.633,62.624 144.496,62.91 144.328,62.91 C144.16,62.91 144.024,62.624 144.024,62.271 C144.024,61.918 144.16,61.632 144.328,61.632 C144.496,61.632 144.633,61.918 144.633,62.271 z" fill="#5E0400" id="path3342"/>
    <path d="M144.839,61.704 C144.839,62.056 144.703,62.342 144.535,62.342 C144.367,62.342 144.23,62.056 144.23,61.704 C144.23,61.351 144.367,61.065 144.535,61.065 C144.703,61.065 144.839,61.351 144.839,61.704 z" fill="#5E0400" id="path3344"/>
    <path d="M145.612,61.188 C145.612,61.541 145.476,61.827 145.308,61.827 C145.14,61.827 145.004,61.541 145.004,61.188 C145.004,60.835 145.14,60.549 145.308,60.549 C145.476,60.549 145.612,60.835 145.612,61.188 z" fill="#5E0400" id="path3346"/>
    <path d="M145.87,60.569 C145.87,60.922 145.734,61.208 145.566,61.208 C145.398,61.208 145.262,60.922 145.262,60.569 C145.262,60.216 145.398,59.931 145.566,59.931 C145.734,59.931 145.87,60.216 145.87,60.569 z" fill="#5E0400" id="path3348"/>
    <path d="M146.18,60.208 C146.18,60.561 146.043,60.847 145.875,60.847 C145.707,60.847 145.571,60.561 145.571,60.208 C145.571,59.856 145.707,59.57 145.875,59.57 C146.043,59.57 146.18,59.856 146.18,60.208 z" fill="#5E0400" id="path3350"/>
    <path d="M146.592,59.383 C146.592,59.736 146.456,60.022 146.288,60.022 C146.12,60.022 145.984,59.736 145.984,59.383 C145.984,59.03 146.12,58.745 146.288,58.745 C146.456,58.745 146.592,59.03 146.592,59.383 z" fill="#5E0400" id="path3352"/>
    <path d="M147.005,58.661 C147.005,59.014 146.868,59.3 146.7,59.3 C146.532,59.3 146.396,59.014 146.396,58.661 C146.396,58.308 146.532,58.023 146.7,58.023 C146.868,58.023 147.005,58.308 147.005,58.661 z" fill="#5E0400" id="path3354"/>
    <path d="M147.262,58.249 C147.262,58.601 147.126,58.887 146.958,58.887 C146.79,58.887 146.654,58.601 146.654,58.249 C146.654,57.896 146.79,57.61 146.958,57.61 C147.126,57.61 147.262,57.896 147.262,58.249 z" fill="#5E0400" id="path3356"/>
    <path d="M147.675,57.785 C147.675,58.137 147.539,58.423 147.371,58.423 C147.203,58.423 147.067,58.137 147.067,57.785 C147.067,57.432 147.203,57.146 147.371,57.146 C147.539,57.146 147.675,57.432 147.675,57.785 z" fill="#5E0400" id="path3358"/>
    <path d="M147.984,57.217 C147.984,57.57 147.848,57.856 147.68,57.856 C147.512,57.856 147.376,57.57 147.376,57.217 C147.376,56.865 147.512,56.579 147.68,56.579 C147.848,56.579 147.984,56.865 147.984,57.217 z" fill="#5E0400" id="path3360"/>
    <path d="M147.572,57.32 C147.572,57.673 147.436,57.959 147.268,57.959 C147.1,57.959 146.963,57.673 146.963,57.32 C146.963,56.968 147.1,56.682 147.268,56.682 C147.436,56.682 147.572,56.968 147.572,57.32 z" fill="#5E0400" id="path3362"/>
    <path d="M139.837,66.654 C139.837,67.007 139.701,67.293 139.533,67.293 C139.365,67.293 139.228,67.007 139.228,66.654 C139.228,66.301 139.365,66.016 139.533,66.016 C139.701,66.016 139.837,66.301 139.837,66.654 z" fill="#5E0400" id="path3364"/>
    <path d="M140.456,66.654 C140.456,67.007 140.319,67.293 140.151,67.293 C139.983,67.293 139.847,67.007 139.847,66.654 C139.847,66.301 139.983,66.016 140.151,66.016 C140.319,66.016 140.456,66.301 140.456,66.654 z" fill="#5E0400" id="path3366"/>
    <path d="M141.074,66.474 C141.074,66.826 140.938,67.112 140.77,67.112 C140.602,67.112 140.466,66.826 140.466,66.474 C140.466,66.121 140.602,65.835 140.77,65.835 C140.938,65.835 141.074,66.121 141.074,66.474 z" fill="#880201" id="path3368"/>
    <path d="M139.373,67.17 C139.373,67.523 139.236,67.808 139.068,67.808 C138.9,67.808 138.764,67.523 138.764,67.17 C138.764,66.817 138.9,66.531 139.068,66.531 C139.236,66.531 139.373,66.817 139.373,67.17 z" fill="#880201" id="path3372"/>
    <path d="M139.682,67.66 C139.682,68.012 139.546,68.298 139.378,68.298 C139.21,68.298 139.074,68.012 139.074,67.66 C139.074,67.307 139.21,67.021 139.378,67.021 C139.546,67.021 139.682,67.307 139.682,67.66 z" fill="#880201" id="path3374"/>
    <path d="M140.146,67.299 C140.146,67.651 140.01,67.937 139.842,67.937 C139.674,67.937 139.538,67.651 139.538,67.299 C139.538,66.946 139.674,66.66 139.842,66.66 C140.01,66.66 140.146,66.946 140.146,67.299 z" fill="#880201" id="path3376"/>
    <path d="M142.003,65.7 C142.003,66.053 141.866,66.339 141.698,66.339 C141.53,66.339 141.394,66.053 141.394,65.7 C141.394,65.347 141.53,65.062 141.698,65.062 C141.866,65.062 142.003,65.347 142.003,65.7 z" fill="#880201" id="path3378"/>
    <path d="M142.544,65.159 C142.544,65.511 142.408,65.797 142.24,65.797 C142.072,65.797 141.936,65.511 141.936,65.159 C141.936,64.806 142.072,64.52 142.24,64.52 C142.408,64.52 142.544,64.806 142.544,65.159 z" fill="#880201" id="path3380"/>
    <path d="M143.137,64.669 C143.137,65.022 143.001,65.307 142.833,65.307 C142.665,65.307 142.529,65.022 142.529,64.669 C142.529,64.316 142.665,64.03 142.833,64.03 C143.001,64.03 143.137,64.316 143.137,64.669 z" fill="#880201" id="path3382"/>
    <path d="M143.808,64.102 C143.808,64.454 143.671,64.74 143.503,64.74 C143.335,64.74 143.199,64.454 143.199,64.102 C143.199,63.749 143.335,63.463 143.503,63.463 C143.671,63.463 143.808,63.749 143.808,64.102 z" fill="#880201" id="path3384"/>
    <path d="M144.297,63.457 C144.297,63.81 144.161,64.096 143.993,64.096 C143.825,64.096 143.689,63.81 143.689,63.457 C143.689,63.104 143.825,62.818 143.993,62.818 C144.161,62.818 144.297,63.104 144.297,63.457 z" fill="#880201" id="path3386"/>
    <path d="M144.762,62.993 C144.762,63.346 144.625,63.632 144.457,63.632 C144.289,63.632 144.153,63.346 144.153,62.993 C144.153,62.64 144.289,62.354 144.457,62.354 C144.625,62.354 144.762,62.64 144.762,62.993 z" fill="#880201" id="path3388"/>
    <path d="M145.355,62.555 C145.355,62.907 145.218,63.193 145.05,63.193 C144.882,63.193 144.746,62.907 144.746,62.555 C144.746,62.202 144.882,61.916 145.05,61.916 C145.218,61.916 145.355,62.202 145.355,62.555 z" fill="#880201" id="path3390"/>
    <path d="M145.948,61.858 C145.948,62.211 145.811,62.497 145.643,62.497 C145.475,62.497 145.339,62.211 145.339,61.858 C145.339,61.506 145.475,61.22 145.643,61.22 C145.811,61.22 145.948,61.506 145.948,61.858 z" fill="#880201" id="path3392"/>
    <path d="M148.036,58.017 C148.036,58.369 147.9,58.655 147.732,58.655 C147.564,58.655 147.428,58.369 147.428,58.017 C147.428,57.664 147.564,57.378 147.732,57.378 C147.9,57.378 148.036,57.664 148.036,58.017 z" fill="#880201" id="path3394"/>
    <path d="M147.572,58.764 C147.572,59.117 147.436,59.403 147.268,59.403 C147.1,59.403 146.963,59.117 146.963,58.764 C146.963,58.412 147.1,58.126 147.268,58.126 C147.436,58.126 147.572,58.412 147.572,58.764 z" fill="#880201" id="path3396"/>
    <path d="M147.056,59.615 C147.056,59.968 146.92,60.254 146.752,60.254 C146.584,60.254 146.448,59.968 146.448,59.615 C146.448,59.262 146.584,58.977 146.752,58.977 C146.92,58.977 147.056,59.262 147.056,59.615 z" fill="#880201" id="path3398"/>
    <path d="M146.644,60.079 C146.644,60.432 146.508,60.718 146.339,60.718 C146.171,60.718 146.035,60.432 146.035,60.079 C146.035,59.727 146.171,59.441 146.339,59.441 C146.508,59.441 146.644,59.727 146.644,60.079 z" fill="#880201" id="path3400"/>
    <path d="M148.5,56.702 C148.5,57.054 148.364,57.34 148.196,57.34 C148.028,57.34 147.892,57.054 147.892,56.702 C147.892,56.349 148.028,56.063 148.196,56.063 C148.364,56.063 148.5,56.349 148.5,56.702 z" fill="#C52E5B" id="path3402"/>
    <path d="M148.964,56.573 C148.964,56.926 148.828,57.211 148.66,57.211 C148.492,57.211 148.356,56.926 148.356,56.573 C148.356,56.22 148.492,55.934 148.66,55.934 C148.828,55.934 148.964,56.22 148.964,56.573 z" fill="#C52E5B" id="path3404"/>
    <path d="M149.351,55.773 C149.351,56.126 149.215,56.412 149.047,56.412 C148.879,56.412 148.743,56.126 148.743,55.773 C148.743,55.421 148.879,55.135 149.047,55.135 C149.215,55.135 149.351,55.421 149.351,55.773 z" fill="#C52E5B" id="path3406"/>
    <path d="M149.377,56.392 C149.377,56.745 149.241,57.031 149.073,57.031 C148.905,57.031 148.768,56.745 148.768,56.392 C148.768,56.039 148.905,55.754 149.073,55.754 C149.241,55.754 149.377,56.039 149.377,56.392 z" fill="#C52E5B" id="path3408"/>
    <path d="M148.449,57.32 C148.449,57.673 148.312,57.959 148.144,57.959 C147.976,57.959 147.84,57.673 147.84,57.32 C147.84,56.968 147.976,56.682 148.144,56.682 C148.312,56.682 148.449,56.968 148.449,57.32 z" fill="#C52E5B" id="path3410"/>
    <path d="M139.089,68.433 C139.089,68.786 138.953,69.072 138.785,69.072 C138.617,69.072 138.481,68.786 138.481,68.433 C138.481,68.08 138.617,67.794 138.785,67.794 C138.953,67.794 139.089,68.08 139.089,68.433 z" fill="#8F0618" id="path3412"/>
    <path d="M132.65,68.901 C132.399,69.597 131.935,70.069 131.614,69.953 C131.292,69.837 131.235,69.178 131.486,68.482 C131.736,67.785 132.2,67.314 132.522,67.43 C132.843,67.545 132.901,68.204 132.65,68.901 z" fill="#000000" id="path3458"/>
    <path d="M172.694,35.463 C172.694,37.86 170.751,39.803 168.355,39.803 C165.958,39.803 164.016,37.86 164.016,35.463 C164.016,33.067 165.958,31.124 168.355,31.124 C170.751,31.124 172.694,33.067 172.694,35.463 z" fill="url(#Gradient_5)" id="path3530"/>
    <path d="M172.111,35.938 C172.111,37.831 170.527,39.366 168.574,39.366 C166.62,39.366 165.036,37.831 165.037,35.938 C165.036,34.044 166.62,32.509 168.574,32.509 C170.527,32.509 172.111,34.044 172.111,35.938 z" fill="#9E4B17" id="path3528"/>
    <path d="M171.381,35.865 C171.382,37.395 170.141,38.636 168.61,38.636 C167.079,38.636 165.839,37.395 165.839,35.865 C165.839,34.334 167.079,33.093 168.61,33.093 C170.141,33.093 171.382,34.334 171.381,35.865 z" fill="#AF9035" id="path3474"/>
    <path d="M169.558,35.682 C169.558,36.266 169.085,36.74 168.501,36.74 C167.917,36.74 167.443,36.266 167.443,35.682 C167.443,35.098 167.917,34.625 168.501,34.625 C169.085,34.625 169.558,35.098 169.558,35.682 z" fill="#000000" id="path3470"/>
    <path d="M310.479,223.574 L306.972,228.937 L313.16,226.462 L317.079,227.287 L317.079,231.619 L319.967,230.381 L326.568,233.888 L324.711,238.013 L330.281,234.506 L335.231,236.569 L334.406,239.869 L337.294,238.425 L340.594,239.044 L336.675,241.726 L341.213,241.313 L341.213,245.439 L345.751,242.757 L357.921,249.152 L356.683,252.452 L366.791,253.896 L370.297,254.308 L367.616,260.084 L373.804,255.34 L376.898,257.609 L378.548,260.909 L369.06,262.765 L376.485,267.51 L383.911,269.779 L390.718,266.066 L396.493,276.585 L403.3,279.061 L411.139,279.267 L411.139,276.585 L413.614,278.854 L413.614,277.41 L418.977,278.236 L418.564,275.554 L421.865,277.41 L421.452,275.554 L424.752,276.379 L419.802,272.254 L415.883,262.972 L395.668,241.52 L414.439,260.29 L427.434,272.254 L437.129,277.41 L435.272,275.142 L441.873,275.967 L441.873,274.935 L444.761,277.617 L447.236,275.554 L440.016,266.066 L440.016,263.178 L441.048,266.066 L448.061,275.76 L458.787,281.536 L460.437,281.536 L458.787,276.792 L459.818,268.747 L458.993,276.173 L462.087,280.917 L466.006,284.63 L469.307,285.042 L479.414,285.455 L469.513,275.348 L471.369,262.147 L475.701,271.016 L485.396,282.361 L489.727,285.868 C504.592,286.863 499.148,276.037 487.665,272.873 C485.018,272.593 481.064,273.491 481.064,273.491 L473.02,262.353 L471.782,259.878 L462.5,248.533 L456.105,242.551 L460.231,242.551 L453.836,237.394 L472.194,245.851 C481.089,252.275 490.468,258.719 499.628,264.828 C502.993,266.77 511.592,269.779 511.592,269.779 L518.812,269.779 C512.05,265.092 512.602,263.357 476.114,246.676 L421.452,219.242 L418.977,219.655 L418.358,220.48 L412.582,217.798 L415.883,221.718 L406.188,214.498 L441.048,248.326 C441.048,248.326 442.368,253.575 441.048,255.133 C440.318,255.995 438.439,255.989 437.335,255.752 C435.808,255.424 433.003,252.864 433.003,252.864 L426.196,242.345 C426.196,242.345 425.125,246.028 424.134,247.295 C421.571,250.57 417.152,255.443 412.995,255.546 C410.988,255.596 407.426,251.833 407.426,251.833 L393.606,238.425 L403.713,252.452 L395.05,241.932 C395.05,241.932 398.451,252.64 398.762,257.402 C398.917,259.762 400.156,264.423 397.937,265.241 C396.336,265.831 393.812,261.321 393.812,261.321 L389.893,262.765 L388.243,258.846 L381.436,255.958 L374.629,252.039 L369.885,249.977 L362.046,247.708 L345.132,239.251 L334.2,234.919 L310.479,223.574 L310.479,223.574 z" fill="url(#Gradient_6)" id="path3630"/>
    <path d="M427.061,667.039 C431.913,667.811 424.222,668.721 420.609,668.643 C410.819,668.432 407.923,666.032 410.932,664.473 C416.316,661.684 433.949,660.982 446.415,662.227 C464.71,664.056 468.962,668.797 459.318,672.171 C446.463,676.669 416.225,677.659 394.804,675.058 C367.847,671.785 362.138,664.483 378.675,659.341 C398.704,653.113 441.943,651.832 472.221,655.812 C507.902,660.503 515.073,670.404 491.575,677.304 C464.446,685.27 408.101,686.841 368.998,681.473 C324.566,675.374 315.932,662.862 346.418,654.208 C380.618,644.501 450.112,642.638 498.027,649.397 C551.221,656.901 561.32,672.031 523.832,682.436" fill-opacity="0" stroke="#00008B" stroke-width="3" id="path3648"/>
    <path d="M320.423,664.765 C325.275,665.537 317.585,666.446 313.972,666.368 C304.181,666.158 301.285,663.758 304.295,662.198 C309.678,659.41 327.311,658.707 339.778,659.953 C358.072,661.781 362.325,666.523 352.68,669.897 C339.826,674.394 309.587,675.385 288.166,672.784 C261.21,669.511 255.5,662.208 272.037,657.066 C292.066,650.838 335.305,649.558 365.583,653.538 C401.265,658.228 408.435,668.129 384.938,675.029 C357.808,682.995 301.464,684.567 262.36,679.199 C217.928,673.1 209.295,660.587 239.78,651.934 C273.981,642.226 343.474,640.363 391.389,647.122 C444.583,654.626 454.682,669.756 417.195,680.161" fill-opacity="0" stroke="#00008B" stroke-width="3" id="path3706"/>
    <path d="M204.912,668.065 C209.764,668.837 202.073,669.747 198.461,669.669 C188.67,669.458 185.774,667.058 188.783,665.499 C194.167,662.71 211.8,662.008 224.266,663.253 C242.561,665.082 246.814,669.823 237.169,673.197 C224.315,677.694 194.076,678.685 172.655,676.084 C145.699,672.811 139.989,665.509 156.526,660.367 C176.555,654.139 219.794,652.858 250.072,656.838 C285.754,661.529 292.924,671.43 269.426,678.329 C242.297,686.296 185.953,687.867 146.849,682.499 C102.417,676.4 93.783,663.888 124.269,655.234 C158.47,645.526 227.963,643.664 275.878,650.423 C329.072,657.927 339.171,673.057 301.683,683.462" fill-opacity="0" stroke="#00008B" stroke-width="3" id="path3708"/>
    <path d="M112.503,668.065 C117.355,668.837 109.665,669.747 106.052,669.669 C96.261,669.458 93.365,667.058 96.374,665.499 C101.758,662.71 119.391,662.008 131.857,663.253 C150.152,665.082 154.405,669.823 144.76,673.197 C131.906,677.694 101.667,678.685 80.246,676.084 C53.29,672.811 47.58,665.509 64.117,660.367 C84.146,654.139 127.385,652.858 157.663,656.838 C193.345,661.529 200.515,671.43 177.017,678.329 C149.888,686.296 93.544,687.867 54.44,682.499 C10.008,676.4 1.374,663.888 31.86,655.234 C66.061,645.526 135.554,643.664 183.469,650.423 C236.663,657.927 246.762,673.057 209.274,683.462" fill-opacity="0" stroke="#00008B" stroke-width="3" id="path3710"/>
    <path d="M525.043,671.365 C529.895,672.137 522.205,673.047 518.592,672.969 C508.801,672.758 505.905,670.358 508.914,668.799 C514.298,666.01 531.931,665.308 544.397,666.554 C562.692,668.382 566.945,673.123 557.3,676.498 C544.446,680.995 514.207,681.985 492.786,679.384 C465.83,676.112 460.12,668.809 476.657,663.667 C496.686,657.439 539.925,656.158 570.203,660.138 C605.885,664.829 613.055,674.73 589.557,681.63 C562.428,689.596 506.084,691.167 466.98,685.8 C422.548,679.701 413.914,667.188 444.4,658.535 C478.601,648.827 548.094,646.964 596.009,653.723 C649.203,661.227 659.302,676.357 621.814,686.762" fill-opacity="0" stroke="#00008B" stroke-width="3" id="path3712"/>
    <path d="M666.957,671.365 C671.809,672.137 664.118,673.047 660.505,672.969 C650.715,672.758 647.819,670.358 650.828,668.799 C656.212,666.01 673.845,665.308 686.311,666.554 C704.606,668.382 708.858,673.123 699.214,676.498 C686.359,680.995 656.121,681.985 634.7,679.384 C607.743,676.112 602.034,668.809 618.571,663.667 C638.6,657.439 681.839,656.158 712.117,660.138 C747.798,664.829 754.969,674.73 731.471,681.63 C704.342,689.596 647.997,691.167 608.894,685.8 C564.462,679.701 555.828,667.188 586.314,658.535 C620.514,648.827 690.008,646.964 737.923,653.723 C791.117,661.227 801.216,676.357 763.728,686.762" fill-opacity="0" stroke="#00008B" stroke-width="3" id="path3714"/>
    <path d="M287.609,207.7 C287.609,207.7 341.338,216.177 357.985,224.312 C371.816,231.071 386.626,253.079 386.626,253.079 C386.626,253.079 365.241,232.957 350.62,226.743 C334.538,219.908 286.791,211.752 286.791,211.752 L291.701,210.941 L287.609,207.7 z" fill="#FFAAAA" id="path2558" opacity="0.668"/>
    <path d="M340.996,189.136 C340.996,189.136 378.739,196.072 390.433,202.727 C400.149,208.257 410.553,226.264 410.553,226.264 C410.553,226.264 395.531,209.801 385.26,204.716 C373.962,199.124 340.421,192.451 340.421,192.451 L343.87,191.788 L340.996,189.136 z" fill="#FFAAAA" id="path2560" opacity="0.668"/>
    <path d="M313.17,197.386 C313.17,197.386 365.788,206.249 382.091,214.754 C395.637,221.82 410.141,244.829 410.141,244.829 C410.141,244.829 389.198,223.792 374.879,217.295 C359.129,210.15 312.369,201.622 312.369,201.622 L317.177,200.775 L313.17,197.386 z" fill="#FFAAAA" id="path2562" opacity="0.668"/>
    <path d="M358.255,182.948 C358.255,182.948 391.558,190.192 401.876,197.143 C410.449,202.919 419.629,221.726 419.629,221.726 C419.629,221.726 406.374,204.531 397.311,199.221 C387.343,193.38 357.748,186.41 357.748,186.41 L360.791,185.718 L358.255,182.948 z" fill="#FFAAAA" id="path2556" opacity="0.668"/>
  </g>
</svg>
