<?xml version="1.0" encoding="UTF-8" standalone="no"?>
<!-- Created with Inkscape (http://www.inkscape.org/) -->

<svg
   xmlns:dc="http://purl.org/dc/elements/1.1/"
   xmlns:cc="http://creativecommons.org/ns#"
   xmlns:rdf="http://www.w3.org/1999/02/22-rdf-syntax-ns#"
   xmlns:svg="http://www.w3.org/2000/svg"
   xmlns="http://www.w3.org/2000/svg"
   xmlns:xlink="http://www.w3.org/1999/xlink"
   xmlns:sodipodi="http://sodipodi.sourceforge.net/DTD/sodipodi-0.dtd"
   xmlns:inkscape="http://www.inkscape.org/namespaces/inkscape"
   id="svg2"
   version="1.1"
   inkscape:version="0.91 r13725"
   width="645"
   height="683.75"
   viewBox="0 0 645 683.75"
   sodipodi:docname="Little_Egret_(Egretta_garzetta).svg">
  <metadata
     id="metadata8">
    <rdf:RDF>
      <cc:Work
         rdf:about="">
        <dc:format>image/svg+xml</dc:format>
        <dc:type
           rdf:resource="http://purl.org/dc/dcmitype/StillImage" />
        <dc:title />
      </cc:Work>
    </rdf:RDF>
  </metadata>
  <defs
     id="defs6">
    <linearGradient
       inkscape:collect="always"
       id="linearGradient4357">
      <stop
         style="stop-color:#f1eee9;stop-opacity:1;"
         offset="0"
         id="stop4359" />
      <stop
         style="stop-color:#ece6df;stop-opacity:1"
         offset="1"
         id="stop4361" />
    </linearGradient>
    <linearGradient
       inkscape:collect="always"
       id="linearGradient4334">
      <stop
         id="stop4338"
         offset="0"
         style="stop-color:#b9a7f1;stop-opacity:1" />
      <stop
         id="stop4336"
         offset="1"
         style="stop-color:#e9afc6;stop-opacity:1" />
    </linearGradient>
    <linearGradient
       inkscape:collect="always"
       id="linearGradient4326">
      <stop
         style="stop-color:#96917d;stop-opacity:1"
         offset="0"
         id="stop4328" />
      <stop
         style="stop-color:#b4b1a4;stop-opacity:0.27528089"
         offset="1"
         id="stop4330" />
    </linearGradient>
    <linearGradient
       inkscape:collect="always"
       id="linearGradient4318">
      <stop
         style="stop-color:#d3c8b8;stop-opacity:1;"
         offset="0"
         id="stop4320" />
      <stop
         style="stop-color:#ebe4dd;stop-opacity:1"
         offset="1"
         id="stop4322" />
    </linearGradient>
    <linearGradient
       inkscape:collect="always"
       id="linearGradient4310">
      <stop
         style="stop-color:#d9d4cc;stop-opacity:1"
         offset="0"
         id="stop4312" />
      <stop
         style="stop-color:#aa9d8c;stop-opacity:1"
         offset="1"
         id="stop4314" />
    </linearGradient>
    <inkscape:path-effect
       effect="skeletal"
       id="path-effect4305"
       is_visible="true"
       pattern="M 0,5 C 0,2.24 2.24,0 5,0 7.76,0 10,2.24 10,5 10,7.76 7.76,10 5,10 2.24,10 0,7.76 0,5 Z"
       copytype="single_stretched"
       prop_scale="1"
       scale_y_rel="false"
       spacing="0"
       normal_offset="0"
       tang_offset="0"
       prop_units="false"
       vertical_pattern="false"
       fuse_tolerance="0" />
    <inkscape:path-effect
       effect="skeletal"
       id="path-effect4299"
       is_visible="true"
       pattern="M 0,5 C 0,2.24 2.24,0 5,0 7.76,0 10,2.24 10,5 10,7.76 7.76,10 5,10 2.24,10 0,7.76 0,5 Z"
       copytype="single_stretched"
       prop_scale="1"
       scale_y_rel="false"
       spacing="0"
       normal_offset="0"
       tang_offset="0"
       prop_units="false"
       vertical_pattern="false"
       fuse_tolerance="0" />
    <inkscape:path-effect
       effect="skeletal"
       id="path-effect4279"
       is_visible="true"
       pattern="m 3.45738,2.6263867 -5.23215,3.02078 0,-6.04156003 z"
       copytype="single_stretched"
       prop_scale="1"
       scale_y_rel="false"
       spacing="0"
       normal_offset="0"
       tang_offset="0"
       prop_units="false"
       vertical_pattern="false"
       fuse_tolerance="0" />
    <inkscape:path-effect
       effect="skeletal"
       id="path-effect4270"
       is_visible="true"
       pattern="M 5.23215,3.02078 0,6.04156 0,0 Z"
       copytype="single_stretched"
       prop_scale="1"
       scale_y_rel="false"
       spacing="0"
       normal_offset="0"
       tang_offset="0"
       prop_units="false"
       vertical_pattern="false"
       fuse_tolerance="0" />
    <inkscape:path-effect
       effect="skeletal"
       id="path-effect4261"
       is_visible="true"
       pattern="m 5.82374,4.20396 -5.23215,3.02078 0,-6.04156 z"
       copytype="single_stretched"
       prop_scale="1"
       scale_y_rel="false"
       spacing="0"
       normal_offset="0"
       tang_offset="0"
       prop_units="false"
       vertical_pattern="false"
       fuse_tolerance="0" />
    <inkscape:path-effect
       effect="skeletal"
       id="path-effect4252"
       is_visible="true"
       pattern="m 5.82374,4.4011567 -5.23215,3.02078 0,-6.04156 z"
       copytype="single_stretched"
       prop_scale="1"
       scale_y_rel="false"
       spacing="0"
       normal_offset="0"
       tang_offset="0"
       prop_units="false"
       vertical_pattern="false"
       fuse_tolerance="0" />
    <inkscape:path-effect
       effect="skeletal"
       id="path-effect4243"
       is_visible="true"
       pattern="m 4.9557022,3.7118995 -5.23215001,3.02078 0,-6.04155998 z"
       copytype="single_stretched"
       prop_scale="1"
       scale_y_rel="false"
       spacing="0"
       normal_offset="0"
       tang_offset="0"
       prop_units="false"
       vertical_pattern="false"
       fuse_tolerance="0" />
    <inkscape:path-effect
       effect="skeletal"
       id="path-effect4234"
       is_visible="true"
       pattern="m 5.449625,3.8685394 -5.23214996,3.02078 0,-6.04155997 z"
       copytype="single_stretched"
       prop_scale="1"
       scale_y_rel="false"
       spacing="0"
       normal_offset="0"
       tang_offset="0"
       prop_units="false"
       vertical_pattern="false"
       fuse_tolerance="0" />
    <inkscape:path-effect
       effect="skeletal"
       id="path-effect4225"
       is_visible="true"
       pattern="M 5.23215,3.02078 0,6.04156 0,0 Z"
       copytype="single_stretched"
       prop_scale="1"
       scale_y_rel="false"
       spacing="0"
       normal_offset="0"
       tang_offset="0"
       prop_units="false"
       vertical_pattern="false"
       fuse_tolerance="0" />
    <inkscape:path-effect
       effect="skeletal"
       id="path-effect4216"
       is_visible="true"
       pattern="m 6.1591606,0.94742148 -5.23215003,3.02078002 0,-6.04156 z"
       copytype="single_stretched"
       prop_scale="1"
       scale_y_rel="false"
       spacing="0"
       normal_offset="0"
       tang_offset="0"
       prop_units="false"
       vertical_pattern="false"
       fuse_tolerance="0" />
    <inkscape:path-effect
       effect="skeletal"
       id="path-effect4189"
       is_visible="true"
       pattern="m -374.33906,-289.65598 -6.80972,3.93159 0,-7.86318 z"
       copytype="single_stretched"
       prop_scale="1"
       scale_y_rel="false"
       spacing="0"
       normal_offset="0"
       tang_offset="0"
       prop_units="false"
       vertical_pattern="false"
       fuse_tolerance="0" />
    <inkscape:path-effect
       effect="powerstroke"
       id="path-effect4185"
       is_visible="true"
       offset_points="0,0.5"
       sort_points="true"
       interpolator_type="CubicBezierJohan"
       interpolator_beta="0.2"
       start_linecap_type="zerowidth"
       linejoin_type="round"
       miter_limit="4"
       end_linecap_type="zerowidth"
       cusp_linecap_type="round" />
    <linearGradient
       inkscape:collect="always"
       xlink:href="#linearGradient4310"
       id="linearGradient4316"
       x1="516.41339"
       y1="57.802814"
       x2="550.58295"
       y2="158.24878"
       gradientUnits="userSpaceOnUse" />
    <radialGradient
       inkscape:collect="always"
       xlink:href="#linearGradient4318"
       id="radialGradient4324"
       cx="210.65535"
       cy="143.05536"
       fx="210.65535"
       fy="143.05536"
       r="103.81424"
       gradientTransform="matrix(1.4005198,-0.10301632,0.07815006,1.0624597,-93.486555,9.4332798)"
       gradientUnits="userSpaceOnUse" />
    <linearGradient
       inkscape:collect="always"
       xlink:href="#linearGradient4326"
       id="linearGradient4332"
       x1="456.65271"
       y1="334.23227"
       x2="469.34018"
       y2="282.5838"
       gradientUnits="userSpaceOnUse" />
    <radialGradient
       inkscape:collect="always"
       xlink:href="#linearGradient4334"
       id="radialGradient4340"
       cx="148.72287"
       cy="72.727837"
       fx="148.72287"
       fy="72.727837"
       r="20.126871"
       gradientTransform="matrix(0.64037588,-0.21834323,0.1186316,0.34793299,42.127066,83.149666)"
       gradientUnits="userSpaceOnUse" />
    <linearGradient
       inkscape:collect="always"
       xlink:href="#linearGradient4357"
       id="linearGradient4363"
       x1="595.79529"
       y1="333.21088"
       x2="276.47662"
       y2="199.73923"
       gradientUnits="userSpaceOnUse" />
  </defs>
  <sodipodi:namedview
     pagecolor="#ffffff"
     bordercolor="#666666"
     borderopacity="1"
     objecttolerance="10"
     gridtolerance="10"
     guidetolerance="10"
     inkscape:pageopacity="0"
     inkscape:pageshadow="2"
     inkscape:window-width="1366"
     inkscape:window-height="706"
     id="namedview4"
     showgrid="false"
     inkscape:zoom="0.42905725"
     inkscape:cx="218.40663"
     inkscape:cy="331.98108"
     inkscape:window-x="-8"
     inkscape:window-y="-8"
     inkscape:window-maximized="1"
     inkscape:current-layer="svg2" />
  <path
     style="fill:#e1d9cf;fill-rule:evenodd;stroke:none;stroke-width:1px;stroke-linecap:butt;stroke-linejoin:miter;stroke-opacity:1;fill-opacity:1"
     d="m 221.09995,61.498231 c 3.27208,-1.718826 7.44125,-0.305793 11.0373,-0.08079 18.10449,4.964042 31.27031,8.483779 45.85389,19.741116 10.7382,7.957523 21.16731,15.854215 31.72498,29.238683 1.79282,4.18312 4.94704,8.4604 3.80758,13.03325 -2.84976,0.85174 -3.82053,-5.67941 -5.96006,-7.50485 -8.15255,-12.61805 -21.91715,-19.57644 -33.65816,-28.302051 -11.21242,-8.011069 -24.01633,-13.266564 -36.8235,-18.125646 -5.23405,-2.214052 -10.8977,-3.754351 -15.54935,-7.1133 l -0.3711,-0.477545 -0.0616,-0.408867 0,0 z"
     id="path4303"
     inkscape:connector-curvature="0"
     sodipodi:nodetypes="ccccccccccccc" />
  <path
     style="fill:#e1d9cf;fill-opacity:1;fill-rule:evenodd;stroke:none;stroke-width:1px;stroke-linecap:butt;stroke-linejoin:miter;stroke-opacity:1"
     d="m 199.77034,46.831108 c 4.78525,0.349822 12.5535,6.47249 17.09107,8.125212 31.56118,14.784325 57.37961,18.154004 90.40466,28.482764 8.07576,2.611041 22.61653,3.416196 28.51787,9.933175 5.97224,9.811431 -4.88771,0.226444 -7.49005,-0.06686 C 316.6914,89.977435 304.63866,88.675102 292.90238,85.9044 267.37596,80.512272 241.17029,75.395385 218.14918,62.535799 211.56841,58.585374 204.74323,54.388385 200.09733,48.141196 l -0.3694,-0.819902 0.0424,-0.490186 z"
     id="path4297"
     inkscape:connector-curvature="0"
     sodipodi:nodetypes="ccccccccccc" />
  <path
     style="fill:url(#radialGradient4324);fill-opacity:1;fill-rule:evenodd;stroke:none;stroke-width:1px;stroke-linecap:butt;stroke-linejoin:miter;stroke-opacity:1"
     d="m 300.68186,186.94371 c -10.79649,-0.26371 -24.5323,13.0442 -37.69633,12.10551 -7.48893,-0.53401 -13.02188,-3.81544 -20.25101,-9.85998 -7.22913,-6.04454 -11.78081,-9.8163 -14.04064,-16.73964 -4.88312,-14.9602 -3.61901,-32.77374 3.15733,-47.10525 4.44524,-9.4014 8.55785,-19.6759 8.30555,-30.072182 -0.19664,-8.102469 -5.56944,-19.406767 -7.60231,-23.095517 -16.1238,-29.2576 -66.57193,-39.256669 -86.15714,-19.671444 -3.84415,3.844153 -7.81601,9.184746 -10.96791,14.128626 -3.15191,4.94388 -8.65358,8.493454 -9.99219,10.396605 -3.35038,4.763364 -3.86435,10.8064 -5.25754,15.839559 -1.39318,5.033158 1.81395,12.764953 4.34986,12.623043 3.65138,-0.20433 18.9746,-4.70255 26.74803,-5.909069 15.54685,-2.41303 34.72148,-8.575548 43.66301,-1.295128 10.4205,12.746057 -13.53192,44.419017 -4.37709,71.129527 9.41303,27.46385 8.47141,37.92554 47.05676,76.72397 13.7851,13.86123 43.62841,32.84454 56.31047,40.87547 12.94366,8.19659 12.63356,3.34345 23.61204,10.33528 22.19977,14.13829 3.12582,-110.40938 -16.86089,-110.40938 z"
     id="path4290"
     inkscape:connector-curvature="0"
     sodipodi:nodetypes="cazasassssssscssssc" />
  <path
     style="fill:url(#linearGradient4363);fill-opacity:1;fill-rule:evenodd;stroke:none;stroke-width:1px;stroke-linecap:butt;stroke-linejoin:miter;stroke-opacity:1"
     d="m 278.13559,195.72505 c 22.44185,-22.03041 58.88634,-17.16848 94.04803,-7.46652 21.34028,5.88829 58.58074,19.63695 86.22504,33.21981 37.85677,18.6007 77.73544,35.2425 108.16385,65.67091 4.88355,4.88355 11.10062,5.31123 20.205,13.71189 9.10439,8.40066 21.09609,24.77431 15.84961,32.64404 -18.56832,27.85248 -64.52723,-16.59566 -75.97223,-5.15066 -4.44632,4.44632 -45.36845,19.83319 -65.6709,20.60263 -75.14387,2.84789 -153.90548,-45.8007 -189.28672,-87.5612 -18.11855,-21.38534 -9.25789,-50.26246 6.43832,-65.6709 z"
     id="path4288"
     inkscape:connector-curvature="0"
     sodipodi:nodetypes="asassssssa" />
  <path
     style="fill:url(#radialGradient4340);fill-opacity:1;fill-rule:evenodd;stroke:none;stroke-width:1px;stroke-linecap:butt;stroke-linejoin:miter;stroke-opacity:1"
     d="m 125.38813,77.011908 -5.46716,6.481495 1.30349,5.213955 0.4345,17.162602 c 0,0 7.97944,-2.47382 10.78379,-5.34224 2.31416,-2.367029 1.91437,-6.607602 4.20633,-8.996136 5.98754,-6.239813 22.27379,-7.068215 23.0283,-11.948648 0.75451,-4.880433 0.78738,-7.722221 -0.87049,-6.873774 -1.65787,0.848447 -8.69593,3.989749 -10.26554,1.3689 -1.43194,-2.6158 11.49085,-2.907664 6.7114,-8.205817 -3.77659,-3.915763 -29.86462,11.139663 -29.86462,11.139663 z"
     id="path4154"
     inkscape:connector-curvature="0"
     sodipodi:nodetypes="ccccaazzccc" />
  <path
     style="fill:none;fill-rule:evenodd;stroke:#000000;stroke-width:12;stroke-linecap:butt;stroke-linejoin:miter;stroke-opacity:1;stroke-miterlimit:4;stroke-dasharray:none"
     d="M 407.36585,544.15841 457.69936,463.6248"
     id="path4140"
     inkscape:connector-curvature="0" />
  <path
     style="fill:#cec2ab;fill-opacity:1;fill-rule:evenodd;stroke:none;stroke-width:1px;stroke-linecap:butt;stroke-linejoin:miter;stroke-opacity:1"
     d="m 344.5118,317.4364 c 1.93757,-1.32823 13.646,6.77318 20.55451,9.97965 4.8551,2.25341 14.3021,0.85821 14.68107,6.50502 0.2013,2.99939 -9.62899,22.11735 -13.96329,33.36894 -1.96883,5.11098 -4.02408,10.2116 -5.46542,15.49563 -1.7454,6.39878 -3.82625,19.52631 -3.82625,19.52631 l -7.07694,-0.75696 -4.02147,-9.71435 c 0,0 1.05405,-10.82533 1.18424,-16.25719 0.21099,-8.80286 -0.0662,-17.62235 -0.65475,-26.40805 -0.37667,-5.62254 -1.61253,-11.17452 -1.83898,-16.80511 -0.20012,-4.97598 -2.43348,-12.9728 0.42728,-14.93389 z"
     id="path4164"
     inkscape:connector-curvature="0"
     sodipodi:nodetypes="sasaacccaaas" />
  <path
     style="fill:none;fill-rule:evenodd;stroke:#000000;stroke-width:12;stroke-linecap:round;stroke-linejoin:miter;stroke-opacity:1;stroke-miterlimit:4;stroke-dasharray:none"
     d="m 352.33455,387.78898 -4.02668,92.61365"
     id="path4142"
     inkscape:connector-curvature="0" />
  <path
     style="fill:none;fill-rule:evenodd;stroke:#000000;stroke-width:12;stroke-linecap:round;stroke-linejoin:miter;stroke-opacity:1;stroke-miterlimit:4;stroke-dasharray:none"
     d="m 312.06774,615.96754 34.8979,-130.196"
     id="path4144"
     inkscape:connector-curvature="0" />
  <path
     style="opacity:1;fill:#000000;fill-opacity:1;stroke:none;stroke-width:12;stroke-linecap:round;stroke-linejoin:round;stroke-miterlimit:4;stroke-dasharray:none;stroke-dashoffset:0;stroke-opacity:1"
     d="m 357.5588,479.73991 c -0.5406,3.30922 -3.60223,6.56972 -4.85233,9.6334 -1.76273,4.31999 -3.90661,3.12283 -6.1616,3.39672 -2.60106,0.31592 -6.15922,1.86275 -6.94491,-2.06467 -0.56796,-2.83908 -2.37212,-8.95273 -1.91723,-12.27482 0.82165,-6.00064 3.98881,-8.59663 5.07428,-11.54886 1.58016,-4.29765 4.18051,-2.87226 6.16153,-2.77902 3.25646,0.15327 5.20408,2.53022 6.09105,5.31475 1.89662,5.95416 3.09698,6.96941 2.54921,10.3225 z"
     id="path4146"
     inkscape:connector-curvature="0"
     sodipodi:nodetypes="sssssssss" />
  <path
     transform="matrix(0.99187881,0.1271866,-0.1271866,0.99187881,0,0)"
     style="opacity:1;fill:#000000;fill-opacity:1;stroke:none;stroke-width:12;stroke-linecap:round;stroke-linejoin:round;stroke-miterlimit:4;stroke-dasharray:none;stroke-dashoffset:0;stroke-opacity:1"
     d="m 520.1927,404.43706 c 0,3.82948 -1.72108,8.76878 -3.54622,11.27836 -1.82514,2.50957 -5.29596,5.76405 -10.33786,8.26246 -2.4955,1.23659 -6.48258,-3.1976 -5.92437,-9.0028 0.29701,-3.08884 -1.01899,-4.94709 -0.15955,-11.08476 0.73974,-5.28289 1.69373,-5.99578 1.42262,-10.16189 -0.30382,-4.6689 5.86509,-3.70424 8.65017,-3.70424 2.78508,0 4.40095,1.66832 6.2261,4.1779 1.82514,2.50957 3.66911,6.40549 3.66911,10.23497 z"
     id="path4148"
     inkscape:connector-curvature="0"
     sodipodi:nodetypes="sssssssss" />
  <path
     style="fill:#1a1a1a;fill-rule:evenodd;stroke:none;stroke-width:1px;stroke-linecap:butt;stroke-linejoin:miter;stroke-opacity:1"
     d="M 40.689044,153.15056 125.30274,77.064411 c 0,0 -4.5148,9.818588 -2.99204,10.773955 1.13192,0.710159 17.5971,-5.648452 17.5971,-5.648452 l -1.73799,5.33978 z"
     id="path4150"
     inkscape:connector-curvature="0"
     sodipodi:nodetypes="ccsccc" />
  <path
     style="fill:#1a1a1a;fill-rule:evenodd;stroke:none;stroke-width:1px;stroke-linecap:butt;stroke-linejoin:miter;stroke-opacity:1"
     d="m 138.62888,85.990583 c 0,0 -0.22629,1.703075 -1.98041,5.133386 -0.87706,1.715156 0.0395,6.037671 -2.07257,8.519279 -1.05603,1.240802 -3.06179,2.218492 -4.62372,3.283122 -2.39135,1.62997 -4.80138,3.23534 -7.26647,4.7515 -26.478167,16.28553 -80.75682,46.63842 -80.75682,46.63842 z"
     id="path4152"
     inkscape:connector-curvature="0"
     sodipodi:nodetypes="cssaacc" />
  <ellipse
     style="opacity:1;fill:#1a1a1a;fill-opacity:1;stroke:none;stroke-width:12;stroke-linecap:round;stroke-linejoin:round;stroke-miterlimit:4;stroke-dasharray:none;stroke-dashoffset:0;stroke-opacity:1"
     id="path4160"
     cx="153.76585"
     cy="71.5243"
     rx="6.4266171"
     ry="5.6754541" />
  <ellipse
     ry="4.0618448"
     rx="5.5641708"
     cy="71.746864"
     cx="153.07034"
     id="ellipse4158"
     style="opacity:1;fill:#999472;fill-opacity:1;stroke:none;stroke-width:12;stroke-linecap:round;stroke-linejoin:round;stroke-miterlimit:4;stroke-dasharray:none;stroke-dashoffset:0;stroke-opacity:1" />
  <ellipse
     style="opacity:1;fill:#000000;fill-opacity:1;stroke:none;stroke-width:12;stroke-linecap:round;stroke-linejoin:round;stroke-miterlimit:4;stroke-dasharray:none;stroke-dashoffset:0;stroke-opacity:1"
     id="path4156"
     cx="151.92967"
     cy="71.774689"
     rx="2.3091309"
     ry="1.8639972" />
  <path
     style="fill:#000000;fill-rule:evenodd;stroke:none;stroke-width:1px;stroke-linecap:butt;stroke-linejoin:miter;stroke-opacity:1"
     d="m 403.85877,639.18355 c -1.00693,-4.97393 -2.55186,-9.87522 -5.30863,-13.33171 l 5.49014,-2.52168 c 1.39535,5.58341 0.82542,10.87946 -0.18151,15.85339 z"
     id="path4268"
     inkscape:path-effect="#path-effect4270"
     inkscape:original-d="m 401.29521,624.591 c 1.94784,4.24079 2.56356,9.89432 2.56356,14.59255"
     inkscape:connector-curvature="0" />
  <path
     style="fill:#f9c86c;fill-opacity:0.99607843;fill-rule:evenodd;stroke:#f7c769;stroke-width:7;stroke-linecap:round;stroke-linejoin:miter;stroke-miterlimit:4;stroke-dasharray:none;stroke-opacity:1"
     d="m 401.17566,563.86224 c -0.17212,20.37202 -5.56833,42.89736 0.3321,60.77413"
     id="path4166"
     inkscape:connector-curvature="0"
     sodipodi:nodetypes="cc" />
  <path
     style="fill:#000000;fill-rule:evenodd;stroke:none;stroke-width:1px;stroke-linecap:butt;stroke-linejoin:miter;stroke-opacity:1"
     d="m 418.84572,609.60406 c 1.77695,-1.75932 1.69004,-4.30661 1.53881,-6.61754 -0.27719,-2.57645 -1.05035,-5.04165 -1.95927,-7.50511 l 5.96802,-0.93982 c -0.0645,2.89863 -0.35806,5.8915 -1.15282,8.71849 -0.61928,2.57551 -2.08731,5.38038 -4.39474,6.34398 z"
     id="path4277"
     inkscape:path-effect="#path-effect4279"
     inkscape:original-d="m 421.40927,595.0115 c 0.73684,4.67905 1.19294,12.08823 -2.56355,14.59256"
     inkscape:connector-curvature="0" />
  <path
     style="fill:none;fill-rule:evenodd;stroke:#f7c769;stroke-width:7;stroke-linecap:round;stroke-linejoin:miter;stroke-miterlimit:4;stroke-dasharray:none;stroke-opacity:1"
     d="m 398.18677,570.83632 c 10.65255,6.8944 18.09316,11.19897 23.24694,24.24323"
     id="path4168"
     inkscape:connector-curvature="0"
     sodipodi:nodetypes="cc" />
  <path
     style="fill:#000000;fill-rule:evenodd;stroke:none;stroke-width:1px;stroke-linecap:butt;stroke-linejoin:miter;stroke-opacity:1"
     d="m 359.88391,644.31067 c -2.04367,-4.62826 -2.19583,-10.29679 -1.49611,-15.56434 l 5.75298,1.84492 c -2.32845,4.17511 -4.33325,8.66062 -4.25687,13.71942 z"
     id="path4250"
     inkscape:path-effect="#path-effect4252"
     inkscape:original-d="m 361.26429,629.66879 c -1.62794,5.07636 -2.3637,10.14882 -1.38038,14.64188"
     inkscape:connector-curvature="0" />
  <path
     style="fill:none;fill-rule:evenodd;stroke:#f7c769;stroke-width:7;stroke-linecap:round;stroke-linejoin:miter;stroke-opacity:1;stroke-miterlimit:4;stroke-dasharray:none"
     d="m 361.98797,628.28946 c 33.87411,-64.75932 33.87411,-64.75932 33.87411,-64.75932"
     id="path4170"
     inkscape:connector-curvature="0" />
  <path
     style="fill:#000000;fill-rule:evenodd;stroke:none;stroke-width:1px;stroke-linecap:butt;stroke-linejoin:miter;stroke-opacity:1"
     d="m 356.92596,638.00037 c -1.35349,-3.30125 -2.25221,-6.89299 -2.39543,-10.66311 0,0 0,0 0,0 -0.0872,-1.92269 0.092,-3.99388 0.91446,-6.10151 0,0 0,0 0,0 0.80553,-2.00348 2.38597,-3.79848 4.71065,-4.84905 l 1.8229,5.75998 c -0.76064,-0.0741 -1.72159,0.47781 -2.46968,1.31314 0,0 0,0 0,0 -0.89578,1.03194 -1.47719,2.54334 -1.91896,4.18203 10e-6,0 0,0 0,0 -0.84282,3.25704 -1.0232,6.80871 -0.66394,10.35852 z"
     id="path4259"
     inkscape:path-effect="#path-effect4261"
     inkscape:original-d="m 361.06709,619.26669 c -6.54933,2.07271 -5.42195,13.61037 -4.14113,18.73368"
     inkscape:connector-curvature="0" />
  <path
     style="fill:none;fill-rule:evenodd;stroke:#f7c769;stroke-width:7;stroke-linecap:round;stroke-linejoin:miter;stroke-miterlimit:4;stroke-dasharray:none;stroke-opacity:1"
     d="m 360.99168,618.32649 31.88151,-54.79634"
     id="path4172"
     inkscape:connector-curvature="0"
     sodipodi:nodetypes="cc" />
  <path
     transform="matrix(0.90117008,0.43346566,-0.35751243,0.93390838,0,0)"
     style="opacity:1;fill:#f9c86c;fill-opacity:0.99607843;stroke:none;stroke-width:7;stroke-linecap:round;stroke-linejoin:round;stroke-miterlimit:4;stroke-dasharray:none;stroke-dashoffset:0;stroke-opacity:1"
     d="m 586.17353,325.6069 c 0,4.19949 -2.60698,9.90315 -3.45667,13.28965 -0.77456,3.08706 -3.40302,1.91803 -6.0199,1.91803 -2.61688,0 -9.86673,-0.47288 -9.82893,-3.44642 0.0428,-3.36403 0.35236,-7.56177 0.35236,-11.76126 0,-4.19948 1.0607,-8.0014 2.77562,-10.75345 1.71493,-2.75205 4.08407,-4.45422 6.70095,-4.45422 2.61688,0 4.98602,1.70218 6.70095,4.45422 1.71492,2.75205 2.77562,6.55397 2.77562,10.75345 z"
     id="path4174"
     inkscape:connector-curvature="0"
     sodipodi:nodetypes="sssssssss" />
  <path
     style="fill:#000000;fill-rule:evenodd;stroke:none;stroke-width:1px;stroke-linecap:butt;stroke-linejoin:miter;stroke-opacity:1"
     d="m 221.07773,653.04629 c 0.13642,-0.59298 -0.0114,-1.15186 -0.0587,-1.78671 -0.0789,-0.62327 -0.0779,-1.36653 0.43786,-2.17241 0,0 0,-10e-6 0,-10e-6 1.89802,-2.82868 5.53782,-4.49078 8.56439,-5.35444 l 0.64932,6.00656 c -2.89426,-0.22362 -5.6871,-0.82092 -8.00013,0.56146 0,0 0,0 0,0 -0.31886,0.0287 -0.55908,0.53146 -0.80059,1.07719 0,0 0,0 0,0 -0.21017,0.53665 -0.39965,1.20344 -0.79219,1.66836 z"
     id="path4232"
     inkscape:path-effect="#path-effect4234"
     inkscape:original-d="m 230.34598,646.736 c -2.72516,0.29459 -6.52191,1.1976 -8.28226,2.95795 -0.8102,0.8102 -0.5124,2.40517 -0.98599,3.35234"
     inkscape:connector-curvature="0" />
  <path
     style="fill:none;fill-rule:evenodd;stroke:#f7c769;stroke-width:7;stroke-linecap:round;stroke-linejoin:miter;stroke-miterlimit:4;stroke-dasharray:none;stroke-opacity:1"
     d="m 231.49351,646.26465 c 16.65457,0.83699 62.88748,0.81883 73.82612,-18.5996"
     id="path4178"
     inkscape:connector-curvature="0"
     sodipodi:nodetypes="cc" />
  <path
     style="fill:#000000;fill-rule:evenodd;stroke:none;stroke-width:1px;stroke-linecap:butt;stroke-linejoin:miter;stroke-opacity:1"
     d="m 229.14252,655.35368 c 0.9739,-4.19934 5.77186,-7.83055 11.51736,-7.2315 l -1.73748,5.78634 c -2.28345,-1.81181 -7.00474,-1.85356 -9.77988,1.44516 z"
     id="path4223"
     inkscape:path-effect="#path-effect4225"
     inkscape:original-d="m 239.79114,651.01535 c -4.88504,-1.46684 -8.83703,0.71516 -10.64862,4.33833"
     inkscape:connector-curvature="0" />
  <path
     style="fill:#000000;fill-rule:evenodd;stroke:none;stroke-width:1px;stroke-linecap:butt;stroke-linejoin:miter;stroke-opacity:1"
     d="m 320.38562,661.16819 c -0.10954,-0.20863 -0.33399,-0.27166 -0.54371,-0.39489 -0.36456,-0.18444 -0.74266,-0.33239 -1.13084,-0.49144 -1.08841,-0.44208 -2.19283,-0.87804 -3.30678,-1.4457 -1.19536,-0.59482 -2.41926,-1.36481 -3.53468,-2.56296 -1.09239,-1.1661 -1.83613,-2.86968 -1.72272,-5.05672 l 5.8849,1.36692 c -0.39594,0.006 -0.49907,0.63515 -0.41329,1.38736 0.17733,0.90675 0.75632,1.88261 1.45426,2.87438 0,0 0,0 0,0 0.64139,0.90331 1.41283,1.78636 2.18112,2.68504 0,0 0,10e-6 0,10e-6 0.27107,0.31701 0.55529,0.64335 0.80629,0.99026 0.13693,0.176 0.32393,0.41211 0.32545,0.64774 z"
     id="path4214"
     inkscape:path-effect="#path-effect4216"
     inkscape:original-d="m 313.08934,651.89994 c -1.06035,4.56501 7.02608,8.18746 7.29628,9.26825"
     inkscape:connector-curvature="0" />
  <path
     style="fill:none;fill-rule:evenodd;stroke:#f7c769;stroke-width:7;stroke-linecap:round;stroke-linejoin:miter;stroke-miterlimit:4;stroke-dasharray:none;stroke-opacity:1"
     d="m 314.47635,632.24341 c -1.78644,4.11343 -4.44846,16.93448 -2.00303,20.60264"
     id="path4180"
     inkscape:connector-curvature="0"
     sodipodi:nodetypes="cc" />
  <path
     style="fill:#000000;fill-rule:evenodd;stroke:none;stroke-width:1px;stroke-linecap:butt;stroke-linejoin:miter;stroke-opacity:1"
     d="m 356.52254,650.72408 c -1.2446,-1.33447 -2.33967,-2.90675 -3.61171,-3.86802 -1.36432,-1.05168 -3.06832,-1.37759 -4.583,-1.2867 l 1.72044,-5.79142 c 2.35273,1.23977 4.21504,3.2087 5.16886,5.459 0.7543,1.92506 0.88947,3.71039 1.30541,5.48714 z"
     id="path4241"
     inkscape:path-effect="#path-effect4243"
     inkscape:original-d="m 349.18805,642.67365 c 4.93395,1.46571 5.6237,4.84507 7.33449,8.05043"
     inkscape:connector-curvature="0" />
  <path
     style="fill:none;fill-rule:evenodd;stroke:#f7c769;stroke-width:7;stroke-linecap:round;stroke-linejoin:miter;stroke-miterlimit:4;stroke-dasharray:none;stroke-opacity:1"
     d="m 315.3736,636.36588 c 9.08186,-5.49586 21.53954,0.4393 33.92383,5.92703"
     id="path4182"
     inkscape:connector-curvature="0"
     sodipodi:nodetypes="cc" />
  <path
     transform="matrix(0.99272504,0.12040345,-0.08133505,0.99668682,0,0)"
     style="opacity:1;fill:#f9c86c;fill-opacity:0.99607843;stroke:none;stroke-width:7.00032902;stroke-linecap:round;stroke-linejoin:round;stroke-miterlimit:4;stroke-dasharray:none;stroke-dashoffset:0;stroke-opacity:1"
     d="m 369.3255,584.41943 c 0,3.91053 -0.9324,7.45085 -2.43988,10.01354 -1.50748,2.56268 -3.59004,4.14774 -5.89038,4.14774 -2.30034,0 -4.3829,-1.58506 -5.89038,-4.14774 -1.50748,-2.56269 -2.43988,-6.10301 -2.43988,-10.01354 0,-3.91053 1.42391,-7.23395 2.43988,-10.01353 1.17548,-3.216 3.59004,-4.14774 5.89038,-4.14774 2.30034,0 6.46668,1.04771 6.85549,4.03115 0.49451,3.79452 1.47477,6.21959 1.47477,10.13012 z"
     id="path4184"
     inkscape:connector-curvature="0"
     sodipodi:nodetypes="sssssssss" />
  <path
     style="opacity:1;fill:#e9afc6;fill-opacity:0.99607843;stroke:none;stroke-width:7;stroke-linecap:round;stroke-linejoin:round;stroke-miterlimit:4;stroke-dasharray:none;stroke-dashoffset:0;stroke-opacity:1"
     inkscape:transform-center-x="-0.87202508"
     d="m -161.8618,315.89444 -5.23215,3.02078 0,-6.04156 z"
     id="path4171"
     inkscape:connector-curvature="0" />
  <path
     style="fill:#000000;fill-rule:evenodd;stroke:none;stroke-width:1px;stroke-linecap:butt;stroke-linejoin:miter;stroke-opacity:1"
     d="m -134.91852,323.21647 c 1.51989,0.12897 3.46667,0.49664 5.10714,0.59999 1.71683,0.10817 3.29624,-0.0431 4.42667,-0.89809 -1.19482,0.69762 -2.74264,0.66706 -4.37094,0.40121 -1.70975,-0.27915 -3.32521,-0.77144 -5.02613,-1.09371 z"
     id="path4183"
     inkscape:path-effect="#path-effect4185"
     inkscape:original-d="m -134.85015,322.72117 c 3.21728,0.44412 7.13861,1.74842 9.46544,0.1972"
     inkscape:connector-curvature="0" />
  <path
     style="fill:#000000;fill-rule:evenodd;stroke:none;stroke-width:1px;stroke-linecap:butt;stroke-linejoin:miter;stroke-opacity:1"
     d="m -121.83517,315.2277 c -0.006,0.54234 -0.21534,1.12825 -0.67245,1.58524 -0.4838,0.47038 -1.13593,0.77742 -1.77437,0.94235 -1.67929,0.46195 -3.52497,0.38391 -5.16366,0.14695 0,0 0,0 0,0 -1.84053,-0.23595 -3.70555,-0.69527 -5.5427,-1.42203 -1.2074,-0.24837 -2.84369,-1.10514 -4.45913,-3.44505 l 7.2227,-3.1084 c -0.67981,-0.16589 -0.14809,0.3498 0.62241,1.40131 0.96019,1.11165 2.12387,2.13457 3.43253,3.0333 0,0 0,0 0,0 1.23468,0.79835 2.41546,1.56522 3.78366,1.82482 0,0 0,0 0,0 0.49602,0.0896 0.99654,0.14732 1.46333,-0.006 0.42494,-0.12178 0.83737,-0.47129 1.08768,-0.95244 z"
     id="path4187"
     inkscape:path-effect="#path-effect4189"
     inkscape:original-d="m -135.83613,311.48096 c 1.21833,2.83092 12.85704,8.32243 14.00096,3.74674"
     inkscape:connector-curvature="0" />
  <path
     style="fill:none;fill-rule:evenodd;stroke:#f7c769;stroke-width:7;stroke-linecap:round;stroke-linejoin:miter;stroke-miterlimit:4;stroke-dasharray:none;stroke-opacity:1"
     d="m 241.22254,651.12916 c 21.87108,-0.4101 55.80192,-0.25455 68.24138,-17.73147"
     id="path4176"
     inkscape:connector-curvature="0"
     sodipodi:nodetypes="cc" />
  <path
     style="fill:url(#linearGradient4332);fill-opacity:1;fill-rule:evenodd;stroke:none;stroke-width:1px;stroke-linecap:butt;stroke-linejoin:miter;stroke-opacity:1"
     d="m 599.22458,337.51881 c -14.22251,13.9335 -58.54411,-6.90663 -70.50648,-5.64713 -9.78761,1.03053 -32.23787,12.25991 -38.26187,15.27191 -4.77948,2.38974 -42.26885,3.75392 -63.16491,1.14398 -11.48185,-1.43409 -22.40416,-5.81921 -33.48664,-9.1461 -9.39527,-2.8204 -19.00722,-5.16631 -27.9654,-9.1634 -10.28587,-4.58949 -23.78782,-11.37949 -29.27773,-16.8694 -2.44434,-2.44434 -13.65206,-35.81844 -9.28857,-40.18193 1.44216,-1.44216 36.84943,24.29952 39.87336,25.81149 31.76408,15.88204 63.74613,26.58272 97.52036,27.70026 15.4152,0.51006 34.831,-6.20044 45.24855,-9.67295 23.12823,-7.70941 75.30354,6.88392 89.30933,20.75327 z"
     id="path4294"
     inkscape:connector-curvature="0"
     sodipodi:nodetypes="cssaaasssasc" />
  <path
     style="fill:#ccc0b0;fill-opacity:1;fill-rule:evenodd;stroke:none;stroke-width:1px;stroke-linecap:butt;stroke-linejoin:miter;stroke-opacity:1"
     d="m 365.06387,297.64456 c -4.4544,7.35967 12.78317,24.17073 19.92608,35.81697 9.125,14.87795 19.98615,28.63653 29.24526,43.4314 3.61426,5.77513 10.25767,17.67811 10.25767,17.67811 l 4.14672,-1.09124 c 0,0 -0.40846,-12.27295 -1.30949,-18.33285 -2.21659,-14.90771 -10.03942,-44.08615 -10.03942,-44.08615 0,0 0.55373,-9.08102 -1.96424,-12.44016 -4.29415,-5.72869 -12.83911,-6.3565 -19.42409,-9.16642 -10.12425,-4.32019 -27.97144,-16.54665 -30.83849,-11.80966 z"
     id="path4162"
     inkscape:connector-curvature="0"
     sodipodi:nodetypes="saaccacaas" />
  <path
     style="fill:none;fill-rule:evenodd;stroke:#000000;stroke-width:12;stroke-linecap:round;stroke-linejoin:miter;stroke-miterlimit:4;stroke-dasharray:none;stroke-opacity:1"
     d="m 421.7843,377.76424 35.24394,83.84722"
     id="path4138"
     inkscape:connector-curvature="0"
     sodipodi:nodetypes="cc" />
  <path
     transform="matrix(0.93592412,0.3522017,-0.46886381,0.88327047,0,0)"
     style="opacity:1;fill:url(#linearGradient4316);fill-opacity:1;stroke:none;stroke-width:7;stroke-linecap:round;stroke-linejoin:round;stroke-miterlimit:4;stroke-dasharray:none;stroke-dashoffset:0;stroke-opacity:1"
     d="m 658.65921,101.14725 c 0,14.92419 -3.43896,11.85567 -28.93624,21.63594 -25.49727,9.78027 -73.05287,32.40932 -111.9604,32.40932 -77.81506,0 -145.73462,-24.15126 -144.9456,-53.88858 0.78471,-29.574994 23.43568,-47.010788 56.62941,-53.168495 27.17235,-5.040691 56.854,-3.717726 96.05073,-0.285718 80.08266,7.011922 133.16211,23.449157 133.1621,53.297533 z"
     id="path4286"
     inkscape:connector-curvature="0"
     sodipodi:nodetypes="sssssss" />
  <ellipse
     style="opacity:1;fill:#ffffff;fill-opacity:1;stroke:none;stroke-width:7;stroke-linecap:round;stroke-linejoin:round;stroke-miterlimit:4;stroke-dasharray:none;stroke-dashoffset:0;stroke-opacity:1"
     id="path4344"
     cx="151.02629"
     cy="71.580055"
     rx="0.77694601"
     ry="0.72838682" />
</svg>
