<svg id="Capa_1" enable-background="new 0 0 512 512" height="512" viewBox="0 0 512 512" width="512" xmlns="http://www.w3.org/2000/svg"><g><path d="m346.806 66.121c-28.506-25.913-65.494-38.276-104.019-34.468-22.822 2.179-43.713 10.891-61.787 23.65-36.006 25.417-60 68.126-60 115.876v24.844c0 41.829-24.769 77.736-60.255 94.605l.3 46.952 119.955 12.501 105 10.942 30-60c-52.441 0-76.318-46.611-76.318-89.912-.015-43.389 23.877-90.088 76.318-90.088 40.073 0 56.442 43.76 36.489 71.353-8.467 11.675-22.104 18.647-36.489 18.647-8.276 0-15-6.724-15-15s6.724-15 15-15c8.291 0 15-6.709 15-15s-6.709-15-15-15c-24.814 0-45 20.186-45 45s20.186 45 45 45c23.979 0 46.699-11.602 60.776-31.055 29.515-40.733 8.211-109.113-29.97-143.847z" fill="#d9e7ec"/><path d="m316 301.024c-52.441 0-76.318-46.611-76.318-89.912-.015-43.389 23.877-90.088 76.318-90.088 40.073 0 56.442 43.76 36.489 71.353-8.467 11.675-22.104 18.647-36.489 18.647-8.276 0-15-6.724-15-15s6.724-15 15-15c8.291 0 15-6.709 15-15s-6.709-15-15-15c-24.814 0-45 20.186-45 45s20.186 45 45 45c23.979 0 46.699-11.602 60.776-31.055 29.515-40.734 8.21-109.114-29.971-143.848-28.505-25.913-65.493-38.276-104.018-34.468-22.822 2.179-43.713 10.891-61.787 23.65v294.778l105 10.942z" fill="#c5d3dd"/><path d="m497 331.024c-8.438 0-12.041-3.252-19.395-10.605-8.188-8.188-20.395-19.395-41.605-19.395s-32.417 11.206-40.605 19.395c-7.354 7.354-10.957 10.605-19.395 10.605s-12.041-3.252-19.395-10.605c-8.188-8.188-19.395-19.395-40.605-19.395s-32.417 11.206-40.605 19.395c-7.354 7.354-10.957 10.605-19.395 10.605s-12.041-3.252-19.395-10.605c-8.188-8.188-19.395-19.395-40.605-19.395-5.715 0-10.602.899-15 2.249-11.927 3.657-19.623 11.164-25.605 17.146-7.354 7.354-10.957 10.605-19.395 10.605-13.682 0-18.501-3.867-28.081-11.587-18.056-14.511-32.624-19.94-47.173-28.808-15.301 7.271-36.887 10.395-45.746 10.395-8.291 0-15 6.709-15 15v87.12l76 32.88h105 255l76-32.613v-57.387c0-8.291-6.709-15-15-15z" fill="#76e2f8"/><path d="m497 331.024c-8.438 0-12.041-3.252-19.395-10.605-8.188-8.188-20.395-19.395-41.605-19.395s-32.417 11.206-40.605 19.395c-7.354 7.354-10.957 10.605-19.395 10.605s-12.041-3.252-19.395-10.605c-8.188-8.188-19.395-19.395-40.605-19.395s-32.417 11.206-40.605 19.395c-7.354 7.354-10.957 10.605-19.395 10.605s-12.041-3.252-19.395-10.605c-8.188-8.188-19.395-19.395-40.605-19.395-5.715 0-10.602.899-15 2.249v132.751h255l76-32.613v-57.387c0-8.291-6.709-15-15-15z" fill="#3aaaff"/><path d="m477.605 395.418c-8.188-8.188-20.395-19.395-41.605-19.395s-32.417 11.206-40.605 19.395c-7.354 7.354-10.957 10.605-19.395 10.605s-12.041-3.252-19.395-10.605c-8.188-8.188-19.395-19.395-40.605-19.395s-32.417 11.206-40.605 19.395c-7.354 7.354-10.957 10.605-19.395 10.605s-12.041-3.252-19.395-10.605c-8.188-8.188-19.395-19.395-40.605-19.395-5.715 0-10.602.899-15 2.249-11.927 3.657-19.623 11.164-25.605 17.146-7.354 7.354-10.957 10.605-19.395 10.605s-12.041-3.252-19.395-10.605c-8.188-8.188-19.395-19.395-40.605-19.395s-33.417 11.206-41.605 19.395c-6.746 6.764-14.099 13.24-34.395 7.725v62.88c0 8.291 6.709 15 15 15h166 316c8.291 0 15-6.709 15-15v-62.613c-20.105 5.862-26.786-.384-34.395-7.992z" fill="#3aaaff"/><path d="m512 466.024v-62.613c-20.105 5.861-26.786-.385-34.395-7.993-8.188-8.188-20.395-19.395-41.605-19.395s-32.417 11.206-40.605 19.395c-7.354 7.354-10.957 10.605-19.395 10.605s-12.041-3.252-19.395-10.605c-8.188-8.188-19.395-19.395-40.605-19.395s-32.417 11.206-40.605 19.395c-7.354 7.354-10.957 10.605-19.395 10.605s-12.041-3.252-19.395-10.605c-8.188-8.188-19.395-19.395-40.605-19.395-5.715 0-10.602.899-15 2.249v102.751h316c8.291.001 15-6.708 15-14.999z" fill="#0082ff"/></g></svg>