<svg id="Layer_1" data-name="Layer 1" xmlns="http://www.w3.org/2000/svg" viewBox="0 0 803.3 626.72"><title>turtle</title><path d="M740.39,389.8a30.56,30.56,0,0,0,2.54,3.06c16,14.73,24.31,33.61,28.81,54.35,2.22,10.28,1.56,20.86.93,31.3-1.66,27.67-9,53.92-20.27,79.16a276.09,276.09,0,0,1-14.68,29.16c-9.62,16.12-18.51,32.68-28,48.89-4.27,7.29-8.63,14.68-14,21.1-3.51,4.15-8.86,7-15.06,6-3-.48-4.71-3-3.3-5.4,2.81-4.82,3.24-10.19,4.11-15.46,1.58-9.52,3.23-19,4.54-28.58a95.74,95.74,0,0,0-2.16-36.84Q681.9,569,680,561.41a7.62,7.62,0,0,0-.41-1c-2.76-7.13-5.84-14.15-8.19-21.41s-2-14.87-1.32-22.36c.29-3.43.05-6.23-2.24-9.1-3.37-4.25-6.16-9-9.47-13.87-3.26,4.75-7.33,8.74-8.27,14.36a66.72,66.72,0,0,0-.75,13c.72,22.13,2.18,44.27-.56,66.37a443.85,443.85,0,0,1-26.3,105.6c-10.39,26.91-25.2,51.14-42.11,74.33-12,16.47-25.46,31.69-38.74,47.07a88.6,88.6,0,0,1-23.54,18.84c-6,3.41-12.86,4.73-19.73,5a9.31,9.31,0,0,1-9.78-7.16c-1.91-6.55-3.3-13.25-4.9-19.9-.09-.35-.08-.73-.15-1.09-.26-1.45-.09-3.29-.92-4.23s-2.63-.72-4-1.09c-3.24-.86-5.93-2.68-7.05-5.83a34,34,0,0,1-2.22-9.81,107.82,107.82,0,0,1,.83-13.88c.11-1.29.08-2-1.32-2.46-7.88-2.51-9.51-10.28-8-16.25.84-3.28,1.65-6.56,2.55-9.83a2.71,2.71,0,0,0-1.32-3.51c-5.91-3.6-7.67-9.1-5.91-15.45,1.36-4.92,3.55-9.63,5.51-14.37,1.2-2.9,2.67-5.7,3.95-8.37-.28-.42-.33-.58-.44-.66-6.37-4.2-7.82-8.56-5-15.67,2.75-6.84,5.67-13.61,10.14-19.56.21-.29.36-.62.25-.43-1.68-2.61-3.84-4.76-4.44-7.27s0-5.53.72-8.15a26.66,26.66,0,0,1,3.2-6.52,111,111,0,0,0,15.36-47.5c.66-7.63,1.92-15.2,2.91-22.79.07-.57.08-1.15.13-2-4.1,1.81-8,3.61-11.9,5.24-11.93,4.93-24.53,7.2-37.16,9.41-17,3-34,2.2-51.11,1.56-14.08-.53-27.73-3.52-41.44-6.14C339.78,583.14,333,580,326,578.31c-4.88-1.16-10-1.21-15.08-1.66-1.71-.15-2.73.61-3.25,2.5a111.55,111.55,0,0,1-15,32.8,31.79,31.79,0,0,1-4.71,5.8c-4.64,4.31-11.18,3.67-14.43-1.74-1.88-3.13-2.7-6.92-3.87-10.45a22,22,0,0,1-.51-3.85c-5.78,4.15-12,5.21-18.39,2.85-7-2.59-8.28-8.89-8.81-16-5.15,5.52-10.14,10.59-14.79,15.95-4.25,4.89-7.94,10.26-12.23,15.11C200.15,636.31,183,650,163,659.81c-7.78,3.82-15.57,7.76-23.71,10.64-6.68,2.35-13.83,3.57-20.87,4.59-3.61.53-7.5-.16-11.13-.9s-5.07-3.85-4.8-7.28c.88-11.49,8-19.84,14-28.75a3.65,3.65,0,0,0,.74-3.37c-2.78-11,2.19-21.79,12.92-27.9a12.66,12.66,0,0,0,5.06-5.25c5.16-9.37,11.39-18.06,19.74-24.74,8.65-6.91,17.52-13.78,28.63-16.63a2.11,2.11,0,0,0,1.1-1.66c-.5-8.63,1.78-16.77,5.3-24.39,6.21-13.43,12.6-26.8,19.69-39.77a226,226,0,0,1,30.59-43.2c4.19-4.65,8.75-9,12.84-13.71,12.55-14.55,27.5-26.61,41.26-39.91,5.22-5.05,10-10.53,15.43-15.41,15.61-14.13,33-25.92,50.47-37.58,20.92-13.94,43.29-25,66.68-34.24a316,316,0,0,1,52.49-16.06,240.39,240.39,0,0,1,30.18-3.75c7.7-.59,15.39-1.47,23.09-2.12s15.7-1.23,23.55-1.83c10.79-.83,21.58-2.11,32.38-2.35,13-.29,26.07.08,39.09.64,4.49.19,9,1.54,13.37,2.79,7.14,2.05,9.8,7.09,8.3,14.95-.16.86-.34,1.72-.59,3,1.24-.31,2.26-.51,3.26-.82a104.8,104.8,0,0,0,40.3-23.55c8.52-7.81,16.87-15.87,24.69-24.37,10.89-11.85,24.42-18.17,39.8-21.72a274.79,274.79,0,0,0,28.78-8.44c5.5-1.92,10.58-5.12,15.77-7.87,18.65-9.88,37.16-10,55.56.64a12,12,0,0,0,3,1.16c10.62,2.66,21,5.73,29,13.92,4,4.1,6.63,9.07,9,14.06,3.51,7.44,6.69,15.19,7.55,23.46.46,4.53-.29,9.21-.77,13.8-.09.82-1.43,1.93-2.38,2.17-7.85,2-14.29,6.52-20.45,11.46-1.72,1.38-2.89,3.5-4.19,5.36-4.52,6.46-8.84,13-11.66,20.48a26,26,0,0,1-4.21,6.69,106.33,106.33,0,0,1-25.64,22.81c-9.82,6.32-19.75,12.38-31,15.82-6,1.83-12.14,2.93-18.22,4.39-2.36.57-4.69,1.27-7.05,1.81-3.36.78-6.75,1.43-10.11,2.2-9.77,2.24-19.39,4.95-28.26,9.79A12.69,12.69,0,0,0,740.39,389.8Zm128.87-91.52c-4.75-.91-8.78-1.68-12.8-2.47a21.56,21.56,0,0,0-14.31,2.12c-7.36,3.68-14.86,7.13-22.48,10.22a99.34,99.34,0,0,1-17.22,5.48c-6.75,1.39-13.71,1.79-20.58,2.52a8.6,8.6,0,0,1-3.7-.44,2.82,2.82,0,0,1-1.7-1.88,2.7,2.7,0,0,1,1.49-2,10.1,10.1,0,0,1,3.88-.51,61.69,61.69,0,0,0,20.3-2.41c10.66-3.24,20.36-8.58,30-13.95a72.37,72.37,0,0,1,41.88-9c2.11.16,4.49.64,6.32-.09,5.45-2.17,10.72-4.8,16-7.44,1-.49,1.55-1.81,2.25-2.79,1.46-2.06.38-4.28.3-6.42-.3-7.07-3.1-13.38-6.12-19.6a5.19,5.19,0,0,0-2.34-2.17c-3.76-1.78-4.15-3.4-1.5-6.11l-6-6.41c.21,1.36.4,2.13.43,2.91.12,3,.59,6,.19,9-.52,3.77-1.84,7.42-2.65,11.16a14.68,14.68,0,0,1-8,10.5c-2.1,1.06-4.23,2.06-6.33,3.12a47.79,47.79,0,0,0-4.49,2.35c-8.4,5.45-16.75,11-25.15,16.41A9.15,9.15,0,0,1,834,291.4c-1.6.37-3.14.25-4.06-1.38s-.34-2.93.56-4.33a48.91,48.91,0,0,0,3.19-5.46c1.83-3.89,4.21-7.34,8-9.49,3.32-1.88,6.79-3.52,10.27-5.1,5.67-2.59,11.46-4.93,17.08-7.64a16.15,16.15,0,0,0,4.45-3.79,14.78,14.78,0,0,0,3.77-13.47c-.59-3-1.25-6-1.69-9.06-.23-1.6-1.13-2.2-2.49-2.67-2.64-.9-5.22-2-7.87-2.9-1.77-.6-3.61-1-5.41-1.49l-.7.93a7.77,7.77,0,0,1,1.9,1.06,23.64,23.64,0,0,1,6.32,10.47c1.86,6.74-.1,13.44-5.32,16.41a49,49,0,0,1-10.89,4.7c-7.38,2.07-14.94.94-22.41.27a38.16,38.16,0,0,1-8-1.61C814.91,255,809.24,253,803.53,251c-3.84-1.31-7.68-2.59-11.47-3.86,1.56,5.95-.2,11-5.26,12.52a87.1,87.1,0,0,1-15.56,2.9c-3.74.4-5.71-2.44-4.27-6a44,44,0,0,1,5.14-9.43A11.6,11.6,0,0,1,783,242.61c1.73.16,3.44.53,5.09.8a30.27,30.27,0,0,1-.92-5,30.68,30.68,0,0,1,.62-5l-29.53,8.38c.49.2.81.37,1.14.47,3.81,1.19,5.27,4.23,3.33,7.67s-4.22,6.9-6.49,10.24a6.59,6.59,0,0,1-5.61,3c-4.62.05-7.82-2.89-8.74-8-.41-2.26-1-4.49-1.58-7.24l-11.2,8.45a73,73,0,0,1,7.48,1.41c5.21,1.56,8.37,6,7.45,11s-3.58,9.74-8.65,11.5A58.36,58.36,0,0,1,721,282.94c-4.07.32-7.21-2.75-8-6.78-.23-1.17-.29-2.38-.46-3.83-1.44,1.34-2.83,2.17-2.31,4.33a57.13,57.13,0,0,1,1.19,7.83,6.49,6.49,0,0,1-.7,2.31c-.76-.42-1.9-.65-2.2-1.28a16.67,16.67,0,0,1-1.1-4.23c-.27-1.5-.38-3-.56-4.54a1.66,1.66,0,0,0-.75,1.41c.21,2.86.44,5.73.72,8.58.26,2.49.7,5,.83,7.46,0,.65-.81,1.35-1.25,2a12.37,12.37,0,0,1-1.83-1.53c-.28-.35-.23-1-.29-1.49l-1.5-12.62-.55-.16c-.29.84-.93,1.72-.83,2.51.72,5.9,1,11.9,3.43,17.48.3.68-.17,1.68-.29,2.54-.86-.33-2.19-.41-2.5-1a22.88,22.88,0,0,1-2.1-5.76c-.76-3.73-1.23-7.52-1.86-11.5-1.83,1.56-3.65,2.93-5.24,4.52a3.52,3.52,0,0,0-.9,2.57c.27,2.41.93,4.77,1.23,7.17.09.68-.55,1.46-.85,2.19A7.3,7.3,0,0,1,690.2,300a4.47,4.47,0,0,1-.71-2.05c-.34-1.7-.62-3.41-.92-5.12l-.76-.18a7.12,7.12,0,0,0-.82,2.57c.21,2.41.78,4.79,1,7.2.06.71-.52,1.48-.8,2.22a6.76,6.76,0,0,1-2.09-1.21,5.25,5.25,0,0,1-.74-2.28c-.3-1.56-.5-3.14-.74-4.67-5.48,3.05-10.68,6.31-16.2,8.87-3.72,1.73-6.75,3.81-8.93,7.33-3.24,5.25-7.48,10-10,15.57-5.58,12.58-10.38,25.5-15.39,38.33-1.83,4.66-3.3,9.45-5,14.15a3.69,3.69,0,0,1-1.7,2.05,2.1,2.1,0,0,1-2.94-2.45c1.14-5.84,2.43-11.66,3.68-17.48.32-1.49.72-3,1.09-4.44a13.48,13.48,0,0,0-1.63,3.9q-2.48,9.95-4.84,19.93c-.32,1.36-.84,2.41-2.36,2.46s-2.38-1.11-2.56-2.52a13.34,13.34,0,0,1,.11-3.51c.26-1.76.68-3.5.95-4.8l-4.28,1.83c-.69,5.6-1.44,11.51-2.14,17.43-1,8.87-4.41,16.57-11.12,22.69-2.77,2.52-5.41,5.2-8,7.89-2.23,2.29-4.36,4.69-6.35,6.83a44.58,44.58,0,0,1,19.84,1.78,2.12,2.12,0,0,0,1.8-.88c7.28-13.2,16.31-25.23,25.34-37.24,13.89-18.49,28-36.84,41.95-55.26a117.09,117.09,0,0,1,34.8-31.25c4.66-2.68,10-4.22,15.08-6.1,2.07-.76,3.7.11,4.2,1.7s-.43,3.12-2.66,3.9c-.76.26-1.57.41-2.32.7-3.22,1.25-6.62,2.19-9.61,3.86a105.58,105.58,0,0,0-30.54,25.48c-6.61,8.1-12.81,16.53-19.09,24.9-14.42,19.19-28.85,38.38-43.12,57.69-3.61,4.88-6.66,10.19-10,15.33l3.52,3.13c3-4.47,6.2-8.63,8.81-13.12,9.06-15.6,20.26-29.67,31.59-43.6,5.67-6.95,11.92-13.42,17.1-20.8a54.72,54.72,0,0,1,8.4-9.33c5.39-4.79,11.09-9.23,16.72-13.76,1.92-1.55,3.77-1.42,4.85.07s.54,3.3-1.36,4.73-4.07,2.93-6,4.49c-6.46,5.14-12.91,10.3-17.88,17-2,2.73-3.84,5.6-6,8.22-8.18,10-16.75,19.72-24.67,30-9.64,12.54-17.33,26.33-26.88,38.87-1.07,1.42-.78,2.32.92,3.09,1-1.07,2.09-2.07,3-3.22,1.17-1.49,2.29-2.8,4.19-1.06,2.54-3.35,4.87-6.57,7.39-9.65.5-.62,1.69-.68,2.56-1,0,1,.41,2.19,0,2.91a69.84,69.84,0,0,1-4.13,5.73c-2.31,3.15-4.65,6.27-6.91,9.45-.71,1-1.35,2.15,0,3.32.4-.36.73-.64,1-.94q9.16-9.1,18.35-18.22c.84-.83,1.83-1.85,3-.68s.22,2.19-.61,3.05c-2,2.05-4.12,4-6.11,6.08-4.32,4.5-8.6,9-13,13.63l4.83,2.33c1.11-1.5,1.94-2.8,3-3.95,3.47-3.91,7-7.73,10.49-11.66a9.64,9.64,0,0,0,1.94-3.35c1.45-4.56,2.68-9.19,4.11-13.75a61.65,61.65,0,0,1,2.75-7.22c.3-.67,1.39-1,2.11-1.46a15.23,15.23,0,0,1,.88,2.62,4.15,4.15,0,0,1-.49,1.68c-1.37,4.28-2.76,8.55-4.12,12.83a20.37,20.37,0,0,0-.39,2c2.44-2.13,4.48-3.92,6.53-5.69,1-.81,2-1.95,3.2-.59s-.05,2.31-1,3.16c-2,1.92-4,3.91-6.22,5.63-3.36,2.65-5.81,5.74-6.48,10.1a42.76,42.76,0,0,1-1.35,4.89c-.64,2.39-1.25,4.78-1.88,7.17a4.83,4.83,0,0,0,2.76-1.24,59.16,59.16,0,0,0,5.39-5.82c10.84-14.35,22.53-27.83,37.67-37.91a5.35,5.35,0,0,0,.81-.88c-3.23-.52-6.28-.94-9.3-1.53-1.4-.27-2.66-1.26-2.2-2.75a4.34,4.34,0,0,1,2.54-2.2,11.1,11.1,0,0,1,4.15-.43c8.16.39,15.71-2,23.17-4.89a36.91,36.91,0,0,0,4.3-2.28l-.2-.65c-4.69,0-9.38,0-14.07,0a19.84,19.84,0,0,1-4.37-.29,2.89,2.89,0,0,1-2.4-3.44c.27-1.84,1.64-2.32,3.26-2.25,5.36.24,10.73.52,16.1.75,1.55.07,3.11,0,4.66,0-4.92-.83-9.83-1.14-14.74-1.49a4.84,4.84,0,0,1-2.54-.55c-.89-.69-2.14-1.91-2-2.69a4.08,4.08,0,0,1,2.51-2.49,12.56,12.56,0,0,1,4.38-.1c6.9.4,13.8.88,20.71,1.26,5.58.31,8.81-3.87,13.19-6.56-4.12-1.46-7.75-2.69-11.32-4a16.46,16.46,0,0,1-7.67-5.75c-.92-1.25-1.69-2.58-.65-4s2.79-1.26,4.21-.57,2.58,2,4,2.59c5.37,2.19,10.77,4.32,16.25,6.2,1.75.6,3.79.33,5.7.46,0-.19.05-.38.07-.57a7.83,7.83,0,0,0-1.2-.43c-6.36-1.33-12-4.29-17.72-7.27a9.79,9.79,0,0,1-2.59-2c-1.61-1.74-1.73-3.55-.49-4.72a4,4,0,0,1,5.52.19,9.61,9.61,0,0,0,2.34,1.6c11.36,5.49,23.24,8.82,36,8.52a12.51,12.51,0,0,0,3.46-.47c9-2.89,17.91-5.86,26.86-8.8,16.82-5.52,29.55-16.38,39.83-30.48,4.11-5.64,8.31-11.22,12.64-16.69C860.54,308.58,864.73,303.73,869.26,298.28ZM528,361.46c-1.3-.64-2.68-1.19-3.92-2-5.18-3.23-10.37-6.46-15.46-9.84a40,40,0,0,1-5.59-4.65c-7.73-7.56-15.35-15.22-23.13-22.73a4.44,4.44,0,0,0-3.53-.82,83.77,83.77,0,0,0-10.31,3.22c-15.68,6.17-31.31,12.47-47,18.68-6.86,2.71-11.31,7.92-14.07,14.41-4,9.34-7.35,18.93-11.09,28.37-7.67,19.38-13.76,39.15-15.27,60.08-.23,3.27,0,6.56,0,10.23,1.59-.95,2.85-1.79,4.19-2.5,4.67-2.49,9.26-5.17,14.07-7.35,25.39-11.51,51.85-20.52,77-32.64,8.24-4,15.8-8.88,21.79-15.89,4.2-4.92,8-10.18,12.33-15C514.55,375.75,521.32,368.69,528,361.46Zm-135.88-9.83c-.46-.11-.8-.2-1.15-.27-8-1.63-16-1.09-24,0a16.79,16.79,0,0,0-7,2.15,479.93,479.93,0,0,0-42.69,31.4,5.82,5.82,0,0,0-1.66,2.24,119.94,119.94,0,0,0-4.05,11.41Q302.25,433.84,293,469.2c-3.42,13-5.52,26.22-4.75,39.75.05.92.22,1.83.33,2.72a4.94,4.94,0,0,0,.91,0c.78-.21,1.56-.42,2.32-.69,16.87-6,31.28-15.9,44.16-28.17a75.33,75.33,0,0,1,27.06-17.08,2.65,2.65,0,0,0,2.07-2.42c1.49-9.75,2.63-19.58,4.78-29.19,2.67-11.91,6.17-23.63,9.39-35.41,4.16-15.18,8.4-30.33,12.6-45.5A13.87,13.87,0,0,0,392.16,351.63ZM241.49,460.55l-.4-.21c-.41.47-.84.92-1.24,1.4A246.58,246.58,0,0,0,211.27,505c-4.76,9-8.79,18.48-13.34,27.64a72.93,72.93,0,0,0-6.28,19c-.77,4-.73,8.09,1.26,11.86.88,1.66,1.84,3.24,4.26,2.55a6.12,6.12,0,0,1,2.39.27c5.36.9,10.54,1,15.14-2.7a12.67,12.67,0,0,1,4.21-1.9,54.76,54.76,0,0,0,14.94-7.47c5.1-3.39,10.4-6.44,16.42-8,14.77-3.7,29.49-7.55,44.51-10.21,14-2.47,27.8-5.8,41.69-8.77q11.64-2.5,23.27-5.06a16,16,0,0,0,2.16-.86c-11.15-7-18.14-16.48-20.3-29.48-1.7,1-3.24,1.68-4.6,2.65-10.88,7.79-22.72,13.89-34.83,19.47a71.75,71.75,0,0,1-11.61,4.17c-12,3.16-24.09,6.1-36.16,9-5.74,1.4-11.55,2.41-17.49,1.42-1.57-.26-3.41-.47-4.55-1.42a17.1,17.1,0,0,1-6.11-9.23c-1.24-5.19-.46-10.3,1.14-15.23,3.72-11.41,7.64-22.75,11.46-34.12C239.76,466,240.61,463.26,241.49,460.55ZM500.31,544c-2,.18-4,.41-5.92.49A51.3,51.3,0,0,0,478.28,548c-14,5.27-27.91,10.57-43.07,11.75-9.11.7-18.17,1.71-27.32.64-3.06-.36-6.16-.49-9.25-.64-6.46-.3-12.92-.54-19.38-.81-7.05-.3-14.11-.63-21.16-.91-1.62-.07-3.24-.07-4.86,0-3.6.09-7.21.48-10.8.29a65.73,65.73,0,0,0-36.29,8.33c-3.2,1.79-3.48,3.37-1.26,6.45a32.58,32.58,0,0,1,3.62-.93c6.53-1,13-.07,19.23,1.63,7,1.91,13.8,4.91,20.91,6.25,14,2.66,28,5.58,42.34,6.06,16.29.54,32.46.88,48.65-1.87,16.73-2.84,32.93-7.07,48.19-14.62a5.3,5.3,0,0,0,3.06-3.39c1.39-4.34,2.94-8.64,4.7-12.84C496.91,550.19,498.67,547.21,500.31,544Zm70.26-199.5c1.14-21.06,11.32-37.2,27.84-50.5-1.42,0-2.07,0-2.72,0l-14.11.63c-8.76.4-17.53.61-26.27,1.25-14.61,1.07-29.2,2.38-43.79,3.69-6.38.57-12.73,1.44-19.1,2.06-2.31.22-3.43,1.29-4,3.55-.86,3.65-2.06,7.21-3,10.84a1.72,1.72,0,0,0,.39,1.45c3.18,3,6.29,6,9.67,8.74,6.49,5.2,13.18,10.16,19.71,15.3,5.77,4.54,11.87,8.43,18.93,10.68a25,25,0,0,1,3.59,1.84C547.52,347.46,558.74,345.17,570.57,344.48ZM281.91,512.42a114,114,0,0,1,3.2-38.67c5.49-22.07,11.32-44.06,17-66.07.87-3.37,1.86-6.7,2.93-10.55-.77.61-1.13.85-1.45,1.14C293,408,282.5,418,271.68,427.51c-8.68,7.66-14,17.29-17.79,27.94q-8.12,23-15.83,46.15A70.47,70.47,0,0,0,235.15,514c-.59,4.19,1.35,7.06,5.4,8.21a11.81,11.81,0,0,0,5.8-.26c5.85-1.49,11.62-3.29,17.44-4.86S275.74,514,281.91,512.42ZM570.08,350.94c-2.08.14-4.06.17-6,.42a54.33,54.33,0,0,0-33.37,17c-7.36,7.81-14.89,15.52-21.65,23.84-4,4.91-8.94,9.11-11.74,15-1.35,2.83-3.31,5.36-4.94,8.06a6.38,6.38,0,0,0,.56,7.83,38.9,38.9,0,0,0,7,5.84,5.32,5.32,0,0,0,5.48.18c3.16-1.4,6.32-2.81,9.58-3.95,11.73-4.09,23.51-8,35.26-12.08,3.54-1.22,7.14-2.34,10.55-3.88a14.3,14.3,0,0,0,7-6,27.18,27.18,0,0,0,3.7-12.78A210.43,210.43,0,0,0,570.53,360C570.19,357.08,570.23,354.14,570.08,350.94ZM544.23,770.7c0-1.62.08-3.24,0-4.86-.13-2.07-.84-4.31-2.81-4.83-1.39-.38-3.39.52-4.79,1.37-2.74,1.68-5.27,3.7-7.86,5.62-1.53,1.15-3,2.44-4.5,3.57C513.6,779.28,504.92,789,496.57,799a5.19,5.19,0,0,0-1.13,2.1,29.58,29.58,0,0,0,.5,14.86,13.11,13.11,0,0,0,14,9.19c6.05-.66,11.23-3.42,16.05-6.87,4.46-3.19,8.54-6.83,10.62-12.12C541.08,794.77,543,782.8,544.23,770.7Zm43.14-439.17c-.46,1.67-1,3.63-1.55,5.61-3.22,12.58-1.36,24.8,2.45,36.94a68,68,0,0,1,3.05,13.28c1.1,10.64.69,21.19-4.1,31.1a1.87,1.87,0,0,0,0,.71l.55.42c3-3.14,5.88-6.37,9-9.39a24.6,24.6,0,0,0,7.78-15.2c1-9,1.92-18,2.89-27,.74-6.94,1.18-13.94,2.4-20.8.85-4.8,2.77-9.41,4.21-14.1ZM517.8,613.45a20.4,20.4,0,0,0-5.06,1c-6.2,2.67-12.38,5.43-18.39,8.5a23.16,23.16,0,0,0-10,10.34c-3.42,6.6-7,13.12-10.43,19.69a21,21,0,0,0-1.53,3.89c-.72,2.51-.19,3.77,2.11,4.88,3.78,1.82,7.62,2.7,11.49.14,1-.65,2.09-1.11,3-1.79,7.24-5.2,14.63-10.2,21.61-15.71a65.65,65.65,0,0,0,17.21-20.78c1.37-2.56.58-4.6-.91-6.72C525,614,522,613.62,517.8,613.45Zm.66,77a15.79,15.79,0,0,0-1.15-3.48,2.27,2.27,0,0,0-2.1-.68c-4.45,1.92-9.12,3.54-13.16,6.13a232.89,232.89,0,0,0-20.79,14.87,82.59,82.59,0,0,0-11.53,12.1c-1.73,2.13-3.43,5.15-3.36,7.71a21.76,21.76,0,0,0,6.19,15.16,1.78,1.78,0,0,0,2.45.35,49.31,49.31,0,0,0,14.31-9.83c8.07-8.17,16-16.47,22.46-26C515.11,701.75,517.78,696.57,518.46,690.42ZM391.31,508.11c4.62-5.39,9.32-10.85,14-16.36a2.38,2.38,0,0,0,.38-1.79c-.9-3.94-1.78-7.89-2.87-11.79a37.52,37.52,0,0,1-1-17.89,14.86,14.86,0,0,0,.13-1.86c-1.76.69-3.28,1.21-4.74,1.87-10.15,4.59-19.4,10.31-26.73,19-5.06,6-2.76,15.58,2,19.2s9.47,6.45,15.11,8A28.22,28.22,0,0,1,391.31,508.11Zm43.83-33.05a37.06,37.06,0,0,0,14.24-8.89c3.91-3.9,7.71-7.91,11.53-11.9s7.51-7.89,11.23-11.87a2.71,2.71,0,0,0,.72-1.49c.51-5.59-4.9-12.44-10.52-13.36a2.44,2.44,0,0,0-1.27.19q-10.8,4.23-21.57,8.5a4,4,0,0,0-1.65,1c-2.27,2.9-4.62,5.75-6.63,8.82a13.2,13.2,0,0,0-2.22,9.67,41.24,41.24,0,0,0,1.28,6.27C431.76,466.38,433.48,470.64,435.14,475.06Zm94,14.6c1.12-4,2.07-7.61,3.18-11.18.43-1.41.52-3.82,2.77-3.13s.76,2.6.41,4c-.72,2.85-1.58,5.67-2.38,8.51a60.16,60.16,0,0,0,3.13-7.05c.29-.66,1.37-1,2.08-1.45.31.79.93,1.61.87,2.37a18.82,18.82,0,0,1-1,3.66l.73.31a15.62,15.62,0,0,0,1.55-3.29c.4-1.78.32-3.67.71-5.46a11.06,11.06,0,0,1,1.47-2.74l2.36,1.38c2.1-5.52,2.27-5.66,4.65-3.94,1.71-1.7-.47-6.37,4.51-5.58A48.37,48.37,0,0,1,555.6,461c.26-.67,1.39-1.65,1.74-1.51,2.39.93,2.74-.75,3.27-2.28a47.29,47.29,0,0,1,2-5.38c.4-.79,1.61-1.82,2.28-1.71,1.45.24,1.12,1.61.78,2.7s-.77,2.38-1.18,3.57-.8,2.16-1.2,3.25a2.54,2.54,0,0,0,1.52-1.16c1.7-2.79,3.32-5.65,5.12-8.38.32-.49,1.36-.5,2.07-.73.22.71.71,1.45.61,2.11a10.56,10.56,0,0,1-1.17,2.67c2.4-.62,4.24-1.41,5-3.94a17.07,17.07,0,0,1,2.2-4.06c.66-1.06,1.48-2.37,2.95-1.45s.46,2.08-.08,3.1c-.63,1.17-1.29,2.33-1.94,3.5l.76.62a12.15,12.15,0,0,0,1.93-1.93c1-1.69,1.76-3.59,2.92-5.17.48-.67,1.76-.75,2.68-1.1a7.35,7.35,0,0,1,0,2.72,49.55,49.55,0,0,1-2.69,4.87l3.1.23a60.25,60.25,0,0,1,2.81-5.83c.37-.6,1.52-.73,2.31-1.08.13.9.58,1.9.33,2.69a42.22,42.22,0,0,1-2.06,4.69l2.86,2.57c2.49-1.66,4.89-3.52,7.51-5s5.58-2.51,8.43-3.77l-.93-1.72c-2.27,1.64-2.63,1.58-3.51,0l-3.38-.63a2.72,2.72,0,0,0-.76-.16c-2.75.44-3.52-.45-2.5-3.12.61-1.62,1.43-3.17,2.17-4.77-7.17-1.8-15.19-1.59-19.2.57.46.42,1,.74,1.27,1.22a1.88,1.88,0,0,1,0,1.6,2,2,0,0,1-1.65.65,12.49,12.49,0,0,1-2.37-1.13c-1.21-.56-2.45-1.08-3.68-1.62l-.24.49c.33.25.78.43,1,.76a25.9,25.9,0,0,1,1.16,2.51,7.74,7.74,0,0,1-2.74.27,20.73,20.73,0,0,1-3.79-1.78,4.06,4.06,0,0,0-4.38.28,28.35,28.35,0,0,1,3.46,2.47,2.32,2.32,0,0,1,.18,2,1.59,1.59,0,0,1-1.47.56,30,30,0,0,1-6-2.54c-1.37-.87-2.11-.6-3.2.32a7.55,7.55,0,0,1,2.29.65,9.59,9.59,0,0,1,1.59,2c-.77.36-1.56,1.06-2.31,1a21.76,21.76,0,0,1-5-.82c-2-.57-3.32.24-4.72,1.64.42.05.68,0,.84.13.74.52,1.45,1.08,2.17,1.63-.77.52-1.49,1.36-2.34,1.51a32.15,32.15,0,0,1-4.4.1c-.88,0-1.74.19-2.61.3a1.87,1.87,0,0,0,1.32.57c1.37.21,3.46-.27,3.43,1.8s-2.12,1.52-3.48,1.57c-2.17.07-4.34,0-6.5,0,0,.23,0,.46,0,.69a24.48,24.48,0,0,1,4.31.64c.78.25,1.88,1.21,1.88,1.85,0,1.53-1.36,1.38-2.49,1.28a56.86,56.86,0,0,0-6.37-.47c-1,0-2,.74-3.06,1.15l.2.74c1.66.25,3.31.51,5,.75,1.2.18,2.57.32,2.43,1.93-.17,1.77-1.71,1.32-2.79,1.28-1.49-.06-3-.33-4-.46.49.8,1,1.67,1.56,2.55a18,18,0,0,1-3.06.89c-.85.1-1.78-.41-2.61-.27a3.87,3.87,0,0,0-2.43,1.17,76.6,76.6,0,0,0-4.13,6.78,3.91,3.91,0,0,0-.59,2.28A30.08,30.08,0,0,0,529.13,489.66Zm-4.32,228.11a17.34,17.34,0,0,0-.17-2.36c-.39-2.14-1.16-2.6-3-1.52-3,1.75-6.14,3.36-8.67,5.64-7.54,6.78-14.95,13.73-22.15,20.89A123.15,123.15,0,0,0,481,752.05a101.8,101.8,0,0,0-6.64,9.6,4.31,4.31,0,0,0-.3,3.67c2.21,3.79,8.52,5.67,12.25,3.37a59.41,59.41,0,0,0,11-8.4c6.32-6.36,12.38-13,18.18-19.85C520.88,734.1,524.66,726.9,524.81,717.77Zm-35.37-100.6c3.57-1.55,6.95-3.47,10.59-4.5,7.88-2.23,14.59-6.61,21.27-11a13,13,0,0,0,5-5.65,26.19,26.19,0,0,0-.82-19.8c-1-2.35-2.82-3.22-5.25-2.36-7.48,2.63-14.87,5.48-22.29,8.28a6.67,6.67,0,0,0-2.49,1.38,7.18,7.18,0,0,0-2,3.13c-.58,2.88-.77,5.83-1.15,8.75C491.38,602.6,490.41,609.81,489.44,617.17Zm-37.75-78.88c6.84-3.42,13.53-6.78,20.23-10.12,1.41-.71,1.17-1.86.91-3-3.8-17.28-13.55-30.09-29-38.57-2.8-1.52-3.24-1.37-5.64,1.25a8.34,8.34,0,0,1,1.8,1.51c.36.52.67,1.61.41,1.89a2.63,2.63,0,0,1-2,.6c-.67-.08-1.25-.73-1.91-1.05a10.48,10.48,0,0,0-1.53-.47l-.27.64a13.22,13.22,0,0,1,2.61,1.75,9.27,9.27,0,0,1,1.2,2.49c-.93.13-2,.6-2.76.3a24.53,24.53,0,0,1-3.94-2.35l-4.45,3.51c2.57,1.73,4.86,3.46,7.32,4.91,8.73,5.12,13.69,12.69,15.08,22.67C450.31,528.78,451,533.34,451.69,538.29ZM589.52,325.14c9,2.12,17.6,4,26.55,3.11a2.32,2.32,0,0,0,1.41-.85c5.36-7.39,10.78-14.74,15.94-22.27,1.36-2,2-4.54,2.75-6.88.57-1.67-.16-2.62-2-2.8-6.07-.62-12.14-1.23-18.2-1.95a7.59,7.59,0,0,0-6.19,2.24C600.67,303.72,594.89,314,589.52,325.14ZM444.59,482.79c16.55,8.65,27.11,22.11,31.93,40.42,5.73-6.87,10.54-13.87,13.76-21.88,1.45-3.61,1.6-3.72-1.5-6.22a46.55,46.55,0,0,1-10.27-11.47c-4.14-6.58-10.42-10.68-16.62-14.9-1.05.88-2,1.69-3,2.51a8.61,8.61,0,0,1,1.75,2.05,7.42,7.42,0,0,1,.1,2.55c-.79-.12-1.8,0-2.32-.43a13.59,13.59,0,0,1-2-2.86L453.9,475c1,.86,1.69,1.57,2.48,2.22s1.86,1.72.8,2.69c-.5.46-2,.22-2.85-.2a17.47,17.47,0,0,1-3.06-2.55l-1.83,1.5c.72.52,1.46.79,1.74,1.31a15.46,15.46,0,0,1,.92,2.79c-.92,0-1.85,0-2.76-.11-.31,0-.61-.39-.89-.63C447,480.75,445.71,481,444.59,482.79Zm31.49,302.05-.38,0a74.17,74.17,0,0,0,1,8.47c1.06,4.55,4.09,5.68,8.57,4.18,5.5-1.84,9.14-6,13.14-9.74,6.61-6.17,13-12.6,19.66-18.69,3.63-3.32,7.77-6.07,11.5-9.29a19.84,19.84,0,0,0,4.13-5.07c1.15-2,.45-3.35-1.73-3.76-6.91-1.31-13.36-.55-18.65,4.66-1.78,1.76-3.51,3.58-5.22,5.4-7.43,7.91-15.81,14.29-26.63,16.85-1.7.4-4.05.46-4.86,1.57S476.2,783,476.08,784.84ZM508,660.55a12.75,12.75,0,0,0-2.34.54c-6,2.4-12,4.76-17.94,7.33A31.48,31.48,0,0,0,473,681.22a61.43,61.43,0,0,0-5,10c-1.23,3.28.71,6.23,4.57,4.77a118.08,118.08,0,0,0,11.26-4.88c4.58-2.31,8.95-5,13.51-7.4,4.83-2.5,9.86-4.61,14.63-7.21a26.59,26.59,0,0,0,5.92-4.84,4.2,4.2,0,0,0,.72-3.23C517.89,665,512,660.52,508,660.55ZM430.17,546.63c5.88-2.21,11.24-4.2,16.56-6.28a1.8,1.8,0,0,0,.76-1.48c-.29-3.74-.52-7.49-1.1-11.18-.75-4.7-1.5-9.39-4-13.64-4.27-7.17-11.65-10.36-18.13-14.7-.41-.27-1.25.1-2.07.2,1.94,2.75,1.73,3.39-.54,3.82l-.28,3.22c-.86-.2-1.72-.39-2.57-.63-.18,0-.34-.28-.46-.46-1.1-1.7-2.33-1.8-4,.06C423.3,517.41,428.09,531.16,430.17,546.63Zm-47.93-207.4.26,1.19c3.59,0,7.17-.06,10.76,0a33.69,33.69,0,0,0,17.14-4.51,261.06,261.06,0,0,1,29.13-13.71c11-4.26,22.27-7.68,34-9.14.79-.1,2-.46,2.21-1,1-2.33,1.7-4.78,2.62-7.54-1.68.33-3.11.56-4.52.91q-16.71,4.15-33.41,8.34c-2.14.53-4.42.68-6.43,1.51-9.93,4.1-19.88,8.16-29.64,12.65C396.87,331.37,389.61,335.44,382.24,339.23ZM643.63,545.48a26.23,26.23,0,0,1-.18-3.31,2.42,2.42,0,0,0-2.17-2.91c-5.5-1.28-10.95-2.79-16.46-4-3.33-.74-5.3.5-6.65,3.62a27.85,27.85,0,0,0-2.08,14.24,13.17,13.17,0,0,0,9.53,11.19c5,1.55,9.59.1,14.17-1.56a2.56,2.56,0,0,0,1.18-1.47A42.06,42.06,0,0,0,643.63,545.48Zm-30.36-24.94c-.34,6.27,2.51,10.84,8.75,9.22a12.39,12.39,0,0,1,5,.2c3,.54,5.87,1.34,8.81,2a5.34,5.34,0,0,0,6.66-6c-.43-3.21-1.1-6.4-1.24-9.62a14.11,14.11,0,0,0-4.77-10.56c-.86-.76-2.13-1.62-3.12-1.52A94.07,94.07,0,0,0,622.57,506a7.64,7.64,0,0,0-3.4,2C615.37,511.65,613.18,516.08,613.27,520.54ZM473.05,456.72c.44,1.69,1.36,3.26.92,3.94-1,1.57-2.2.25-3.3-.49-.32-.22-1.07.21-2.11.46a16.86,16.86,0,0,1,2.67,2.22,11,11,0,0,1,1,2.54,8.13,8.13,0,0,1-2.91,0,14.91,14.91,0,0,1-3-2.2l-1,1.35-.93,1.23c.86.64,1.6,1.25,2.41,1.76a59.73,59.73,0,0,1,16.92,16.57c2.59,3.65,6.11,6.64,9.39,10.12,2.15-4,3.81-7.73,6-11.08,1.58-2.41,1.39-3.9-.3-6.22-4.34-5.95-8.43-12.09-14.18-16.83-2.64-2.18-5.35-4.27-8.12-6.47l-2.72,2.4Zm-69.52,55.34c-2.07.39-1.71,1.69-1.3,3,3.44,10.92,5.86,22,6,33.54a7.63,7.63,0,0,0,.3,1.42c5.72.32,11.08-.93,16.43-2.28,1.17-.29,1.19-1,1.06-2A101,101,0,0,0,420.48,524c-2.23-6.15-6.18-11.25-9.5-16.85l-4.69,2.9a33.64,33.64,0,0,1,1.79,4.45,7.77,7.77,0,0,1-.26,2.71c-.89-.44-2.07-.67-2.59-1.38A18.37,18.37,0,0,1,403.53,512.06ZM796.06,230.27l.3.84c2.78-.57,5.76-.69,8.27-1.83a17.83,17.83,0,0,1,7.89-1.6c5.15.1,10.3.21,15.43.58,4.33.32,8.68.87,12.41,3.44,2.44,1.7,4.7,3.68,7.25,5.19,4.38,2.6,9.09,4.14,14.47,3a16.45,16.45,0,0,0-6.65-10.46c-3.1-2.22-6.6-3.92-9.52-6.34A23.46,23.46,0,0,0,832,217.6a50.49,50.49,0,0,0-28.54,6.89C800.77,226,798.52,228.32,796.06,230.27Zm-280.77,230c-.7-.92-1.56-2-2.37-3.11-4-5.54-8-11.18-14.3-14.46-1.36-.71-2.69-2.15-4-2.09s-2.81,1.45-4.2,2.27a5.77,5.77,0,0,0-.63.56,15.48,15.48,0,0,1,2,2.58,8.07,8.07,0,0,1,.36,2.55c-.91-.14-2,0-2.69-.47a16.46,16.46,0,0,1-2.56-2.83l-2.37,1.81a29.43,29.43,0,0,1,3,3.41c.42.65.24,1.68.34,2.54-.92-.13-2.05,0-2.7-.44a26.43,26.43,0,0,1-3.24-3.34L479.89,451c4.36,3.9,8.9,7.42,12.78,11.56s7.14,8.95,10.63,13.41ZM385.48,520.68l-.86-.28a6.92,6.92,0,0,0-.44,2,18.66,18.66,0,0,0,.73,2.54c.27,1.09.55,2.46-.94,2.66-.64.08-1.67-.91-2.1-1.65a20.85,20.85,0,0,1-1.33-3.65l-.87,0a12.4,12.4,0,0,0-.16,2.9c.85,4.71,2,9.37,2.66,14.1.56,3.76.64,7.59.95,11.68h19.56c-1.23-12.09-3.28-23.6-7.48-34.85a3.87,3.87,0,0,0-1.19,1.94,25,25,0,0,1-.13,2.62c-.17.57-.91,1.31-1.42,1.32s-1.21-.69-1.49-1.25a6.86,6.86,0,0,1-.32-2.17c-2.22-.1-1.77,1.2-1.7,2.6,0,.82-.73,1.67-1.14,2.51a24.33,24.33,0,0,1-1.95-1.84C385.6,521.62,385.6,521.1,385.48,520.68Zm113.16,54.69c2.28-.93,4.1-1.72,5.94-2.42,6-2.29,10.49-6.72,15.41-10.53a125.83,125.83,0,0,0,10.42-9.17,12.18,12.18,0,0,0,2.84-4.62c1-2.82-.45-4.8-3.35-4.93A33.12,33.12,0,0,0,512.36,548a16,16,0,0,0-4.77,4.44c-4.39,5.86-6.47,12.8-8.59,19.68A19.16,19.16,0,0,0,498.64,575.37ZM603.9,491.93c-1.73-.36-3.18-.61-4.61-.95-5.91-1.39-9.22-5.06-10.07-11.08a9,9,0,0,0-.47-2.15c-.7-1.63-1.79-2.57-3.58-1.38s-3.88,2.21-5.37,3.75c-6.09,6.31-6.48,19-.89,26a4.2,4.2,0,0,0,2.2,1.05c2.84.71,4.81-1.05,7-2.46,3.55-2.33,7.13-4.64,10.81-6.73A11.2,11.2,0,0,0,603.9,491.93ZM129.39,627.12c.4,2.35.8,4.45,1.1,6.56s1.39,2.3,3.24,2a59.15,59.15,0,0,0,18.32-6.15c2.61-1.36,5.17-2.54,6.94-5.14,1.92-2.81,1.79-4-1.34-5.29-4.76-2-9.55-3.83-14.28-5.83a6.12,6.12,0,0,0-6.1.5C132.48,617,130.67,622,129.39,627.12Zm380.54-87.4c5.19-2.08,9.75-3.74,14.15-5.72,5.48-2.46,10.45-5.59,12-12,.5-2.14.91-4.31,1.25-6.49a1.65,1.65,0,0,0-.58-1.4c-2.24-1.06-4.49-2.38-7.13-1.59A36.65,36.65,0,0,0,512,523.36a8.74,8.74,0,0,0-1.74,4.39,68.32,68.32,0,0,0-.37,7.45C509.89,536.56,509.93,537.92,509.93,539.72ZM606,610.93c-4.81.55-9,1-13.12,1.53-2.3.32-4.38.37-5.79-2.36-.21.88-.35,1.36-.43,1.85-1.1,6.75-2.11,13.51-3.33,20.24-.31,1.66,0,2.36,1.64,2.49l15.1,1.17C602.15,627.26,604.05,619.28,606,610.93Zm-24.28,29.94c-.06.34-.19,1.19-.34,2-1.34,7.6-2.58,15.23-4.09,22.8-.41,2,.22,2.89,2,2.88,3,0,6-.35,9-.43,1.28,0,1.71-.61,2.07-1.76,1.32-4.29,2.81-8.52,4.2-12.79,1.31-4,2.57-8.07,3.73-11.71Zm-21-155.11c2.5-2.33,5-4.39,7.2-6.76a44.56,44.56,0,0,1,16.16-10.91,2.75,2.75,0,0,0,1.35-.94c1.65-3.14,3.22-6.32,5-9.86-2.4-.21-5.16-.83-7.87-.62-8.2.61-14.28,4.95-18.94,11.54a29.88,29.88,0,0,0-5.54,12.61c-.19,1.16-.38,2.29,1,3C559.73,484.1,560.06,484.9,560.74,485.76Zm-140.22-41-.68-.51c-1,.93-2.43,1.69-2.89,2.84a58,58,0,0,0-1.22,41.25c.56,1.69,1.61,2,2.76,1.08a109.81,109.81,0,0,0,8.73-8,3.56,3.56,0,0,0,.08-3.36,39.35,39.35,0,0,1-5.54-13.16A56.31,56.31,0,0,1,420.52,444.77Zm149.79,40c-1.29,1.1-2.17,1.87-3.07,2.61s-1.84,1.95-3,2.28c-4.66,1.41-5.81,5.25-7,9.25a66.54,66.54,0,0,1-3.34,7.47c7.15.81,9.09,5.73,9.48,11.32,3-.74,5.88-1.46,8.76-2.16,2.07-.5,4.21-.86,5.14-2.83C570,504.66,568.4,495.4,570.31,484.77ZM861.88,246.11a23.42,23.42,0,0,0-13.36-.51,75.44,75.44,0,0,1-19.82,2.67c-11.34,0-21.34-3.23-29-12a7.24,7.24,0,0,0-4.57-2.24,2,2,0,0,0-1.6.89c-1.71,3.59-.94,5.82,2.62,7.57a30.87,30.87,0,0,0,4.11,1.58c3.06,1,6.14,2,9.23,3,6.24,1.91,12.41,4.2,18.77,5.52,4.7,1,9.67.77,14.52.9a29,29,0,0,0,15.7-4.52A29.26,29.26,0,0,0,861.88,246.11ZM361.52,476.71c-1.34.63-2.37,1.21-3.47,1.61-5.48,2-7.63,5.85-7.26,11.59s.74,11.49,4.42,16.33c3.35,4.42,8,7.34,12.51,10.35a3.09,3.09,0,0,0,1.67.41,60.67,60.67,0,0,0,6.18-.21c1.73-.19,3.42-.7,5.62-1.17-4.77-2.72-9-5-13.19-7.53-7.67-4.58-11.58-10.19-9.51-22.34C359,482.77,360.41,480,361.52,476.71Zm160.32,32c.12.06.2.13.26.11a2.66,2.66,0,0,0,.61-.18,17.29,17.29,0,0,1,16.9.07,3.73,3.73,0,0,0,2.82-.08c5-2.09,7.57-6.25,9.58-11,1.91-4.5,3.13-8.91.22-13.14-3.78,2.83-7.48,6.14-11.68,8.61-6.74,4-12.34,9.2-17.87,14.58A12.33,12.33,0,0,0,521.84,508.69Zm9.78,67.07c3.55-1.64,7-3,10.18-4.75,4-2.13,6.52-5.13,6-10.21s-3-9-8.74-11c-2.89,8.13-10.27,12.26-16.23,17.89C527.28,568.66,530,571.38,531.62,575.76Zm59.21,11.44c-.93,5.87-1.84,11.59-2.74,17.28,5.6,1.95,7.31,2,15.28,1,3.43-.47,3.43-.47,4.18-3.94.19-.86.44-1.71.6-2.58.65-3.7,1.28-7.4,1.92-11.07A59,59,0,0,1,590.83,587.2Zm48-5.82c-1.12-.77-2.06-1.48-3.05-2.09-2.93-1.79-5.81-3.71-8.87-5.27-2.59-1.32-7.94,1.68-7.87,4.41.09,3.65.55,7.29,1,10.92a3.57,3.57,0,0,0,1.24,2.25c2.49,1.8,5.1,3.43,7.67,5.13a2.52,2.52,0,0,0,3.37-.41C636.84,592.28,638.65,587.12,638.86,581.38Zm-140.42-143c9.16,4.44,14.49,12,19.8,19.66,1.86-1.5,3.68-3,5.51-4.46,3-2.44,3-2.41,1.81-6.2a33.34,33.34,0,0,0-11-16.75l-4.11,1.79a20.51,20.51,0,0,1,1.41,3.33,7,7,0,0,1-.28,2.31c-.79-.2-1.9-.15-2.3-.66a18.72,18.72,0,0,1-1.82-3.58l-1.61.67a29.12,29.12,0,0,1,3,3.72c.36.64,0,1.69,0,2.55-.79-.15-1.85,0-2.33-.52a51.41,51.41,0,0,1-3.67-4.49ZM377,550.64a85.4,85.4,0,0,0-4.08-25.76l-2.8-.59a66.26,66.26,0,0,1-.08,6.78c-.08.74-1.12,1.38-1.73,2.07-.46-.71-1.24-1.4-1.33-2.16a43.38,43.38,0,0,1-.07-5.23l-.72-.16a5,5,0,0,0-.56,1.8c.17,1.53.58,3,.82,4.56.18,1.16.48,2.57-1.12,2.9s-1.9-1-2.14-2.21c-.39-1.83-.72-3.68-1.07-5.46-2.61,0-2.28,1.53-2,3.07.78,4.86,1.59,9.72,2.22,14.59a44.63,44.63,0,0,1,0,5.8ZM189.69,631l20-21.82c-4.82-.66-7.32-3.56-9.59-6.63-3.26,2.57-6.48,5-9.57,7.63a9.26,9.26,0,0,0-2.34,3.13C185.44,619.27,187.83,624.77,189.69,631ZM526.12,427c.74.64,1.53,1,1.64,1.48.26,1.11.69,2.76.13,3.37-1.1,1.22-2.5.22-3.36-.8a16.18,16.18,0,0,1-1.61-3l-3.76,1.1c2.33,3.13,4.81,5.89,6.62,9s3,6.79,4.53,10.3c2.83-1.93,5.58-3.91,8.43-5.72,4.23-2.66,4.57-3.26,2.76-8a20.62,20.62,0,0,0-2.87-4.92c-1.45-1.93-3.17-3.65-4.83-5.53ZM574.7,652.25l-3.23-.17c-5.13-.2-10.26-.33-15.39-.63-3.42-.2-6.16,2-6.93,5.75-.58,2.84,1.22,5.45,4.46,6.37a12.12,12.12,0,0,0,2.6.46c3.6.24,7.2.48,10.8.61a20.11,20.11,0,0,0,4.17-.32,1.92,1.92,0,0,0,1.34-1.09C573.3,659.67,574,656.08,574.7,652.25Zm-51.34,51.23c3,.91,5.81.87,8.35-1.55a24.31,24.31,0,0,0,7.57-16.21c.41-4.91-4.17-9.25-9.13-9-2.55.11-3.79,1.81-3.69,4.25a86.74,86.74,0,0,1,0,13.39C526.1,697.37,524.49,700.28,523.36,703.48Zm54.5-71.39c-5.23.84-10.16,1.56-15.06,2.44-2.47.44-5.15.3-7.16,2.31-1.35,1.36-3.51,2.71-2.7,4.64.71,1.68,2.79,2.78,4.28,4.12.15.13.42.11.63.19,5.78,2.05,11.68,0,17.59.76C576.24,641.76,577,637.21,577.86,632.09Zm27.38-146.61a14.76,14.76,0,0,0,1.89,0c7.37-.75,13-4.07,15.86-11.15,1-2.46.17-3.69-2.43-3.78a5.74,5.74,0,0,0-1.76.06c-5.67,1.58-11.36,3.08-16.95,4.87a7.12,7.12,0,0,0-5.09,5.38,3.85,3.85,0,0,0,.89,3C599.56,485.84,602.16,485.76,605.24,485.48Zm-19.39,27.37-1-.64a8.44,8.44,0,0,1-.55,1.63A27.49,27.49,0,0,1,581.7,518c-1.48,1.73-3.38,3.1-4.81,4.87-2.43,3-4.72,6.17-6.87,9.4-.7,1.05-.78,2.51-1.23,4.06,1.05-.21,1.56-.26,2.05-.41,5.37-1.59,10.72-3.07,16.43-3a9.36,9.36,0,0,0,6.64-2.82C590.16,524.78,586.33,519.6,585.85,512.85Zm-5.44,186.43L587,677.46l-11.89-2c-1.87,6.79-3.67,13.44-5.54,20.08-.35,1.23.09,1.83,1.22,2C573.86,698.18,577,698.69,580.41,699.28ZM206.89,596.73c-.1,2.78,3.21,7.17,5.51,7.52a2.42,2.42,0,0,0,1.72-.88c1.53-1.68,3-3.4,4.42-5.19,2.61-3.36,5.14-6.78,7.71-10.17,1.22-1.62,1.07-3-.43-4.44a7.4,7.4,0,0,0-9.5-.65,15.56,15.56,0,0,0-5.37,6.83,47.15,47.15,0,0,1-3.24,5.68C207.39,596,207,596.5,206.89,596.73Zm487.49-48.79c2.22-1.13,4.5-2.47,6.92-3.46,2.08-.85,3.38-1.83,3.17-4.37-.46-5.36-.56-10.81-5.25-14.63-1.13-.92-2.33-1.74-3.5-2.6-2.85,2.58-3.94,4.72-4.68,8.77C690,537.58,690.32,543.21,694.38,547.94Zm-84.21,34.25V566c-5.2,2.31-10.22,1.69-15.34.85-1,4.83-2,9.38-3.05,14.41ZM595.71,470.87c.91-.28,2-.59,3.16-1a111.12,111.12,0,0,1,10.61-3.7c3.37-.82,5.15-2.83,6.32-5.82a5.14,5.14,0,0,0-5.38-6.85,25.37,25.37,0,0,0-2.62.35c-7,1.71-11.59,6.45-14.94,12.49C591.6,468.65,593.1,470.89,595.71,470.87Zm18.67,31.55c.51-.05,1-.1,1.53-.13,9.88-.62,14.08-7.31,16.94-15.31.38-1-.46-2.66-1.08-3.82-.15-.28-1.72.1-2.59.34-4.76,1.31-8.8,3.93-12.74,6.83a12.32,12.32,0,0,0-5.19,8.59C610.89,501.38,611.84,502.49,614.38,502.42Zm97.41,11.23c2.29-.64,3.84-1.12,5.41-1.5s3.17-.66,4.76-1c4.15-.79,6.55-2.76,6.32-6.86-.19-3.28-1.92-6.49-3-9.69a1.74,1.74,0,0,0-1.21-.88c-2.36-.37-4.73-.64-7.32-1-1.57,5.35-3.16,10.48-4.55,15.66A28.29,28.29,0,0,0,711.79,513.65Zm-110.41,17,.57-.07c1-9.06,3.91-17.31,10.82-24.05-3.58-.45-6.59-1.18-7.62-4.81a18.88,18.88,0,0,1-1.84,1.9c-.63.49-1.44.75-2.09,1.21-6.48,4.65-9.65,10.73-4.7,18.24,1.26,1.92,2.32,4,3.52,5.93A14,14,0,0,0,601.38,530.65Zm-252-.36a26.83,26.83,0,0,1-.35,4.54c-.18.74-1.1,1.3-1.68,1.94a8.2,8.2,0,0,1-1.41-2.36,13.94,13.94,0,0,1,.11-3.34l-.68-.16a3.75,3.75,0,0,0-.51,1.25,28,28,0,0,1,.1,4.18c-.15.88-1,1.65-1.58,2.46a9.26,9.26,0,0,1-1.65-2.38,10.61,10.61,0,0,1-.06-3l-.75.07q.93,7.86,1.88,15.71c.14,1.12.54,1.88,1.93,1.86,3.65-.07,7.31,0,11.16,0,.82-7.48-.93-14.47-1.57-21.68ZM138.77,665l.85.66,19.79-9.08-3.63-8.83c-1-2.34-1.8-2.85-4.21-1.91s-4.43,2.27-6.73,3.22a6.31,6.31,0,0,0-4.07,5C140.09,657.7,139.44,661.35,138.77,665Zm392.84-66.51a17.76,17.76,0,0,0,9.84-3.66,44.88,44.88,0,0,1,4-2.71c2.48-1.43,3.65-3.18,2.87-6a17.27,17.27,0,0,0-3.11-5.94c-1.82-2.31-4.24-2.57-6.9-1.36-1.27.58-2.54,1.19-3.85,1.65a1.73,1.73,0,0,0-1.4,2.08C533.56,587.94,533.44,593.27,531.61,598.49Zm-383.27-7.13-9.22,15.76L150.55,611c2.32-2.81,4.75-5.65,7-8.6a13.84,13.84,0,0,0,1.86-3.45,2.83,2.83,0,0,0-1.76-4.1C154.77,593.75,151.82,592.67,148.34,591.36Zm431.88,26.71a9.09,9.09,0,0,1-7.49-2.13,1.38,1.38,0,0,0-1-.32,67.28,67.28,0,0,0-9.22,1.9,9.88,9.88,0,0,0-6.63,6.32c-.89,2.81.6,4.8,3.56,4.91a11.59,11.59,0,0,0,2.19-.2c3.83-.68,7.66-1.35,11.48-2.07,2-.39,4.77-.25,5.92-1.51s.88-4,1.22-6.12A5.63,5.63,0,0,0,580.22,618.07Zm118-48.65,1.08.44c1.82-1.73,3.95-3.24,5.4-5.24a28.5,28.5,0,0,1,11.62-9.16c.43-.2.84-.47,1.9-1.08-2-1.8-3.79-3.48-5.68-5a4.22,4.22,0,0,0-2.54-.72c-4.07.08-7.31,2.36-10.66,4.26a5.22,5.22,0,0,0-2.4,5.16C697.23,561.9,697.8,565.66,698.24,569.42ZM322.06,536.67l-.35.05-1,12.65,17.77,1.17c-.65-6.1-1.28-12-1.92-18L330.11,534a20.25,20.25,0,0,1,.22,3.51c-.08.67-.7,1.28-1.08,1.91-.65-.47-1.59-.81-1.88-1.44a12.1,12.1,0,0,1-.58-3.17l-.69-.25c-.23.53-.69,1.09-.65,1.61.08.93.67,1.85.66,2.76a9.16,9.16,0,0,1-.8,2.6c-.76-.54-1.77-.93-2.23-1.67A12.74,12.74,0,0,1,322.06,536.67ZM551.35,548c1-3.79,1.95-7.69,3.09-11.54.82-2.75-.4-4.87-1.8-7a1.53,1.53,0,0,0-1.26-.57,10.07,10.07,0,0,1-9-2.24,34.83,34.83,0,0,1-1,3.72,17.88,17.88,0,0,0-1,9.51,4,4,0,0,0,1.63,2.38C544.9,544.14,547.88,545.85,551.35,548Zm-54.89-114.3c-.59-.31-.84-.46-1.11-.57-5.33-2.32-9.72-5.5-10.82-11.74a1.53,1.53,0,0,0-.75-.91c-3.86-2-7.43.15-7.64,4.53-.3,6.31,3.2,10.46,7.92,13.85a3.08,3.08,0,0,0,2.63.43C489.93,437.57,493,435.65,496.46,433.66ZM606.27,670.23a21.11,21.11,0,0,0,.32,3.25,39.08,39.08,0,0,0,1.38,4c1.31-.82,3-1.35,3.85-2.52a90.47,90.47,0,0,0,5.62-9.69,45.57,45.57,0,0,0,2.78-6.93,3,3,0,0,0-.49-2.58c-2.84-2.69-8.79-1.63-10.65,1.82C607,661.39,606.47,665.53,606.27,670.23Zm-36.19,2.49c-7.35-.81-14.29-1.6-21.23-2.31-2.25-.24-3.22.87-2.94,3.16a6.2,6.2,0,0,0,3.42,4.88A25.34,25.34,0,0,0,566.84,681a2.11,2.11,0,0,0,1.46-1C569,677.69,569.47,675.32,570.08,672.72Zm-386.18-36c-1.47-2.27-2.76-4.31-4.11-6.32-3.66-5.48-7.71-5.25-10.72.63a13.56,13.56,0,0,0-1.14,3.1c-1,4.35.14,8.56.78,13.36Zm440.9-18.81a19.07,19.07,0,0,1-3.7,1c-2,.07-3,1.18-3.8,2.79a25.65,25.65,0,0,0-1.43,18.48c.32,1.17,1.35,2.14,2,3.2.92-.9,2.22-1.63,2.7-2.72,2-4.42,3.58-9,5.48-13.45C627.59,623.67,626,620.8,624.8,617.89ZM565.36,593a62.72,62.72,0,0,1-7,1.87c-2.78.44-5.44,4.26-4,6.67,2.38,3.91,3.31,7.94,2.33,12.08l11.8-3.6C567.46,604.4,566.4,598.66,565.36,593ZM746.7,483.2c-5.77-3-9.24-7.35-12.36-12.87-1.68,1.48-4,2.52-4.31,4a97.66,97.66,0,0,0-1.3,12.83,1.7,1.7,0,0,0,.71,1.41c2.61.84,5.22,2.21,8,.44S743.14,485.43,746.7,483.2ZM188.76,581.92c-3.32-.45-3.3-.45-3.62,2.67a12,12,0,0,1-.52,1.91c-.59,2.26,1,6.42,2.92,6.79a89,89,0,0,0,9.37,1.08,1.6,1.6,0,0,0,1.34-.79c1-4.28,2-8.58,2.82-12.9.35-1.77-.76-2.27-2.27-1.84s-2.89,1.08-4.36,1.53C192.56,580.94,190.65,581.41,188.76,581.92Zm535.39-64.21c-2.1.4-4,.71-5.81,1.12-4,.9-4.49,1.6-4.4,5.68a9.74,9.74,0,0,0,.08,1.32c.75,4.54,1.49,9.08,2.27,13.62.05.31.38.56.5.74,2-1.9,4-3.58,5.75-5.56a57.1,57.1,0,0,0,4.37-6.24c.2-.3,0-.93-.15-1.36-.48-1.34-1.16-2.63-1.54-4C724.76,521.36,724.52,519.62,724.15,517.71ZM534.55,728.26c2.35-1.91,4.43-3.4,6.27-5.14,2.92-2.77,5.91-5.52,7.18-9.57.72-2.29,1.11-4.48-.84-6.35a5.78,5.78,0,0,0-7-.63c-2.69,1.62-5.16,3.14-4.73,7.36C535.88,718.39,534.94,723,534.55,728.26ZM196.15,599.38c-.71-.12-1-.18-1.24-.21-4.45-.48-8.9-.84-13-2.87a3.55,3.55,0,0,0-3.35.59,28.76,28.76,0,0,0-5.69,12.74,6.46,6.46,0,0,0,.24,1.66C182.59,610.86,189.14,605.14,196.15,599.38Zm-65.88,68.69c-.45-2.75-.81-5.2-1.27-7.64-.63-3.39-2.24-4.24-5.29-2.69s-6.16,2.31-9.77.52a45.84,45.84,0,0,0-2,6.17c-.6,3.41,1.53,6.59,4.19,6.22C120.84,670,125.5,669,130.27,668.07ZM151.72,587l.38,1.29c4.64.82,9.28,1.68,13.94,2.4a2.63,2.63,0,0,0,2.17-.68c1.93-2.88,3.8-5.78,2.27-9.59a9.6,9.6,0,0,0-5.27-5.63Zm-14.65,59.24c-.43-1.79-1-4.18-3.49-4.92-3-.92-6.46-1.42-8.93,1.07a49.53,49.53,0,0,0-5.84,7.94,15.83,15.83,0,0,0-1.3,3.9,17.87,17.87,0,0,0,4.06-.87c2.71-1.27,5.25-1.84,8.24-.72C133.19,653.9,137.15,650.52,137.07,646.23Zm568.22-72a11.56,11.56,0,0,1-2.46,1.39c-2.06.67-2.12,2-1.81,3.81.78,4.5,1.43,9,2,13.53.52,3.76.92,7.54,1.38,11.36,4.56-1.92,7.22-8,5.87-12.35C708.51,586.16,707,580.27,705.29,574.22ZM567,704.57c-1.86,5.34-3.69,10.56-5.55,15.9a56.21,56.21,0,0,1,6.63.65c2.87.64,4.25-.61,5.24-3.1,1.61-4,3.41-8,5.22-12.18C574.33,706,570.48,708.12,567,704.57Zm-18.94,46.72c2.24.67,3.94.8,5.36-1.47,2.66-4.23,5.66-8.25,8.4-12.43,2-3.12,3.89-6.37,5.81-9.52l-8.49-.38Zm-27.64-95.8c4.23,3.4,7.64,6.9,7.68,12.4l10.95-.95c-.23-4.32-1.2-8.39-4.4-11.59a3,3,0,0,0-2-.76c-2.41.09-4.81.37-7.22.56C523.74,655.28,522.08,655.38,520.42,655.49Zm85.29,39.45c-.26-3.37-1-6.21-3.87-8.21-1.56-1.09-2.57-1.09-3.73.68-3.59,5.45-2.27,11-.43,16.49.33,1,1.7,2.39,2.43,2.3a4.34,4.34,0,0,0,3.08-2.21A89,89,0,0,0,605.71,694.94ZM525.52,648.3c5.79-1,11.33-2.43,16.19-5.61,4.25-2.79,6.56-10.69,4.52-15.13a1.89,1.89,0,0,0-1.25-1,1.68,1.68,0,0,0-1.25.83c-1.49,2.62-2.87,5.29-4.33,7.93a9.05,9.05,0,0,1-1.57,2.37c-2.89,2.61-5.87,5.11-8.82,7.65C527.86,646.36,526.69,647.32,525.52,648.3ZM574,550.64c-.68,2.35-1.42,4.57-2,6.85-.75,3.11,2.15,7.07,5.35,7.53,1.54.22,3.06.56,4.77.88a8,8,0,0,0-1.32-12.59C578.86,552.12,576.51,551.61,574,550.64Zm27.58-6.54c-2.12,1.54-5.24,11.94-5.23,17.27,4.22,1.51,8.32-.15,12.81-.41ZM537.7,423c4.34,4.26,7.88,8.89,8.71,15.2,2.1-1.1,3.94-2,5.7-3a2.33,2.33,0,0,0,.95-1.53c.49-4.62-.48-8.58-4.26-11.85-1.93-1.67-3.29-1.45-5.38-.41a19.56,19.56,0,0,1,1.67,2.91,6.43,6.43,0,0,1,0,2.19c-.8-.07-1.83.14-2.36-.28a6.36,6.36,0,0,1-1.86-2.66C540.16,421.63,539.17,422,537.7,423Zm13.61-3.84c4.49,3.6,5.69,8.27,5.73,13.65,3.11-1.37,6-2.59,8.85-3.95.42-.2.91-1.17.75-1.5-1.21-2.55-2.27-5.27-4-7.45a7.24,7.24,0,0,0-4.83-2.44C555.82,417.41,553.77,418.49,551.31,419.19Zm4.51,164.48.26.12a37.9,37.9,0,0,0,.62,4.12,1.93,1.93,0,0,0,1.28,1.18c2.53.33,6.31-2.34,6.89-4.82.65-2.79,1.26-5.58,1.81-8.39a2.57,2.57,0,0,0-3-3.27c-2.69.45-5.17,1.43-6.11,4.32C556.9,579.14,556.41,581.42,555.82,583.67Zm198.8-94.91c-5.89,2.21-9.75,10.32-9.12,19.05,1.35.08,2.74.07,4.11.25a2.4,2.4,0,0,0,2.85-1.79A42,42,0,0,0,754.62,488.76ZM540.29,731.46c-2.81,1.38-5.24,2.56-7.66,3.76a1.85,1.85,0,0,0-.84.64c-1.32,2.83-2.59,5.69-4,8.75,4.18.35,8.21.53,11,4.32a7.65,7.65,0,0,0,.47-1.45C539.65,742.21,540,736.94,540.29,731.46Zm17.89-173c.26,1.32.6,3.47,1.13,5.58.4,1.58,1.74,1.82,2.61.69a30,30,0,0,0,3.89-6.43,38.74,38.74,0,0,0,1.91-7.2c.15-.75,0-2.09-.39-2.32-1.25-.66-2.67-2-4.17-.65A13.89,13.89,0,0,0,558.18,558.46Zm15,31.75a7.52,7.52,0,0,0,8-6.88c.12-2.92.63-5.82,1-8.72.06-.52.1-1,.14-1.53-1.56.37-3,1.1-4.24.93-2.21-.28-2.88.72-3.14,2.55-.09.65-.32,1.29-.4,1.94C574,582.39,573.6,586.28,573.16,590.21ZM318.1,537c-2.87-.45-4.25.36-4.54,2.77a4.76,4.76,0,0,1-.72,2.29,2.57,2.57,0,0,1-1.94.89c-.39,0-1-1-1-1.63a18.6,18.6,0,0,1,.63-3.63c-1.17.72-2.23,1-2.45,1.55-1.15,3.14-2.1,6.36-3.27,10,3.77,0,7.14,0,10.5,0a1.38,1.38,0,0,0,1.08-.77C317,544.62,317.55,540.8,318.1,537ZM581,594.57l-9.49,2a33.5,33.5,0,0,0,4.12,13.94c.48.86,1.67,1.33,2.56,2C579.18,606.17,580.11,600.24,581,594.57Zm-38.07,24.48a17.68,17.68,0,0,0,1.47-10.88c-1-4.76-3-5.82-7.6-4.32-3,1-6.18,2-9.45.31l-1.82,1.7C533.83,607,540.6,609.74,542.93,619.05Zm36.94-207.13-14.85,4,6.15,10.74C575.44,422.68,577.76,417.44,579.87,411.92Zm177.79,50.69c-1.3,1.45-2.62,2.9-3.91,4.37-4.45,5.07-4.68,7.66-1.08,13.21.35.54,1.1,1.34,1.45,1.25a3.44,3.44,0,0,0,2.19-1.45C758.68,474.43,758.15,468.58,757.66,462.61ZM552,512.92c-2.56-.07-5.52,2.65-6.49,6-.82,2.82,1.27,5.21,4.11,4.39a29,29,0,0,0,6.2-2.79c1.79-1,2.07-3.51,1.09-6-.74-1.9-2-2.4-3.82-1.61A3,3,0,0,1,552,512.92Zm39.24,215.5c-5-.17-12.18,12.11-10.71,18.23C586.22,744.43,592.51,733.74,591.25,728.42ZM139.41,639.84l2.21,4c2.19-.64,4.26-1.3,6.35-1.85s3.95-.91,5.93-1.34c.49-.11,1.32,0,1.42-.26,1.07-2.45,3-4.69,2.22-7.72ZM229,579.71c5-5.42,9.8-10.6,14.59-15.78-5.15,2.06-10.17,4.42-15.18,6.81-.25.11-.59.34-.63.56a27.81,27.81,0,0,0-.8,6.09C227,578.32,228.44,579.16,229,579.71Zm-53.79-11.34c.09,5.26,4.37,5.69,6.83,5.56,2.3-.13,4.43-3.18,6.56-4.88a19.67,19.67,0,0,0-1.83-3.19c-.47-.52-1.47-1.12-2-1C181.46,566,178.27,567.22,175.16,568.37ZM287.94,548.1c4.17.13,8.26.28,12.34.35.29,0,.73-.47.85-.81.9-2.52,1.74-5.06,2.72-7.95l-3.17.65c-3.35.68-3.3.67-3.1,4.06,0,.63-.59,1.31-.91,2-.73-.36-1.81-.56-2.09-1.14a13.87,13.87,0,0,1-.75-3.51C289.82,541.92,289.57,542.18,287.94,548.1Zm301.8-9.31c-2.35,0-4.68,0-7,0a3.6,3.6,0,0,0-1.94.76,18.6,18.6,0,0,0-2.73,2.59,4.83,4.83,0,0,0-1.46,2.53c0,.62,1.1,1.69,1.82,1.79a15,15,0,0,0,5.17-.08C587,545.7,590,541.63,589.74,538.79ZM182.31,614.46c-4.18,1.21-9.36,1.06-10.36,7.3,4.79-.83,8.41,1.14,11.05,4.87ZM740.12,535.7a17.82,17.82,0,0,0-8.9,9.2c-.65,1.6-.86,3.1,1.19,4.76,2.66-2.91,5.34-5.77,7.94-8.7C741.88,539.22,742,537.42,740.12,535.7Zm-31.35-20.9c-1.25-7.44,2.3-13.86,3.64-20.69-3.3,5.54-7,10.91-7.19,17.68C705.12,514.67,705.74,515.18,708.77,514.8Zm-61.6-68.24-.37-.24-9.65,10.95,6.91,1.44ZM165.25,618.36l2.7-5.72c-7.48-1-9.16-.85-10.62.87ZM630,500.27l8.25.67c-.86-2.77-1.78-5.72-2.78-8.92C633.51,495,631.78,497.62,630,500.27Zm91.38,75.38c2-3.81,3.93-7.62,6-11.63a12.34,12.34,0,0,0-2.7-.48c-.68,0-1.74.31-2,.78A20,20,0,0,0,721.41,575.65Zm-499.22-1.94-13.08,1.71c.41,1.81.59,2.14,2.3,2,2.83-.16,5.65-.8,8.48-.83C222.39,576.6,222.4,575.33,222.19,573.71ZM564.38,756c-2.14,4.7-1,9.55-.81,14.35C565.55,765.62,567.2,760.91,564.38,756ZM749.77,515.18c-1.78-.09-3.07-.42-4.21-.14a6,6,0,0,0-3.11,1.86c-1,1.28.08,2.38,1.13,3.05.67.42,2.08.81,2.36.49A59.93,59.93,0,0,0,749.77,515.18ZM274,545.45l0,.65,6.48.94c3.75.52,4.08.27,4.67-3.7ZM585.43,718.18l8-2.61C588.49,712.63,586,713.4,585.43,718.18Zm-396-141,7.21-2.61-5.64-1.6C190.67,573.89,190.17,575.21,189.45,577.15Zm546.47-50.68c-1.94.77-2.28,1.47-1.72,3.6C736.38,529.59,736.7,528.92,735.92,526.47Z" transform="translate(-102.42 -211.45)"/></svg>